<svg xmlns="http://www.w3.org/2000/svg" width="68" height="68" viewBox="0 0 68 68">
    <defs>
        <filter id="oc0uuwpe5a" width="119%" height="195.8%" x="-9.5%" y="-47.9%" filterUnits="objectBoundingBox">
            <feOffset dy="2" in="SourceAlpha" result="shadowOffsetOuter1"/>
            <feGaussianBlur in="shadowOffsetOuter1" result="shadowBlurOuter1" stdDeviation="5"/>
            <feColorMatrix in="shadowBlurOuter1" result="shadowMatrixOuter1" values="0 0 0 0 0 0 0 0 0 0 0 0 0 0 0 0 0 0 0.2 0"/>
            <feMerge>
                <feMergeNode in="shadowMatrixOuter1"/>
                <feMergeNode in="SourceGraphic"/>
            </feMerge>
        </filter>
    </defs>
    <g fill="none" fill-rule="evenodd" stroke-linecap="round" stroke-linejoin="round">
        <g stroke="#000" stroke-width="1.5">
            <g filter="url(#oc0uuwpe5a)" transform="translate(-118 -3136) translate(109 3146)">
                <g>
                    <path d="M17.034 31.752l-3.87-4.354c-.528-.58-.703-1.4-.459-2.146.244-.746.87-1.302 1.64-1.458.77-.155 1.563.115 2.077.707l2.712 3.051v-12.6c0-1.16.94-2.1 2.1-2.1 1.16 0 2.1.94 2.1 2.1v9.45h2.1c3.48 0 6.3 2.82 6.3 6.3v1.05M11.784 21.252h-9.45c-1.16 0-2.1-.94-2.1-2.1v-12.6c0-1.16.94-2.1 2.1-2.1" transform="translate(27 8)"/>
                    <path d="M22.284 4.452h7.35c1.16 0 2.1.94 2.1 2.1v12.6c0 1.16-.94 2.1-2.1 2.1h-2.1M12.309 6.552c0-.29-.235-.525-.525-.525M11.784 7.077c.29 0 .525-.235.525-.525M11.259 6.552c0 .29.235.525.525.525M11.784 6.027c-.29 0-.525.235-.525.525" transform="translate(27 8)"/>
                    <path d="M11.784.252c3.48 0 6.3 2.82 6.3 6.3 0 2.69-3.763 7.808-5.473 9.993-.199.255-.504.404-.827.404-.323 0-.628-.149-.827-.404-1.71-2.186-5.473-7.303-5.473-9.993 0-3.48 2.82-6.3 6.3-6.3z" transform="translate(27 8)"/>
                </g>
            </g>
        </g>
    </g>
</svg>
