<?xml version="1.0" encoding="UTF-8"?>
<!-- Generator: Adobe Illustrator 26.0.1, SVG Export Plug-In . SVG Version: 6.00 Build 0)  -->
<svg version="1.1" id="Ebene_1" xmlns="http://www.w3.org/2000/svg" xmlns:xlink="http://www.w3.org/1999/xlink" x="0px" y="0px" viewBox="0 0 252 110" style="enable-background:new 0 0 252 110;" xml:space="preserve">
<style type="text/css">
	.st0{fill:#FFFFFF;}
	.st1{fill:#F8D200;}
	.st2{fill:#E30613;}
</style>
<path class="st0" d="M0,0h252v110H0V0z"/>
<path class="st1" d="M58.8,64.3h1.7v22.4h-3.9V64.3H58.8z"/>
<path class="st2" d="M58.8,41.8h1.7v22.5h-3.9V41.8H58.8z"/>
<path d="M73.8,21.6c0,0.3,0,0.6-0.1,0.8c-0.1,0.2-0.2,0.4-0.3,0.6c-0.1,0.2-0.3,0.3-0.5,0.4c-0.2,0.1-0.4,0.2-0.6,0.2v0  c0.2,0,0.5,0.1,0.7,0.3c0.2,0.1,0.4,0.3,0.5,0.5c0.2,0.2,0.3,0.4,0.4,0.7C74,25.4,74,25.7,74,26c0,0.4-0.1,0.7-0.2,1  c-0.1,0.3-0.3,0.6-0.6,0.8c-0.3,0.2-0.6,0.4-1,0.5c-0.4,0.1-0.9,0.2-1.4,0.2h-1.9v-9.3h1.8c0.5,0,1,0.1,1.4,0.2  c0.4,0.1,0.7,0.3,1,0.5s0.4,0.5,0.5,0.7C73.7,21,73.8,21.3,73.8,21.6z M72.6,21.7c0-0.4-0.2-0.8-0.5-1.1c-0.3-0.3-0.8-0.4-1.4-0.4  h-0.6v3.2h0.6c0.6,0,1.1-0.2,1.4-0.5C72.4,22.6,72.6,22.2,72.6,21.7z M72.8,25.9c0-0.5-0.2-0.9-0.5-1.2c-0.3-0.3-0.8-0.4-1.4-0.4  h-0.8v3.2h0.7c0.7,0,1.2-0.1,1.5-0.4C72.6,26.9,72.8,26.5,72.8,25.9z M79.9,28.5h-1v-0.7h0c0,0.1-0.1,0.1-0.2,0.2  c-0.1,0.1-0.2,0.2-0.3,0.3c-0.1,0.1-0.3,0.2-0.5,0.2c-0.2,0.1-0.4,0.1-0.7,0.1c-0.3,0-0.5,0-0.8-0.1c-0.2-0.1-0.4-0.2-0.6-0.4  c-0.2-0.2-0.3-0.4-0.4-0.7c-0.1-0.3-0.1-0.7-0.1-1.1v-4.2h1.1v4.1c0,0.5,0.1,0.9,0.3,1.1c0.2,0.2,0.4,0.3,0.8,0.3  c0.3,0,0.6-0.1,0.8-0.2c0.2-0.2,0.4-0.3,0.5-0.5v-4.9h1.1V28.5z M85.1,28.5v-4.1c0-0.5-0.1-0.9-0.3-1.2c-0.2-0.2-0.5-0.4-0.8-0.4  c-0.3,0-0.6,0.1-0.8,0.2c-0.2,0.2-0.4,0.3-0.5,0.5v5h-1.1v-6.4h1v0.7h0c0-0.1,0.1-0.1,0.2-0.2c0.1-0.1,0.2-0.2,0.3-0.3  c0.1-0.1,0.3-0.2,0.5-0.2c0.2-0.1,0.4-0.1,0.7-0.1c0.3,0,0.5,0,0.8,0.1c0.2,0.1,0.4,0.2,0.6,0.4c0.2,0.2,0.3,0.4,0.4,0.7  c0.1,0.3,0.1,0.7,0.1,1.1v4.2H85.1z M87.5,25.4c0-0.7,0.1-1.2,0.3-1.6c0.2-0.4,0.4-0.8,0.7-1.1c0.3-0.3,0.6-0.5,0.9-0.6  c0.3-0.1,0.7-0.2,1-0.2c0.2,0,0.4,0,0.5,0c0.2,0,0.3,0.1,0.4,0.1V19l1.1-0.1v9.6h-1v-0.7h0c0,0.1-0.1,0.1-0.1,0.2  c-0.1,0.1-0.2,0.2-0.3,0.3c-0.1,0.1-0.3,0.2-0.5,0.2c-0.2,0.1-0.4,0.1-0.7,0.1c-0.3,0-0.6-0.1-0.9-0.2c-0.3-0.1-0.5-0.3-0.7-0.6  c-0.2-0.3-0.4-0.6-0.5-1C87.6,26.5,87.5,26,87.5,25.4z M90.1,27.7c0.2,0,0.3,0,0.5-0.1c0.1,0,0.3-0.1,0.3-0.2  c0.1-0.1,0.2-0.1,0.2-0.2c0.1-0.1,0.1-0.1,0.2-0.2v-4c-0.1-0.1-0.2-0.1-0.3-0.2c-0.1,0-0.3-0.1-0.5-0.1c-0.3,0-0.5,0-0.7,0.1  c-0.2,0.1-0.4,0.2-0.6,0.4s-0.3,0.5-0.4,0.8c-0.1,0.3-0.1,0.7-0.1,1.2c0,0.4,0,0.8,0.1,1.1c0.1,0.3,0.2,0.5,0.3,0.7  c0.1,0.2,0.3,0.3,0.5,0.4C89.7,27.7,89.9,27.7,90.1,27.7z M98.2,24.3c0,0.3,0,0.5,0,0.7c0,0.2,0,0.4-0.1,0.5h-3.3  c0,0.8,0.2,1.3,0.5,1.7c0.3,0.4,0.7,0.5,1.3,0.5c0.2,0,0.4,0,0.5-0.1c0.2,0,0.3-0.1,0.4-0.2c0.1-0.1,0.2-0.1,0.3-0.2  c0.1-0.1,0.1-0.1,0.2-0.1l0.4,0.8c0,0-0.1,0.1-0.2,0.2c-0.1,0.1-0.2,0.2-0.4,0.3c-0.2,0.1-0.3,0.2-0.6,0.2c-0.2,0.1-0.5,0.1-0.8,0.1  c-0.4,0-0.8-0.1-1.1-0.2c-0.3-0.1-0.6-0.3-0.8-0.6c-0.2-0.3-0.4-0.6-0.5-1.1c-0.1-0.4-0.2-1-0.2-1.6c0-0.6,0.1-1.1,0.2-1.5  c0.1-0.4,0.3-0.8,0.5-1c0.2-0.3,0.5-0.5,0.8-0.6c0.3-0.1,0.6-0.2,1-0.2c0.6,0,1.1,0.2,1.4,0.6C98,22.9,98.2,23.5,98.2,24.3z   M96.1,22.8c-0.4,0-0.7,0.2-0.9,0.5c-0.2,0.3-0.4,0.8-0.4,1.4h2.3c0,0,0-0.1,0-0.2c0-0.1,0-0.2,0-0.3c0-0.4-0.1-0.8-0.3-1  C96.7,22.9,96.5,22.8,96.1,22.8z M102.4,23.4c-0.1-0.1-0.2-0.2-0.4-0.3c-0.2-0.1-0.4-0.2-0.7-0.2c-0.3,0-0.5,0.1-0.7,0.2  c-0.2,0.1-0.2,0.3-0.2,0.5c0,0.2,0.1,0.4,0.2,0.6c0.1,0.2,0.4,0.3,0.6,0.5l0.4,0.2c0.4,0.3,0.8,0.5,1,0.8c0.3,0.3,0.4,0.7,0.4,1.2  c0,0.5-0.2,0.9-0.5,1.3c-0.4,0.3-0.9,0.5-1.5,0.5c-0.3,0-0.5,0-0.7-0.1c-0.2-0.1-0.4-0.1-0.5-0.2c-0.1-0.1-0.3-0.1-0.4-0.2  c-0.1-0.1-0.2-0.2-0.2-0.2l0.5-0.9c0.1,0.1,0.1,0.1,0.2,0.2c0.1,0.1,0.2,0.1,0.3,0.2c0.1,0.1,0.2,0.1,0.4,0.2c0.1,0,0.3,0.1,0.5,0.1  c0.3,0,0.6-0.1,0.7-0.2c0.2-0.1,0.3-0.3,0.3-0.5c0-0.2,0-0.3-0.1-0.4c0-0.1-0.1-0.2-0.2-0.3c-0.1-0.1-0.2-0.2-0.3-0.3  c-0.1-0.1-0.3-0.2-0.4-0.3l-0.4-0.3c-0.4-0.3-0.7-0.5-0.9-0.8c-0.2-0.3-0.3-0.7-0.3-1.1c0-0.2,0-0.5,0.1-0.7  c0.1-0.2,0.2-0.4,0.4-0.5c0.2-0.1,0.4-0.3,0.6-0.3c0.2-0.1,0.5-0.1,0.7-0.1c0.3,0,0.5,0,0.6,0.1c0.2,0,0.3,0.1,0.5,0.2  c0.1,0.1,0.2,0.2,0.3,0.2c0.1,0.1,0.2,0.1,0.2,0.2L102.4,23.4z M107.7,28.5v-4.1c0-0.5-0.1-0.9-0.2-1.1c-0.2-0.2-0.4-0.3-0.7-0.3  c-0.2,0-0.3,0-0.5,0.1c-0.1,0-0.3,0.1-0.4,0.2c-0.1,0.1-0.2,0.1-0.3,0.2c-0.1,0.1-0.1,0.2-0.2,0.2v5h-1.1v-6.4h1v0.7h0  c0-0.1,0.1-0.2,0.2-0.3c0.1-0.1,0.2-0.2,0.3-0.3c0.1-0.1,0.3-0.2,0.5-0.2c0.2-0.1,0.4-0.1,0.6-0.1c0.7,0,1.3,0.3,1.6,0.9  c0.1-0.1,0.1-0.2,0.3-0.3c0.1-0.1,0.2-0.2,0.4-0.3c0.1-0.1,0.3-0.2,0.5-0.2c0.2-0.1,0.4-0.1,0.6-0.1c1.3,0,2,0.8,2,2.3v4.3h-1.1  v-4.1c0-0.5-0.1-0.9-0.3-1.1c-0.2-0.2-0.5-0.3-0.8-0.3c-0.3,0-0.6,0.1-0.8,0.2c-0.2,0.1-0.4,0.3-0.5,0.4c0,0.1,0,0.2,0,0.3  c0,0.1,0,0.2,0,0.4v4.3H107.7z M114.9,28.5h-1.1v-6.4h1.1V28.5z M114.3,20.5c-0.2,0-0.4-0.1-0.5-0.2s-0.2-0.3-0.2-0.6  c0-0.2,0.1-0.4,0.2-0.5s0.3-0.2,0.5-0.2c0.2,0,0.4,0.1,0.5,0.2c0.1,0.1,0.2,0.3,0.2,0.5c0,0.2-0.1,0.4-0.2,0.6  C114.7,20.5,114.5,20.5,114.3,20.5z M120,28.5v-4.1c0-0.5-0.1-0.9-0.3-1.2c-0.2-0.2-0.5-0.4-0.8-0.4c-0.3,0-0.6,0.1-0.8,0.2  c-0.2,0.2-0.4,0.3-0.5,0.5v5h-1.1v-6.4h1v0.7h0c0-0.1,0.1-0.1,0.2-0.2c0.1-0.1,0.2-0.2,0.3-0.3c0.1-0.1,0.3-0.2,0.5-0.2  c0.2-0.1,0.4-0.1,0.7-0.1c0.3,0,0.5,0,0.8,0.1c0.2,0.1,0.4,0.2,0.6,0.4c0.2,0.2,0.3,0.4,0.4,0.7c0.1,0.3,0.1,0.7,0.1,1.1v4.2H120z   M123.8,28.5h-1.1v-6.4h1.1V28.5z M123.3,20.5c-0.2,0-0.4-0.1-0.5-0.2c-0.1-0.1-0.2-0.3-0.2-0.6c0-0.2,0.1-0.4,0.2-0.5  c0.1-0.1,0.3-0.2,0.5-0.2c0.2,0,0.4,0.1,0.5,0.2c0.1,0.1,0.2,0.3,0.2,0.5c0,0.2-0.1,0.4-0.2,0.6C123.7,20.5,123.5,20.5,123.3,20.5z   M128.3,23.4c-0.1-0.1-0.2-0.2-0.4-0.3c-0.2-0.1-0.4-0.2-0.7-0.2c-0.3,0-0.5,0.1-0.7,0.2c-0.2,0.1-0.2,0.3-0.2,0.5  c0,0.2,0.1,0.4,0.2,0.6c0.1,0.2,0.4,0.3,0.6,0.5l0.4,0.2c0.4,0.3,0.8,0.5,1,0.8c0.3,0.3,0.4,0.7,0.4,1.2c0,0.5-0.2,0.9-0.5,1.3  c-0.4,0.3-0.9,0.5-1.5,0.5c-0.3,0-0.5,0-0.7-0.1s-0.4-0.1-0.5-0.2c-0.1-0.1-0.3-0.1-0.4-0.2c-0.1-0.1-0.2-0.2-0.2-0.2l0.5-0.9  c0.1,0.1,0.1,0.1,0.2,0.2c0.1,0.1,0.2,0.1,0.3,0.2c0.1,0.1,0.2,0.1,0.4,0.2c0.1,0,0.3,0.1,0.5,0.1c0.3,0,0.6-0.1,0.7-0.2  c0.2-0.1,0.3-0.3,0.3-0.5c0-0.2,0-0.3-0.1-0.4c0-0.1-0.1-0.2-0.2-0.3c-0.1-0.1-0.2-0.2-0.3-0.3c-0.1-0.1-0.3-0.2-0.4-0.3l-0.4-0.3  c-0.4-0.3-0.7-0.5-0.9-0.8c-0.2-0.3-0.3-0.7-0.3-1.1c0-0.2,0-0.5,0.1-0.7c0.1-0.2,0.2-0.4,0.4-0.5c0.2-0.1,0.4-0.3,0.6-0.3  c0.2-0.1,0.5-0.1,0.7-0.1c0.3,0,0.5,0,0.6,0.1c0.2,0,0.3,0.1,0.5,0.2c0.1,0.1,0.2,0.2,0.3,0.2c0.1,0.1,0.2,0.1,0.2,0.2L128.3,23.4z   M132.9,23h-1.4v3.6c0,0.5,0.1,0.8,0.2,0.9c0.1,0.2,0.3,0.2,0.6,0.2c0.2,0,0.3,0,0.4-0.1c0.1,0,0.2-0.1,0.3-0.1l0.1,0.9  c0,0-0.2,0.1-0.3,0.2c-0.2,0.1-0.4,0.1-0.7,0.1c-0.6,0-1-0.2-1.2-0.5c-0.3-0.3-0.4-0.8-0.4-1.5V23h-0.8v-0.7l0.8-0.2l0.1-1.8h1v1.8  h1.5L132.9,23z M138.2,24.3c0,0.3,0,0.5,0,0.7c0,0.2,0,0.4-0.1,0.5h-3.3c0,0.8,0.2,1.3,0.5,1.7c0.3,0.4,0.7,0.5,1.3,0.5  c0.2,0,0.4,0,0.5-0.1c0.2,0,0.3-0.1,0.4-0.2c0.1-0.1,0.2-0.1,0.3-0.2c0.1-0.1,0.1-0.1,0.2-0.1l0.4,0.8c0,0-0.1,0.1-0.2,0.2  c-0.1,0.1-0.2,0.2-0.4,0.3c-0.2,0.1-0.3,0.2-0.6,0.2c-0.2,0.1-0.5,0.1-0.8,0.1c-0.4,0-0.8-0.1-1.1-0.2c-0.3-0.1-0.6-0.3-0.8-0.6  c-0.2-0.3-0.4-0.6-0.5-1.1c-0.1-0.4-0.2-1-0.2-1.6c0-0.6,0.1-1.1,0.2-1.5c0.1-0.4,0.3-0.8,0.5-1c0.2-0.3,0.5-0.5,0.8-0.6  c0.3-0.1,0.6-0.2,1-0.2c0.6,0,1.1,0.2,1.4,0.6C138,22.9,138.2,23.5,138.2,24.3z M136.2,22.8c-0.4,0-0.7,0.2-0.9,0.5  c-0.2,0.3-0.4,0.8-0.4,1.4h2.3c0,0,0-0.1,0-0.2c0-0.1,0-0.2,0-0.3c0-0.4-0.1-0.8-0.3-1C136.8,22.9,136.5,22.8,136.2,22.8z M142.5,23  c0,0-0.1,0-0.2-0.1c-0.1,0-0.2,0-0.4,0c-0.3,0-0.6,0.1-0.8,0.3c-0.2,0.2-0.3,0.4-0.4,0.6v4.7h-1.1v-6.4h1V23h0  c0-0.1,0.1-0.2,0.2-0.4c0.1-0.1,0.2-0.2,0.3-0.3s0.2-0.2,0.4-0.2c0.1-0.1,0.3-0.1,0.5-0.1c0.2,0,0.3,0,0.4,0c0.1,0,0.2,0,0.2,0.1  L142.5,23z M144.6,28.5h-1.1v-6.4h1.1V28.5z M144.1,20.5c-0.2,0-0.4-0.1-0.5-0.2c-0.1-0.1-0.2-0.3-0.2-0.6c0-0.2,0.1-0.4,0.2-0.5  c0.1-0.1,0.3-0.2,0.5-0.2c0.2,0,0.4,0.1,0.5,0.2s0.2,0.3,0.2,0.5c0,0.2-0.1,0.4-0.2,0.6S144.3,20.5,144.1,20.5z M150.8,28.5h-1v-0.7  h0c0,0.1-0.1,0.1-0.2,0.2c-0.1,0.1-0.2,0.2-0.3,0.3c-0.1,0.1-0.3,0.2-0.5,0.2c-0.2,0.1-0.4,0.1-0.7,0.1c-0.3,0-0.5,0-0.8-0.1  c-0.2-0.1-0.4-0.2-0.6-0.4c-0.2-0.2-0.3-0.4-0.4-0.7c-0.1-0.3-0.1-0.7-0.1-1.1v-4.2h1.1v4.1c0,0.5,0.1,0.9,0.3,1.1  c0.2,0.2,0.4,0.3,0.8,0.3c0.3,0,0.6-0.1,0.8-0.2c0.2-0.2,0.4-0.3,0.5-0.5v-4.9h1.1V28.5z M155.9,28.5v-4.1c0-0.5-0.1-0.9-0.2-1.1  c-0.2-0.2-0.4-0.3-0.7-0.3c-0.2,0-0.3,0-0.5,0.1c-0.1,0-0.3,0.1-0.4,0.2c-0.1,0.1-0.2,0.1-0.3,0.2c-0.1,0.1-0.1,0.2-0.2,0.2v5h-1.1  v-6.4h1v0.7h0c0-0.1,0.1-0.2,0.2-0.3c0.1-0.1,0.2-0.2,0.3-0.3c0.1-0.1,0.3-0.2,0.5-0.2c0.2-0.1,0.4-0.1,0.6-0.1  c0.7,0,1.3,0.3,1.6,0.9c0.1-0.1,0.1-0.2,0.3-0.3c0.1-0.1,0.2-0.2,0.4-0.3c0.1-0.1,0.3-0.2,0.5-0.2c0.2-0.1,0.4-0.1,0.6-0.1  c1.3,0,2,0.8,2,2.3v4.3h-1.1v-4.1c0-0.5-0.1-0.9-0.3-1.1c-0.2-0.2-0.5-0.3-0.8-0.3c-0.3,0-0.6,0.1-0.8,0.2c-0.2,0.1-0.4,0.3-0.5,0.4  c0,0.1,0,0.2,0,0.3c0,0.1,0,0.2,0,0.4v4.3H155.9z M71.4,36.5h-1.3v5.6H69v-5.6h-0.8v-0.7l0.8-0.1v-1.3c0-0.3,0-0.6,0.1-0.9  c0.1-0.3,0.2-0.5,0.4-0.6c0.2-0.2,0.3-0.3,0.6-0.3c0.2-0.1,0.4-0.1,0.7-0.1c0.2,0,0.4,0,0.6,0.1c0.2,0.1,0.3,0.1,0.3,0.1l-0.2,0.9  c-0.1,0-0.1-0.1-0.2-0.1c-0.1,0-0.2-0.1-0.4-0.1c-0.3,0-0.5,0.1-0.6,0.2s-0.2,0.5-0.2,0.9v1.2h1.4L71.4,36.5z M77,42.1h-1v-0.7h0  c0,0.1-0.1,0.1-0.2,0.2c-0.1,0.1-0.2,0.2-0.3,0.3c-0.1,0.1-0.3,0.2-0.5,0.2c-0.2,0.1-0.4,0.1-0.7,0.1c-0.3,0-0.5,0-0.8-0.1  c-0.2-0.1-0.4-0.2-0.6-0.4c-0.2-0.2-0.3-0.4-0.4-0.7c-0.1-0.3-0.1-0.7-0.1-1.1v-4.2h1.1v4.1c0,0.5,0.1,0.9,0.3,1.1  c0.2,0.2,0.4,0.3,0.8,0.3c0.3,0,0.6-0.1,0.8-0.2c0.2-0.2,0.4-0.3,0.5-0.5v-4.9H77V42.1z M74.3,33.8c0,0.2-0.1,0.4-0.2,0.5  c-0.1,0.1-0.3,0.2-0.5,0.2c-0.2,0-0.3-0.1-0.5-0.2C73.1,34.1,73,34,73,33.8c0-0.2,0.1-0.4,0.2-0.5c0.1-0.1,0.3-0.2,0.5-0.2  c0.2,0,0.3,0.1,0.5,0.2C74.2,33.4,74.3,33.6,74.3,33.8z M76.4,33.8c0,0.2-0.1,0.4-0.2,0.5c-0.1,0.1-0.3,0.2-0.5,0.2  s-0.3-0.1-0.5-0.2c-0.1-0.1-0.2-0.3-0.2-0.5c0-0.2,0.1-0.4,0.2-0.5c0.1-0.1,0.3-0.2,0.5-0.2s0.3,0.1,0.5,0.2  C76.3,33.4,76.4,33.6,76.4,33.8z M81.5,36.6c0,0-0.1,0-0.2-0.1c-0.1,0-0.2,0-0.4,0c-0.3,0-0.6,0.1-0.8,0.3c-0.2,0.2-0.3,0.4-0.4,0.6  v4.7h-1.1v-6.4h1v0.9h0c0-0.1,0.1-0.2,0.2-0.4c0.1-0.1,0.2-0.2,0.3-0.3s0.2-0.2,0.4-0.2c0.1-0.1,0.3-0.1,0.5-0.1c0.2,0,0.3,0,0.4,0  c0.1,0,0.2,0,0.2,0.1L81.5,36.6z M85.3,42.1v-9.3H87c0.8,0,1.4,0.1,2,0.2c0.6,0.2,1,0.4,1.4,0.8c0.4,0.3,0.6,0.8,0.8,1.4  c0.2,0.6,0.3,1.2,0.3,2c0,0.8-0.1,1.6-0.3,2.2c-0.2,0.6-0.5,1.1-0.9,1.5c-0.4,0.4-0.9,0.7-1.4,0.9c-0.6,0.2-1.2,0.3-1.9,0.3H85.3z   M86.5,33.7v7.4h0.4c0.5,0,1-0.1,1.4-0.2c0.4-0.1,0.8-0.4,1-0.7c0.3-0.3,0.5-0.7,0.7-1.2c0.1-0.5,0.2-1.1,0.2-1.8  c0-0.7-0.1-1.2-0.2-1.6s-0.4-0.8-0.6-1.1c-0.3-0.3-0.6-0.5-1-0.6c-0.4-0.1-0.9-0.2-1.4-0.2H86.5z M94,42.1H93v-6.4H94V42.1z   M93.5,34.1c-0.2,0-0.4-0.1-0.5-0.2c-0.1-0.1-0.2-0.3-0.2-0.6c0-0.2,0.1-0.4,0.2-0.5c0.1-0.1,0.3-0.2,0.5-0.2c0.2,0,0.4,0.1,0.5,0.2  s0.2,0.3,0.2,0.5c0,0.2-0.1,0.4-0.2,0.6C93.9,34,93.7,34.1,93.5,34.1z M100.3,36.5h-0.8c0.2,0.3,0.3,0.7,0.3,1.2  c0,0.3-0.1,0.6-0.2,0.9c-0.1,0.3-0.3,0.5-0.5,0.7c-0.2,0.2-0.4,0.3-0.7,0.4c-0.3,0.1-0.6,0.1-0.9,0.1c-0.1,0-0.1,0-0.2,0  s-0.1,0-0.2,0c-0.1,0-0.2,0.1-0.3,0.2c-0.1,0.1-0.2,0.2-0.2,0.4c0,0.1,0.1,0.2,0.2,0.3c0.1,0.1,0.3,0.1,0.5,0.1h0.8  c0.3,0,0.6,0,0.8,0.1c0.3,0.1,0.5,0.2,0.7,0.3c0.2,0.1,0.3,0.3,0.4,0.5s0.2,0.5,0.2,0.8c0,0.3-0.1,0.7-0.2,1  c-0.1,0.3-0.4,0.5-0.6,0.7c-0.3,0.2-0.6,0.4-1,0.5c-0.4,0.1-0.8,0.2-1.3,0.2c-0.7,0-1.2-0.1-1.6-0.4c-0.4-0.3-0.5-0.7-0.5-1.3  c0-0.2,0-0.4,0.1-0.6c0.1-0.2,0.2-0.3,0.3-0.5c0.1-0.1,0.2-0.2,0.4-0.3c0.1-0.1,0.2-0.1,0.3-0.2v0c-0.3-0.2-0.4-0.5-0.4-0.9  c0-0.2,0-0.3,0.1-0.4s0.1-0.2,0.2-0.3c0.1-0.1,0.2-0.1,0.3-0.2c0.1,0,0.1-0.1,0.2-0.1v0c-0.3-0.2-0.6-0.4-0.8-0.7  c-0.2-0.3-0.3-0.7-0.3-1.3c0-0.4,0.1-0.7,0.2-0.9c0.1-0.3,0.3-0.5,0.5-0.7s0.4-0.3,0.7-0.4c0.3-0.1,0.5-0.1,0.9-0.1s0.6,0.1,0.9,0.2  h2L100.3,36.5z M97.3,41.9c-0.2,0-0.4,0-0.5,0c-0.1,0-0.2,0.1-0.2,0.2c-0.1,0.1-0.1,0.1-0.2,0.2c-0.1,0.1-0.1,0.2-0.2,0.3  c0,0.1-0.1,0.3-0.1,0.4c0,0.7,0.4,1,1.1,1c0.7,0,1.1-0.1,1.4-0.4c0.3-0.3,0.5-0.5,0.5-0.9c0-0.3-0.1-0.5-0.3-0.7  c-0.2-0.1-0.5-0.2-0.8-0.2H97.3z M98.8,37.6c0-0.5-0.1-0.8-0.3-1c-0.2-0.2-0.5-0.3-0.8-0.3c-0.3,0-0.6,0.1-0.8,0.3  c-0.2,0.2-0.3,0.5-0.3,1c0,0.5,0.1,0.8,0.3,1c0.2,0.2,0.5,0.3,0.8,0.3c0.3,0,0.6-0.1,0.8-0.3C98.6,38.4,98.8,38.1,98.8,37.6z   M102.6,42.1h-1.1v-6.4h1.1V42.1z M102.1,34.1c-0.2,0-0.4-0.1-0.5-0.2c-0.1-0.1-0.2-0.3-0.2-0.6c0-0.2,0.1-0.4,0.2-0.5  s0.3-0.2,0.5-0.2c0.2,0,0.4,0.1,0.5,0.2s0.2,0.3,0.2,0.5c0,0.2-0.1,0.4-0.2,0.6C102.5,34,102.3,34.1,102.1,34.1z M107,36.5h-1.4v3.6  c0,0.5,0.1,0.8,0.2,0.9c0.1,0.2,0.3,0.2,0.6,0.2c0.2,0,0.3,0,0.4-0.1c0.1,0,0.2-0.1,0.3-0.1l0.1,0.9c0,0-0.2,0.1-0.3,0.2  c-0.2,0.1-0.4,0.1-0.7,0.1c-0.6,0-1-0.2-1.2-0.5c-0.3-0.3-0.4-0.8-0.4-1.5v-3.7h-0.8v-0.7l0.8-0.2l0.1-1.8h1v1.8h1.5L107,36.5z   M107.9,40.4c0-0.4,0.1-0.7,0.2-0.9s0.3-0.5,0.6-0.6c0.2-0.2,0.5-0.3,0.9-0.3c0.3-0.1,0.7-0.1,1-0.1h0.3v-0.6c0-0.5-0.1-0.9-0.3-1.1  c-0.2-0.2-0.5-0.3-0.8-0.3c-0.3,0-0.6,0.1-0.8,0.2c-0.2,0.1-0.4,0.3-0.5,0.4l-0.5-0.7c0.1-0.1,0.2-0.2,0.3-0.2  c0.1-0.1,0.2-0.2,0.4-0.3c0.2-0.1,0.3-0.1,0.5-0.2c0.2-0.1,0.4-0.1,0.7-0.1c0.7,0,1.2,0.2,1.5,0.5c0.3,0.4,0.5,1,0.5,1.8v2.9  c0,0.3,0,0.5,0,0.8c0,0.3,0,0.4,0.1,0.5h-1l0-0.7h0c0,0.1-0.1,0.2-0.2,0.3c-0.1,0.1-0.2,0.2-0.3,0.3c-0.1,0.1-0.2,0.2-0.4,0.2  c-0.2,0.1-0.3,0.1-0.5,0.1c-0.2,0-0.5,0-0.7-0.1c-0.2-0.1-0.4-0.2-0.5-0.4c-0.2-0.2-0.3-0.4-0.4-0.6  C107.9,40.9,107.9,40.7,107.9,40.4z M109.8,41.3c0.2,0,0.3,0,0.4-0.1s0.2-0.1,0.3-0.2c0.1-0.1,0.2-0.1,0.2-0.2  c0.1-0.1,0.1-0.1,0.2-0.2v-1.4l-0.3,0c-0.5,0-0.9,0.1-1.2,0.3c-0.3,0.2-0.4,0.4-0.4,0.8c0,0.3,0.1,0.6,0.2,0.7  C109.4,41.2,109.6,41.3,109.8,41.3z M114.7,40.6c0,0.3,0,0.5,0.1,0.6c0.1,0.1,0.2,0.2,0.4,0.2c0.1,0,0.2,0,0.2,0s0.1,0,0.2-0.1  l0.1,0.8c-0.1,0-0.2,0.1-0.3,0.1s-0.3,0.1-0.6,0.1c-0.4,0-0.7-0.1-0.9-0.3c-0.2-0.2-0.3-0.6-0.3-1.2v-8.1l1.1-0.1V40.6z M120.8,37.8  c0,0.3,0,0.5,0,0.7c0,0.2,0,0.4-0.1,0.5h-3.3c0,0.8,0.2,1.3,0.5,1.7c0.3,0.4,0.7,0.5,1.3,0.5c0.2,0,0.4,0,0.5-0.1  c0.2,0,0.3-0.1,0.4-0.2c0.1-0.1,0.2-0.1,0.3-0.2c0.1-0.1,0.1-0.1,0.2-0.1l0.4,0.8c0,0-0.1,0.1-0.2,0.2c-0.1,0.1-0.2,0.2-0.4,0.3  c-0.2,0.1-0.3,0.2-0.6,0.2c-0.2,0.1-0.5,0.1-0.8,0.1c-0.4,0-0.8-0.1-1.1-0.2c-0.3-0.1-0.6-0.3-0.8-0.6c-0.2-0.3-0.4-0.6-0.5-1.1  c-0.1-0.4-0.2-1-0.2-1.6c0-0.6,0.1-1.1,0.2-1.5c0.1-0.4,0.3-0.8,0.5-1c0.2-0.3,0.5-0.5,0.8-0.6c0.3-0.1,0.6-0.2,1-0.2  c0.6,0,1.1,0.2,1.4,0.6C120.6,36.4,120.8,37,120.8,37.8z M118.8,36.3c-0.4,0-0.7,0.2-0.9,0.5c-0.2,0.3-0.4,0.8-0.4,1.4h2.3  c0,0,0-0.1,0-0.2c0-0.1,0-0.2,0-0.3c0-0.4-0.1-0.8-0.3-1C119.4,36.5,119.1,36.3,118.8,36.3z M125,36.9c-0.1-0.1-0.2-0.2-0.4-0.3  c-0.2-0.1-0.4-0.2-0.7-0.2c-0.3,0-0.5,0.1-0.7,0.2c-0.2,0.1-0.2,0.3-0.2,0.5c0,0.2,0.1,0.4,0.2,0.6c0.1,0.2,0.4,0.3,0.6,0.5l0.4,0.2  c0.4,0.3,0.8,0.5,1,0.8c0.3,0.3,0.4,0.7,0.4,1.2c0,0.5-0.2,0.9-0.5,1.3c-0.4,0.3-0.9,0.5-1.5,0.5c-0.3,0-0.5,0-0.7-0.1  c-0.2-0.1-0.4-0.1-0.5-0.2c-0.1-0.1-0.3-0.1-0.4-0.2c-0.1-0.1-0.2-0.2-0.2-0.2l0.5-0.9c0.1,0.1,0.1,0.1,0.2,0.2  c0.1,0.1,0.2,0.1,0.3,0.2c0.1,0.1,0.2,0.1,0.4,0.2c0.1,0,0.3,0.1,0.5,0.1c0.3,0,0.6-0.1,0.7-0.2c0.2-0.1,0.3-0.3,0.3-0.5  c0-0.2,0-0.3-0.1-0.4c0-0.1-0.1-0.2-0.2-0.3c-0.1-0.1-0.2-0.2-0.3-0.3c-0.1-0.1-0.3-0.2-0.4-0.3l-0.4-0.3c-0.4-0.3-0.7-0.5-0.9-0.8  c-0.2-0.3-0.3-0.7-0.3-1.1c0-0.2,0-0.5,0.1-0.7c0.1-0.2,0.2-0.4,0.4-0.5c0.2-0.1,0.4-0.3,0.6-0.3c0.2-0.1,0.5-0.1,0.7-0.1  c0.3,0,0.5,0,0.6,0.1c0.2,0,0.3,0.1,0.5,0.2c0.1,0.1,0.2,0.2,0.3,0.2c0.1,0.1,0.2,0.1,0.2,0.2L125,36.9z M73.2,55.6h-1v-0.7h0  c0,0.1-0.1,0.1-0.2,0.2c-0.1,0.1-0.2,0.2-0.3,0.3c-0.1,0.1-0.3,0.2-0.5,0.2c-0.2,0.1-0.4,0.1-0.7,0.1c-0.3,0-0.5,0-0.8-0.1  c-0.2-0.1-0.4-0.2-0.6-0.4c-0.2-0.2-0.3-0.4-0.4-0.7c-0.1-0.3-0.1-0.7-0.1-1.1v-4.2h1.1v4.1c0,0.5,0.1,0.9,0.3,1.1  c0.2,0.2,0.4,0.3,0.8,0.3c0.3,0,0.6-0.1,0.8-0.2c0.2-0.2,0.4-0.3,0.5-0.5v-4.9h1.1V55.6z M78.4,55.6v-4.1c0-0.5-0.1-0.9-0.3-1.2  c-0.2-0.2-0.5-0.4-0.8-0.4c-0.3,0-0.6,0.1-0.8,0.2c-0.2,0.2-0.4,0.3-0.5,0.5v5h-1.1v-6.4h1v0.7h0c0-0.1,0.1-0.1,0.2-0.2  c0.1-0.1,0.2-0.2,0.3-0.3c0.1-0.1,0.3-0.2,0.5-0.2c0.2-0.1,0.4-0.1,0.7-0.1c0.3,0,0.5,0,0.8,0.1c0.2,0.1,0.4,0.2,0.6,0.4  s0.3,0.4,0.4,0.7c0.1,0.3,0.1,0.7,0.1,1.1v4.2H78.4z M80.8,52.5c0-0.7,0.1-1.2,0.3-1.6c0.2-0.4,0.4-0.8,0.7-1.1  c0.3-0.3,0.6-0.5,0.9-0.6c0.3-0.1,0.7-0.2,1-0.2c0.2,0,0.4,0,0.5,0c0.2,0,0.3,0.1,0.4,0.1v-3.1l1.1-0.1v9.6h-1v-0.7h0  c0,0.1-0.1,0.1-0.1,0.2c-0.1,0.1-0.2,0.2-0.3,0.3c-0.1,0.1-0.3,0.2-0.5,0.2c-0.2,0.1-0.4,0.1-0.7,0.1c-0.3,0-0.6-0.1-0.9-0.2  c-0.3-0.1-0.5-0.3-0.7-0.6c-0.2-0.3-0.4-0.6-0.5-1C80.8,53.5,80.8,53,80.8,52.5z M83.3,54.8c0.2,0,0.3,0,0.5-0.1  c0.1,0,0.3-0.1,0.3-0.2c0.1-0.1,0.2-0.1,0.2-0.2c0.1-0.1,0.1-0.1,0.2-0.2v-4c-0.1-0.1-0.2-0.1-0.3-0.2c-0.1,0-0.3-0.1-0.5-0.1  c-0.3,0-0.5,0-0.7,0.1c-0.2,0.1-0.4,0.2-0.6,0.4c-0.2,0.2-0.3,0.5-0.4,0.8c-0.1,0.3-0.1,0.7-0.1,1.2c0,0.4,0,0.8,0.1,1.1  c0.1,0.3,0.2,0.5,0.3,0.7c0.1,0.2,0.3,0.3,0.5,0.4C83,54.7,83.1,54.8,83.3,54.8z M96,46.3l-3,9.3H92l-2.9-9.3h1.3l1.8,6.1  c0.1,0.3,0.2,0.7,0.3,1c0.1,0.3,0.1,0.6,0.1,0.8h0c0-0.2,0.1-0.5,0.1-0.8c0.1-0.3,0.2-0.6,0.3-1l1.8-6.2H96z M100.4,51.3  c0,0.3,0,0.5,0,0.7c0,0.2,0,0.4-0.1,0.5h-3.3c0,0.8,0.2,1.3,0.5,1.7c0.3,0.4,0.7,0.5,1.3,0.5c0.2,0,0.4,0,0.5-0.1  c0.2,0,0.3-0.1,0.4-0.2c0.1-0.1,0.2-0.1,0.3-0.2c0.1-0.1,0.1-0.1,0.2-0.1l0.4,0.8c0,0-0.1,0.1-0.2,0.2c-0.1,0.1-0.2,0.2-0.4,0.3  c-0.2,0.1-0.3,0.2-0.6,0.2c-0.2,0.1-0.5,0.1-0.8,0.1c-0.4,0-0.8-0.1-1.1-0.2c-0.3-0.1-0.6-0.3-0.8-0.6c-0.2-0.3-0.4-0.6-0.5-1.1  c-0.1-0.4-0.2-1-0.2-1.6c0-0.6,0.1-1.1,0.2-1.5c0.1-0.4,0.3-0.8,0.5-1c0.2-0.3,0.5-0.5,0.8-0.6c0.3-0.1,0.6-0.2,1-0.2  c0.6,0,1.1,0.2,1.4,0.6C100.3,49.9,100.4,50.5,100.4,51.3z M98.4,49.9c-0.4,0-0.7,0.2-0.9,0.5c-0.2,0.3-0.4,0.8-0.4,1.4h2.3  c0,0,0-0.1,0-0.2c0-0.1,0-0.2,0-0.3c0-0.4-0.1-0.8-0.3-1C99,50,98.7,49.9,98.4,49.9z M104.7,50.1c0,0-0.1,0-0.2-0.1s-0.2,0-0.4,0  c-0.3,0-0.6,0.1-0.8,0.3c-0.2,0.2-0.3,0.4-0.4,0.6v4.7h-1.1v-6.4h1V50h0c0-0.1,0.1-0.2,0.2-0.4c0.1-0.1,0.2-0.2,0.3-0.3  s0.2-0.2,0.4-0.2c0.1-0.1,0.3-0.1,0.5-0.1c0.2,0,0.3,0,0.4,0s0.2,0,0.2,0.1L104.7,50.1z M108.2,52.1l2.2,3.5h-1.3l-1.8-3h-0.4v3  h-1.1v-9.5l1.1-0.1v5.7h0.5l1.7-2.5h1.3L108.2,52.1z M115.3,51.3c0,0.3,0,0.5,0,0.7c0,0.2,0,0.4-0.1,0.5h-3.3c0,0.8,0.2,1.3,0.5,1.7  c0.3,0.4,0.7,0.5,1.3,0.5c0.2,0,0.4,0,0.5-0.1c0.2,0,0.3-0.1,0.4-0.2c0.1-0.1,0.2-0.1,0.3-0.2c0.1-0.1,0.1-0.1,0.2-0.1l0.4,0.8  c0,0-0.1,0.1-0.2,0.2c-0.1,0.1-0.2,0.2-0.4,0.3c-0.2,0.1-0.3,0.2-0.6,0.2c-0.2,0.1-0.5,0.1-0.8,0.1c-0.4,0-0.8-0.1-1.1-0.2  c-0.3-0.1-0.6-0.3-0.8-0.6c-0.2-0.3-0.4-0.6-0.5-1.1c-0.1-0.4-0.2-1-0.2-1.6c0-0.6,0.1-1.1,0.2-1.5c0.1-0.4,0.3-0.8,0.5-1  c0.2-0.3,0.5-0.5,0.8-0.6c0.3-0.1,0.6-0.2,1-0.2c0.6,0,1.1,0.2,1.4,0.6C115.1,49.9,115.3,50.5,115.3,51.3z M113.2,49.9  c-0.4,0-0.7,0.2-0.9,0.5c-0.2,0.3-0.4,0.8-0.4,1.4h2.3c0,0,0-0.1,0-0.2c0-0.1,0-0.2,0-0.3c0-0.4-0.1-0.8-0.3-1  C113.8,50,113.6,49.9,113.2,49.9z M120.2,55.6v-4.1c0-0.5-0.1-0.9-0.3-1.2c-0.2-0.2-0.5-0.4-0.8-0.4c-0.3,0-0.6,0.1-0.8,0.2  c-0.2,0.2-0.4,0.3-0.5,0.5v5h-1.1v-9.5l1.1-0.1v3.8h0c0-0.1,0.1-0.1,0.2-0.2c0.1-0.1,0.2-0.2,0.3-0.3c0.1-0.1,0.3-0.2,0.5-0.2  c0.2-0.1,0.4-0.1,0.7-0.1c0.6,0,1,0.2,1.3,0.5c0.3,0.4,0.5,1,0.5,1.8v4.2H120.2z M125.8,50.1c0,0-0.1,0-0.2-0.1s-0.2,0-0.4,0  c-0.3,0-0.6,0.1-0.8,0.3c-0.2,0.2-0.3,0.4-0.4,0.6v4.7h-1.1v-6.4h1V50h0c0-0.1,0.1-0.2,0.2-0.4c0.1-0.1,0.2-0.2,0.3-0.3  s0.2-0.2,0.4-0.2c0.1-0.1,0.3-0.1,0.5-0.1c0.2,0,0.3,0,0.4,0c0.1,0,0.2,0,0.2,0.1L125.8,50.1z M39.3,27.8c0-0.3,0-0.5,0-0.8  c0-0.1,0-0.3,0-0.5c2.2,0,4.2-1.6,4.2-3.5c0-0.9-0.6-1.7-1-2.1c0.1,0,0.2,0,0.2-0.1c0.3,0.3,1.3,1.3,1.3,2.6  C44.1,25.7,41.9,27.7,39.3,27.8 M37,20c0-0.2-0.1-0.5-0.3-0.7c0-0.2,0.1-0.4,0.5-0.3c-0.2,0.2,0,0.6,0,0.6s0.4-0.2,0.3-0.5  C38.1,19.3,37.7,20.1,37,20 M36.5,21.2c-0.1-0.3-0.3-0.7-0.5-0.9c-0.2-0.2-0.5-0.5-1-0.5c-0.2,0-0.5,0.1-0.8,0.2  c-0.1-0.1-0.2-0.5-0.2-0.7c0-0.2,0.3-0.3,0.8-0.3c1.2,0,1.9,0.5,1.9,1.4C36.8,20.6,36.6,20.9,36.5,21.2 M39.5,36.1  c0.1,0,0.2,0,0.3,0.1c0.3,0.9,1.6,2.6,1.7,2.7l0,0l0,0c0.3-0.1,1.1-0.2,1.8-0.2h0c0.1,0,0.2,0,0.2,0.1c0,0,0.1,0.1,0.1,0.2  c0,0.2-0.1,0.5-0.2,0.6c-0.2-0.3-0.6-0.4-1.2-0.4c-0.2,0-0.4,0.1-0.5,0.1l0,0l-0.1,0l0.4,0.4c0.5,0.5,1,1,1,1.3  c0,0.2-0.2,0.4-0.4,0.5c0-0.6-0.6-1.3-1.2-1.8l0,0l0,0.2c0,0.1,0,0.3,0,0.6c0,1.1-0.1,1.3-0.5,1.3c-0.1,0-0.1,0-0.2,0  c0.2-0.3,0.3-0.6,0.3-1.2l0-0.3l0-0.2c0-0.3,0-0.4,0-0.6l0-0.1l-0.1,0c-0.2,0-0.5-0.1-0.8-0.1c-0.5,0-0.9,0-1.2,0.3  c-0.2-0.1-0.4-0.4-0.4-0.5c0-0.2,0.1-0.2,0.3-0.2c0.1,0,0.2,0,0.3,0c0.2,0,0.6,0.1,1.3,0.1h0l0,0c-0.2-0.5-0.7-1.3-1.5-2.3  C39.2,36.3,39.3,36.1,39.5,36.1 M32.5,38.8L32.5,38.8L32.5,38.8c0.8,0,1.1,0,1.3,0c0.1,0,0.2,0,0.3,0c0.2,0,0.3,0,0.3,0.2  c0,0.2-0.2,0.4-0.4,0.5c-0.3-0.3-0.6-0.3-1.2-0.3c-0.3,0-0.6,0-0.8,0.1l0,0l0,0l0,0.1c0,0.1,0,0.3,0,0.6l0,0.2l0,0.3  c0,0.6,0.1,1,0.3,1.2c-0.1,0-0.1,0-0.2,0c-0.4,0-0.5-0.2-0.5-1.3c0-0.2,0-0.4,0-0.6l0-0.2l0,0c-0.6,0.4-1.1,1.2-1.2,1.8  c-0.2-0.1-0.4-0.4-0.4-0.5c0-0.3,0.5-0.8,1-1.3l0.3-0.3l0,0l-0.1,0c-0.1,0-0.3-0.1-0.5-0.1c-0.6,0-1,0.1-1.2,0.4  c-0.1-0.1-0.2-0.4-0.2-0.6c0-0.1,0-0.2,0.1-0.2c0.1-0.1,0.1-0.1,0.2-0.1h0c0.7,0,1.5,0.1,1.8,0.2l0,0l0,0c0.1-0.1,1.3-1.8,1.7-2.7  c0.1,0,0.1-0.1,0.3-0.1c0.3,0,0.3,0.2,0.4,0.4C33.2,37.6,32.7,38.3,32.5,38.8 M29.1,23.4c0-1.3,0.9-2.3,1.3-2.6c0.1,0,0.2,0,0.2,0.1  c-0.3,0.4-1,1.1-1,2.1c0,1.9,2,3.5,4.3,3.5c0,0.2,0,0.3,0,0.5c0,0.3,0,0.5,0,0.8C31.3,27.8,29.1,25.7,29.1,23.4 M46.3,27.4  c1.2,1.8,2.1,1.8,3.4,1.8c-1.1-0.9-1.9-2-2.2-2.5l-2.1-3.4c-0.2-1-0.7-2-1.6-2.7c0.3-0.1,0.5-0.2,0.6-0.3c-1.4,0-2.7-0.7-3.5-0.7  c-0.5,0-0.8,0.3-0.8,0.7c0,0.4,0.5,0.9,1.3,0.9c0.2,0,0.4,0,0.7-0.1c0.4,0.6,0.8,1.2,0.8,1.9c0,1.5-1.8,2.6-3.5,2.6  c-0.1,0-0.2,0-0.3,0c-0.2-0.4-0.7-1-0.7-1.7c0-1.2,0.8-2.1,0.8-3.3c0-0.7-0.4-1.2-0.5-1.4c0.2-0.2,0.5-0.5,0.5-0.6  c-0.1,0.1-0.3,0.1-0.5,0.1c-0.9,0-1.6-0.2-2.2-0.2c-0.4,0-0.5,0.1-0.5,0.2c0,0,0,0.1,0,0.1c-0.1-0.1-0.3-0.1-0.4-0.1  c-0.2,0-0.4-0.1-0.6-0.1c-0.8,0-1.1,0.3-1.1,0.6c0,0.3,0.2,0.7,0.4,1.1c0.3-0.2,0.7-0.3,0.9-0.3c0.4,0,0.8,0.4,1,0.9  c-0.3,0-0.4,0-0.6,0c-0.8,0-1.4-0.3-1.5-0.3c0,0,0,0,0,0c0,0.1,0.2,0.4,0.7,0.6c0.6,0.2,1.5,0.3,1.6,0.3c0,0-0.1,0.3-0.3,0.4  c0,0-0.1,0-0.1,0c-0.6-0.1-0.8-0.2-1.6-0.5c0,0,0,0,0,0c0,0.3,0.8,1,1.5,1.3c-0.6,0.8-1.4,1.6-1.7,2.7c-0.1,0-0.2,0-0.3,0  c-1.8,0-3.5-1.2-3.5-2.6c0-0.8,0.4-1.3,0.8-1.9c0.3,0,0.5,0.1,0.7,0.1c0.8,0,1.2-0.4,1.3-0.9c0-0.4-0.3-0.7-0.8-0.7  c-0.8,0-2.1,0.7-3.5,0.7c0.1,0.1,0.4,0.2,0.6,0.3c-0.8,0.7-1.3,1.7-1.5,2.7l-2.1,3.4c-0.4,0.6-1.1,1.7-2.2,2.5c1.4,0,2.3,0,3.4-1.8  l1.1-1.7c0.1,0.2,0.2,0.4,0.3,0.7l-2.1,3.4c-0.4,0.6-1.1,1.7-2.2,2.5c1.4,0,2.3,0,3.4-1.8l1.8-3c0.1,0.1,0.3,0.3,0.4,0.4l-2.6,4.2  c-0.4,0.6-1.1,1.7-2.2,2.5c1.4,0,2.3,0,3.4-1.8l2.5-4.1c0.2,0.1,0.3,0.2,0.5,0.3l-3.1,5c-0.4,0.6-1.1,1.7-2.2,2.5  c1.4,0,2.3,0,3.4-1.8l3.2-5.1c0.2,0.1,0.4,0.1,0.6,0.2l-3.6,5.8c-0.4,0.6-1.1,1.7-2.2,2.5c1.4,0,2.3,0,3.4-1.8l3.9-6.2  c0,0,0.1,0,0.1,0c0.1,0.3,0.2,0.6,0.2,1c0,1.9-1.3,3.6-2.8,5c0.1,0,0.3,0.1,0.4,0.1c0.3,0,0.5,0,0.7,0c-0.4,0.8-1.1,1.8-1.5,2.4  c-0.5-0.1-1.2-0.2-1.7-0.2c-0.5,0-0.6,0.3-0.6,0.6c0,0.5,0.2,0.8,0.5,1c0.1-0.2,0.3-0.5,1.2-0.5c0,0,0,0,0.1,0  c-0.3,0.3-1.1,1-1.1,1.5c0,0.4,0.4,0.9,0.9,0.9c0-0.1,0-0.2,0-0.3c0-0.4,0.4-1,0.7-1.3c0,0.1,0,0.1,0,0.2c0,1,0.1,1.5,0.8,1.5  c0.3,0,0.6-0.2,0.6-0.2c-0.4-0.4-0.5-0.7-0.5-1.3c0-0.2,0-0.3,0-0.5c0-0.1,0-0.3,0-0.4c0.2,0,0.3,0,0.5,0c0,0,0.9-0.1,1.2,0.4  c0.3-0.2,0.6-0.6,0.6-0.9c0-0.2-0.1-0.5-0.6-0.5c-0.2,0-0.8,0.1-1.3,0.1c0.1-0.3,0.7-1.1,1.2-1.8c0.1,0.2,0.2,0.5,0.5,0.7  c0-0.4,0.3-1.7,0.9-2.4c0.1,0.5,0.2,1,0.2,2.1c0,2.6-0.6,4.5-2,4.9c0.2,0.3,0.5,0.6,0.9,0.6c0.5,0,0.8-0.6,1-1.1  c0.1,0.4,0.5,1.3,0.9,1.3s0.8-0.9,0.9-1.3c0.3,0.5,0.5,1.1,1,1.1c0.4,0,0.7-0.3,0.9-0.6c-1.3-0.4-2-2.3-2-4.9c0-1.1,0.1-1.6,0.2-2.1  c0.6,0.7,0.9,2,0.9,2.4c0.3-0.2,0.4-0.5,0.5-0.7c0.5,0.6,1.1,1.5,1.2,1.8c-0.5,0-1.1-0.1-1.3-0.1c-0.5,0-0.6,0.3-0.6,0.5  c0,0.4,0.4,0.7,0.6,0.9c0.2-0.5,1.2-0.4,1.2-0.4c0.2,0,0.3,0,0.5,0c0,0.1,0,0.3,0,0.4c0,0.2,0,0.4,0,0.5c0,0.6,0,0.9-0.5,1.3  c0.1,0.1,0.3,0.2,0.6,0.2c0.7,0,0.8-0.5,0.8-1.5c0-0.1,0-0.1,0-0.2c0.3,0.4,0.7,0.9,0.7,1.3c0,0.1,0,0.2,0,0.3  c0.5,0,0.9-0.5,0.9-0.9c0-0.5-0.8-1.2-1.1-1.5c0,0,0.1,0,0.1,0c0.9,0,1.1,0.3,1.2,0.5c0.2-0.2,0.5-0.6,0.5-1c0-0.3-0.1-0.6-0.6-0.6  c-0.5,0-1.2,0.1-1.7,0.2c-0.4-0.5-1.1-1.6-1.5-2.4c0.1,0,0.3,0,0.7,0c0.2,0,0.3,0,0.4-0.1c-1.5-1.3-2.8-3-2.8-5c0-0.3,0.1-0.6,0.2-1  c0,0,0.1,0,0.1,0l3.9,6.2c1.2,1.8,2.1,1.8,3.4,1.8c-1.1-0.9-1.9-2-2.2-2.5l-3.6-5.8c0.2-0.1,0.4-0.1,0.6-0.2l3.2,5.1  c1.2,1.8,2.1,1.8,3.4,1.8c-1.1-0.9-1.9-2-2.2-2.5l-3.1-5c0.2-0.1,0.3-0.2,0.5-0.3l2.5,4.1c1.2,1.8,2.1,1.8,3.4,1.8  c-1.1-0.9-1.9-2-2.2-2.5L43.6,28c0.2-0.1,0.3-0.3,0.4-0.4l1.9,3c1.2,1.8,2.1,1.8,3.4,1.8c-1.1-0.9-1.9-2-2.2-2.5l-2.1-3.4  c0.1-0.2,0.2-0.4,0.3-0.7L46.3,27.4z M60.5,42.1h-3.9V19.5h3.9V42.1z"/>
</svg>