<svg xmlns="http://www.w3.org/2000/svg" width="41" height="40" viewBox="0 0 41 40">
    <g fill="none" fill-rule="evenodd" stroke="#000" stroke-linecap="round" stroke-linejoin="round" transform="translate(8 8)">
        <rect width="13" height="15" x="2.5" y="3.5" rx="2"/>
        <path d="M4.5 18.5v1a1 1 0 0 0 2 0v-1M11.5 18.5v1a1 1 0 0 0 2 0v-1M2.5 11.5h-1a1 1 0 0 1-1-1v-2a1 1 0 0 1 1-1h1M15.5 11.5h1a1 1 0 0 0 1-1v-2a1 1 0 0 0-1-1h-1M2.5 13.5h13M4.5 15.5h1M12.5 15.5h1M5.5 5.75a.25.25 0 0 1 .25.25M5.25 6a.25.25 0 0 1 .25-.25M5.5 6.25A.25.25 0 0 1 5.25 6M5.75 6a.25.25 0 0 1-.25.25M8 6h1"/>
        <circle cx="21.5" cy="11.5" r="2"/>
        <path d="M21.5 13.5v7"/>
    </g>
</svg>
