<svg xmlns="http://www.w3.org/2000/svg" width="41" height="40" viewBox="0 0 41 40">
    <g fill="none" fill-rule="evenodd" stroke="#000" stroke-linecap="round" stroke-linejoin="round" stroke-width=".9" transform="translate(13 9)">
        <circle cx="6.232" cy="2.7" r="2.25"/>
        <path d="M12.226 9.72l-.99-.331a4.955 4.955 0 0 1-1.408-.737l-.915-.687a5.13 5.13 0 0 0-5.367-.485 5.686 5.686 0 0 0-3.163 5.012c-.03.65.392 1.234 1.017 1.412a1.35 1.35 0 0 0 1.68-1.244A3.126 3.126 0 0 1 4.7 9.918l.18-.09v1.597c0 1.276-.14 2.55-.417 3.796a9.416 9.416 0 0 1-1.99 3.733 1.35 1.35 0 0 0 2.113 1.682 13.815 13.815 0 0 0 2.42-4.665 11.43 11.43 0 0 1 2.445 4.248 1.35 1.35 0 1 0 2.562-.853 13.81 13.81 0 0 0-4.111-6.268.891.891 0 0 1-.32-.678v-2.077l.622.466a7.65 7.65 0 0 0 2.176 1.14l1.059.353a1.35 1.35 0 0 0 1.763-1.08c.08-.67-.33-1.303-.976-1.502z"/>
    </g>
</svg>
