<svg id="Ebene_1" data-name="Ebene 1" xmlns="http://www.w3.org/2000/svg" xmlns:xlink="http://www.w3.org/1999/xlink" viewBox="0 0 137 112"><defs><style>.cls-1,.cls-5{fill:#fff;}.cls-1,.cls-10,.cls-6,.cls-8,.cls-9{fill-rule:evenodd;}.cls-2,.cls-6{fill:#6496b2;}.cls-3,.cls-9{fill:#364e66;}.cls-10,.cls-4{fill:#6e9bd2;}.cls-7{mask:url(#mask);}.cls-8{fill:url(#Unbenannter_Verlauf_12);}.cls-11,.cls-12{fill:none;stroke:#6e9bd2;stroke-linecap:round;}.cls-11{stroke-width:3px;}.cls-12{stroke-width:3px;}</style><mask id="mask" x="77.15" y="15.48" width="47.35" height="79.29" maskUnits="userSpaceOnUse"><g id="prefix_c" data-name="prefix  c"><path id="prefix_a" data-name="prefix  a" class="cls-1" d="M119.53,15.75,77.42,30.25l-.27,64.52,42.1-12.29a8,8,0,0,0,5-7.07l.23-56c0-2.95-2.22-4.58-5-3.63Z"/></g></mask><linearGradient id="Unbenannter_Verlauf_12" x1="-223.62" y1="471.69" x2="-223.75" y2="471.9" gradientTransform="matrix(47.35, 0, 0, -79.29, 10691.08, 37462.18)" gradientUnits="userSpaceOnUse"><stop offset="0" stop-color="#6e9bd2"/><stop offset="1" stop-color="#44627f"/></linearGradient></defs><path class="cls-2" d="M2,84.93,24.2,65.51l.08-20a7.65,7.65,0,0,1,1.26-4l.1-.14.06-.1.07-.1a6.56,6.56,0,0,1,3.16-2.63l.34-.12.48-.17L4,13.83a2.1,2.1,0,0,1,.64-3.56c.16,0,.33-.08.5-.12A6,6,0,0,0,0,16.29L.09,80.84A6,6,0,0,0,5.82,87h.27A5.54,5.54,0,0,1,2,84.93Z"/><path class="cls-3" d="M102.74,86.78A5.54,5.54,0,0,0,107,84.69l-5.46-4.75L81.62,86.83Z"/><path class="cls-3" d="M24.11,87v-.79l.09-20.66L1.69,85.07A5.19,5.19,0,0,0,6.09,87"/><path class="cls-4" d="M104.34,10.05a5.33,5.33,0,0,0-1.65-.26L6.25,10a5.56,5.56,0,0,0-1.15.14c-.17,0-.34.07-.5.12A2.1,2.1,0,0,0,4,13.83L29.75,38.32,54,30,71.14,24,105.7,12.1A2,2,0,0,0,104.34,10.05Z"/><path class="cls-5" d="M24.05,101.38a3.91,3.91,0,0,0,1.33,3.17l.06.06,4.19,3.63-.06-3.44,52.05-18L24.11,87Z"/><path class="cls-6" d="M35.24,44.59,77,30l-.27,65.31L35,111.73c-2.74,1-4.95-.68-4.93-3.66l.23-56.36A8,8,0,0,1,35.24,44.59Z"/><g class="cls-7"><path class="cls-8" d="M119.53,15.75,77.42,30.25l-.27,64.52,42.1-12.29a8,8,0,0,0,5-7.07l.23-56c0-2.95-2.22-4.58-5-3.63Z"/></g><path class="cls-9" d="M123,79.35a7.65,7.65,0,0,1-3.72,3.13L35.73,111.73a3.6,3.6,0,0,1-3.7-.53L77.69,55,123,79.35Z"/><path class="cls-10" d="M31.42,47.93a7.73,7.73,0,0,1,3.68-3.25l83.57-29.25a4.31,4.31,0,0,1,4.09.5L76.71,72.16Z"/><path class="cls-11" d="M119.54,6.46V2m8,5.73,3-3.26"/><path class="cls-12" d="M131.61,14.65h3.87"/></svg>