<svg xmlns="http://www.w3.org/2000/svg" xmlns:xlink="http://www.w3.org/1999/xlink" viewBox="0 0 217.41 101.49"><defs><style>.a{fill:#fff;}.b{fill:#45657f;}.c{mask:url(#a);}.d{fill:#d9a78c;}.e{fill:#6e9bd2;}.f{fill:#eac0a7;}.g{fill:#f2d7bc;}.h{fill:#553828;}.i{fill:#6d6e71;}.j{mask:url(#b);}.k{fill:#603913;}.l{fill:#eac8ad;}.m{fill:#fff200;}</style><mask id="a" x="115.6" y="0" width="101.81" height="101.4" maskUnits="userSpaceOnUse"><g transform="translate(-0.29 -0.13)"><ellipse class="a" cx="166.8" cy="50.84" rx="50.91" ry="50.7"/></g></mask><mask id="b" x="0" y="0" width="101.81" height="101.49" maskUnits="userSpaceOnUse"><g transform="translate(-0.29 -0.13)"><ellipse class="a" cx="51.2" cy="50.84" rx="50.91" ry="50.7"/></g></mask></defs><ellipse class="b" cx="166.51" cy="50.7" rx="50.91" ry="50.7"/><path class="b" d="M217.71,50.84A50.81,50.81,0,0,0,166.8.13V101.54A50.8,50.8,0,0,0,217.71,50.84Z" transform="translate(-0.29 -0.13)"/><g class="c"><path class="d" d="M159.53,63.62h14.91V79.9H159.53Z" transform="translate(-0.29 -0.13)"/><path class="e" d="M174.35,72.29h2.54c4.74,1.21,9.92,2.07,13.37,6,2.15,2.48,5.88,23.2,5.88,23.2H166.89V78.08c4.12,0,7.46-2.59,7.46-5.79Z" transform="translate(-0.29 -0.13)"/><path class="e" d="M159.44,72.29H156.9c-4.73,1.21-9.92,2.07-13.37,6-2.15,2.48-5.88,23.2-5.88,23.2h29.24V78.08C162.78,78.08,159.44,75.49,159.44,72.29Z" transform="translate(-0.29 -0.13)"/><path class="f" d="M167,17c7.24,0,18.68,4.09,18.68,23.3,0,11.09-3.63,18.35-5.21,20.36-1.45,1.85-9.63,5.79-13.47,5.79Z" transform="translate(-0.29 -0.13)"/><path class="f" d="M189.27,44.92c.32-3.07-1.15-5.79-3.27-6.09s-4.12,2-4.44,5,1.15,5.79,3.28,6.09S189,48,189.27,44.92Z" transform="translate(-0.29 -0.13)"/><path class="g" d="M167,17c-7.24,0-18.69,4.09-18.69,23.3,0,11.09,3.63,18.35,5.21,20.36,1.46,1.85,9.64,5.79,13.48,5.79V17Z" transform="translate(-0.29 -0.13)"/><path class="g" d="M144.7,44.92c-.32-3.07,1.15-5.79,3.28-6.09s4.12,2,4.43,5-1.14,5.79-3.28,6.09S145,48,144.7,44.92Z" transform="translate(-0.29 -0.13)"/><path class="a" d="M167,59.24c3.37,0,6.11-1.11,6.11-2.48H160.88c0,1.37,2.73,2.48,6.11,2.48Z" transform="translate(-0.29 -0.13)"/><path class="h" d="M182.05,41.86c.78-2,2.32-3.25,3.95-3h0A12.07,12.07,0,0,0,186,31c-5.39-15.29.73-18,.73-18a17.13,17.13,0,0,0-10.58,3.54c3.18-4.92,4.62-6.19,4.62-6.19s-6.7-1.43-13.87,5.87a20.19,20.19,0,0,1,3.51-6s-15,.12-20.41,10.92A30.45,30.45,0,0,0,147.41,39a3.68,3.68,0,0,1,.57-.15,3,3,0,0,1,2,.5V34.62c2.87-1.27,5.9-2.86,5.74-9.22h21s-.48,7.15,5.27,8.9Z" transform="translate(-0.29 -0.13)"/><path class="i" d="M166.9,80c5.52,0,10-3.43,10-7.67h-2.56c0,3.19-3.33,5.78-7.43,5.79s-7.44-2.6-7.44-5.79H156.9c0,4.24,4.48,7.67,10,7.67Z" transform="translate(-0.29 -0.13)"/></g><ellipse class="e" cx="50.91" cy="50.7" rx="50.91" ry="50.7"/><path class="e" d="M102.11,50.84A50.8,50.8,0,0,0,51.2.14v101.4A50.81,50.81,0,0,0,102.11,50.84Z" transform="translate(-0.29 -0.13)"/><g class="j"><path class="k" d="M51.29,88.13H33.08A19.68,19.68,0,0,1,28.88,68c4.2-12,7.85-16.74,8.13-29.58H51.29V88.13Z" transform="translate(-0.29 -0.13)"/><path class="k" d="M50.82,88.13H69A19.68,19.68,0,0,0,73.24,68C69,56,65.39,51.29,65.11,38.45H50.82Z" transform="translate(-0.29 -0.13)"/><ellipse class="k" cx="51" cy="32.88" rx="22.28" ry="22.19"/><path class="l" d="M58.75,80.54,51.2,101.63,43.84,80.54V64.26H58.75Z" transform="translate(-0.29 -0.13)"/><path class="g" d="M51.3,19.13c-7.24,0-18.69,4.1-18.69,23.31,0,11.08,4.34,16.31,5.92,18.32,1.46,1.85,8.93,7.83,12.77,7.83Z" transform="translate(-0.29 -0.13)"/><path class="g" d="M29,47c-.32-3.07,1.15-5.8,3.28-6.09s4.11,2,4.43,5S35.57,51.75,33.44,52s-4.11-2-4.43-5Z" transform="translate(-0.29 -0.13)"/><path class="f" d="M51.24,19.13c7.23,0,18.68,4.1,18.68,23.31,0,11.08-4.34,16.31-5.92,18.32-1.46,1.85-8.93,7.83-12.77,7.83V19.13Z" transform="translate(-0.29 -0.13)"/><path class="f" d="M73.58,47c.32-3.07-1.15-5.8-3.28-6.09s-4.11,2-4.43,5S67,51.75,69.15,52,73.26,50.08,73.58,47Z" transform="translate(-0.29 -0.13)"/><path class="k" d="M51.05,14.48c-.35,0-.71-.07-1.1-.08,0,0-12.23.92-15.63,16.78-1.63,1.22-4.62,6-.68,11.25.55-4.48,2.19-7.72,5-9,5-2.19,7.13-.16,13-4.63a11.59,11.59,0,0,0,3.89-10.8A5.39,5.39,0,0,0,51.05,14.48Z" transform="translate(-0.29 -0.13)"/><path class="k" d="M54.78,18.89S50.37,35.26,69.61,42.12C74.22,27.13,65.8,17.35,54.78,18.89Z" transform="translate(-0.29 -0.13)"/><path class="m" d="M31.66,51.37l1.2-1.19,1.2,1.19-1.2,1.2Z" transform="translate(-0.29 -0.13)"/><path class="m" d="M68.78,51.37,70,50.18l1.2,1.19L70,52.57Z" transform="translate(-0.29 -0.13)"/><path class="b" d="M51.2,101.63V81.35S45.64,80,44.41,75.49a15.69,15.69,0,0,1-.57-3.89S31.68,75.69,29,79.92c-2.26,6.69-2.88,21.71-2.88,21.71Zm0,0V81.35S56.76,80,58,75.49a15.69,15.69,0,0,0,.57-3.89s12.16,4.09,14.87,8.32c2.26,6.69,2.88,21.71,2.88,21.71Z" transform="translate(-0.29 -0.13)"/><path class="a" d="M51.29,61.82c2.83,0,5.11-1.72,5.11-3.85H46.18c0,2.13,2.29,3.85,5.12,3.85Z" transform="translate(-0.29 -0.13)"/></g></svg>