<svg xmlns="http://www.w3.org/2000/svg" width="20" height="20" viewBox="0 0 20 20">
    <g fill="none" fill-rule="evenodd">
        <g fill="#545454">
            <g>
                <path d="M13.033 3c1.799.14 3.151 1.7 3.034 3.5.055 1.463-.816 2.804-2.176 3.348-.094.032-.158.121-.158.221v5.298c0 .386-.313.7-.7.7-.386 0-.7-.314-.7-.7v-5.298c0-.1-.063-.189-.157-.221C10.816 9.304 9.946 7.963 10 6.5c-.117-1.8 1.235-3.36 3.033-3.5zM8.367 3c.386 0 .7.313.7.7v2.333c-.002 1.34-.883 2.52-2.168 2.903-.098.03-.166.12-.166.224v6.207c0 .386-.313.7-.7.7-.386 0-.7-.314-.7-.7V9.16c.002-.104-.066-.197-.166-.228C3.884 8.55 3.003 7.372 3 6.033V3.7c0-.387.313-.7.7-.7.387 0 .7.313.7.7v2.333c0 .463.198.904.545 1.21.068.062.166.078.25.04.084-.038.138-.122.138-.214V3.7c0-.387.314-.7.7-.7.387 0 .7.313.7.7v3.37c0 .092.054.177.138.216.084.037.182.022.25-.04.348-.307.546-.749.546-1.213V3.7c0-.387.313-.7.7-.7z" transform="translate(-26 -2426) translate(26 2426)"/>
            </g>
        </g>
    </g>
</svg>
