<svg xmlns="http://www.w3.org/2000/svg" width="20" height="20" viewBox="0 0 20 20">
    <g fill="none" fill-rule="evenodd">
        <g fill="#545454">
            <g>
                <path d="M16.293 5.437c-.164-.033-.333.018-.451.137l-2.046 2.044c-.39.39-1.024.39-1.414-.001-.39-.391-.39-1.025.001-1.415l2.049-2.047c.118-.118.17-.287.137-.451-.032-.164-.145-.3-.3-.365-1.6-.667-3.442-.333-4.705.855C8.3 5.38 7.852 7.199 8.42 8.838c.03.09.007.19-.06.258l-4.832 4.827c-.456.456-.633 1.12-.466 1.742.166.622.652 1.108 1.275 1.275.622.166 1.286-.012 1.741-.467l4.829-4.828c.067-.068.167-.091.257-.06 1.637.566 3.455.118 4.642-1.144 1.187-1.262 1.522-3.104.856-4.703-.068-.155-.205-.268-.369-.3z" transform="translate(-198 -2453) translate(198 2453)"/>
            </g>
        </g>
    </g>
</svg>
