<svg xmlns="http://www.w3.org/2000/svg" width="20" height="20" viewBox="0 0 20 20">
    <g fill="none" fill-rule="evenodd">
        <g fill="#545454">
            <g>
                <path d="M6.25 13.5c.69 0 1.25.56 1.25 1.25S6.94 16 6.25 16 5 15.44 5 14.75s.56-1.25 1.25-1.25zm6 0c.69 0 1.25.56 1.25 1.25S12.94 16 12.25 16 11 15.44 11 14.75s.56-1.25 1.25-1.25zm4-10.5c.414 0 .75.336.75.75s-.336.75-.75.75H14.9c-.129 0-.237.096-.25.223l-.777 7.255c-.122.867-.86 1.514-1.735 1.522H6.082c-.754 0-1.424-.483-1.66-1.2l-1.333-4c-.177-.533-.087-1.12.242-1.575C3.66 6.269 4.187 6 4.749 6h8.03c.128 0 .236-.096.25-.223l.177-1.66c.068-.636.604-1.118 1.243-1.117z" transform="translate(-198 -2423) translate(198 2423)"/>
            </g>
        </g>
    </g>
</svg>
