<svg xmlns="http://www.w3.org/2000/svg" width="19" height="17" viewBox="0 0 19 17">
    <g fill="none" fill-opacity=".3" fill-rule="evenodd" stroke-opacity=".1">
        <g fill="#9C0202" stroke="#9C0202" stroke-width="2">
            <g>
                <g>
                    <path d="M8.691 27.45c1.354-.417 2.58-.717 3.683-.366.893.283 1.763.955 2.52 2.469.22.44.405 2.154.095 3.701-.231 1.16-.744 2.139-1.452 2.59-.71.452-1.528.79-2.279 1.094-.641.26-1.241.46-1.55.77-.211.21-.425.47-.651.744C8.034 39.688 6.779 41 5 41c-1.988 0-3.456-.557-4.45-1.55C-.443 38.456-1 36.988-1 35c0-1.933.784-3.683 2.05-4.95C2.317 28.784 4.067 28 6 28c.957 0 1.853-.291 2.691-.55z" transform="translate(-916 -5931) translate(341 5892) translate(577 14)"/>
                </g>
            </g>
        </g>
    </g>
</svg>
