<svg xmlns="http://www.w3.org/2000/svg" width="30" height="30" viewBox="0 0 30 30">
    <g fill="none" fill-rule="evenodd">
        <g fill="#246EF0" fill-rule="nonzero">
            <g>
                <g>
                    <g>
                        <g>
                            <path d="M9.188 0C4.12 0 0 3.73 0 8.313c0 5.03 6.388 10.749 8.348 12.383.486.405 1.194.405 1.68 0 1.96-1.635 8.347-7.356 8.347-12.383C18.375 3.729 14.254 0 9.188 0zM4.14 6.63l4.812-3.062c.144-.091.327-.091.47 0l4.813 3.063c.165.104.24.305.186.492-.055.186-.226.315-.42.315H4.374c-.195 0-.366-.129-.42-.315-.055-.187.02-.388.185-.492zm8.985 2.12v2.625c0 .242-.196.438-.437.438h-.875c-.242 0-.438-.196-.438-.438V8.75c0-.242.196-.437.438-.437h.875c.241 0 .437.195.437.437zm-3.062 0v2.625c0 .242-.196.438-.438.438H8.75c-.242 0-.437-.196-.437-.438V8.75c0-.242.195-.437.437-.437h.875c.242 0 .438.195.438.437zM7 8.75v2.625c0 .242-.196.438-.437.438h-.875c-.242 0-.438-.196-.438-.438V8.75c0-.242.196-.437.438-.437h.875c.241 0 .437.195.437.437zM13.781 14H4.594c-.363 0-.656-.294-.656-.656 0-.363.293-.656.656-.656h9.187c.363 0 .657.293.657.656 0 .362-.294.656-.657.656z" transform="translate(-352 -4970) translate(190 4115) translate(151 775) translate(11 80) translate(6 4.5)"/>
                        </g>
                    </g>
                </g>
            </g>
        </g>
    </g>
</svg>
