<?xml version="1.0" encoding="UTF-8"?>
<svg width="24px" height="14px" viewBox="0 0 24 14" version="1.1" xmlns="http://www.w3.org/2000/svg" xmlns:xlink="http://www.w3.org/1999/xlink">
    <g id="Page-1" stroke="none" stroke-width="1" fill="none" fill-rule="evenodd">
        <g id="bike-icon2" transform="translate(0.000000, -1.000000)" fill="#000000">
            <path d="M18.08,1.324 C18.136,1.547 18.021,1.773 17.819,1.864 L17.739,1.892 L16.371,2.234 L16.833,3.486 L16.839,3.503 L18.021,6.715 C18.345,6.635 18.683,6.594 19.031,6.594 C21.361,6.594 23.25,8.483 23.25,10.812 C23.25,13.142 21.361,15.032 19.031,15.032 C16.701,15.032 14.813,13.142 14.813,10.812 C14.813,9.162 15.761,7.732 17.143,7.039 L16.25,4.619 L11.439,11.093 L11.382,11.156 L11.318,11.206 L11.246,11.245 L11.17,11.27 L11.091,11.281 L9.161,11.281 C8.929,13.391 7.141,15.031 4.969,15.031 C2.639,15.031 0.75,13.142 0.75,10.813 C0.75,8.483 2.639,6.593 4.969,6.593 C5.885,6.593 6.734,6.886 7.426,7.383 L8.622,6.052 L7.725,3.844 L6.844,3.844 C6.584,3.844 6.375,3.62 6.375,3.344 C6.375,3.098 6.541,2.894 6.759,2.852 L6.844,2.844 L9.656,2.844 C9.916,2.844 10.125,3.068 10.125,3.344 C10.125,3.589 9.959,3.794 9.741,3.836 L9.656,3.844 L8.737,3.844 L9.429,5.546 L15.785,3.358 L15.491,2.558 C15.399,2.308 15.418,2.032 15.542,1.796 C15.649,1.594 15.825,1.44 16.035,1.359 L16.143,1.325 L17.511,0.983 C17.762,0.92 18.017,1.073 18.08,1.323 L18.08,1.324 Z M4.969,7.53 C3.157,7.53 1.688,9 1.688,10.812 C1.688,12.624 3.157,14.092 4.968,14.092 C6.622,14.092 7.989,12.87 8.217,11.28 L4.969,11.28 C4.59,11.28 4.379,10.862 4.572,10.56 L4.62,10.498 L6.793,8.084 C6.271,7.734 5.643,7.53 4.969,7.53 L4.969,7.53 Z M19.031,7.53 C18.797,7.53 18.569,7.555 18.348,7.601 L19.471,10.649 C19.561,10.892 19.436,11.162 19.193,11.251 C18.977,11.331 18.74,11.241 18.628,11.05 L18.591,10.974 L17.469,7.925 C16.445,8.481 15.75,9.565 15.75,10.812 C15.75,12.624 17.22,14.092 19.031,14.092 C20.843,14.092 22.313,12.624 22.313,10.812 C22.313,8.999 20.843,7.53 19.031,7.53 Z M7.489,8.71 L6.021,10.343 L8.217,10.343 C8.129,9.727 7.87,9.166 7.489,8.71 Z M9.014,7.016 L8.122,8.008 C8.687,8.644 9.063,9.451 9.162,10.343 L10.365,10.343 L9.015,7.016 L9.014,7.016 Z M15.111,4.58 L9.781,6.414 L11.183,9.863 L15.111,4.58 L15.111,4.58 Z" id="Shape"></path>
        </g>
    </g>
</svg>