<?xml version="1.0" encoding="UTF-8"?>
<svg width="24px" height="14px" viewBox="0 0 24 14" version="1.1" xmlns="http://www.w3.org/2000/svg" xmlns:xlink="http://www.w3.org/1999/xlink">
    <title>icon</title>
    <g id="----icon" stroke="none" stroke-width="1" fill="none" fill-rule="evenodd">
        <g id="basics/icon/icon-transportation-4" transform="translate(-8.000000, -13.000000)" fill="#000000">
            <path d="M18.999841,13.4999997 C19.6967072,13.4997783 20.3715929,13.7321903 20.9189171,14.1570907 L21.0791819,14.2902953 L24.72,17.526 L29.5906852,18.2220216 C30.9155574,18.4112194 31.9138126,19.506501 31.9947004,20.8265948 L32,20.9999997 L32,22.9999997 C32,23.7796961 31.4051119,24.4204486 30.64446,24.4931333 L30.5,24.4999997 L28.9499027,24.5004345 C28.7180997,25.6413382 27.7093254,26.5 26.5,26.5 C25.2906746,26.5 24.2819003,25.6413382 24.0500973,24.5004345 L14.9499027,24.5004345 C14.7180997,25.6413382 13.7093254,26.5 12.5,26.5 C11.2742057,26.5 10.2544622,25.6177921 10.0410608,24.4536678 C9.42870283,24.3341531 8.88196673,23.9746422 8.52880455,23.4450945 C8.22774442,22.9929026 8.04927748,22.4717833 8.00883636,21.9322223 L8,21.7 L8,18.9999997 C8,18.6008942 8.06822019,18.2074625 8.19926406,17.8358939 C8.20204409,17.8287116 8.20478746,17.8213691 8.20769611,17.8141107 C8.29897583,17.5588453 8.42051841,17.3143233 8.56998628,17.0855713 L8.7,16.9 L10.5,14.4999997 C10.9358178,13.9189096 11.600702,13.5585304 12.3193259,13.5065258 L12.5,13.4999997 L18.999841,13.4999997 Z M26.5,22.5 C25.6715729,22.5 25,23.1715729 25,24 C25,24.8284271 25.6715729,25.5 26.5,25.5 C27.3284271,25.5 28,24.8284271 28,24 C28,23.1715729 27.3284271,22.5 26.5,22.5 Z M12.5,22.5 C11.6715729,22.5 11,23.1715729 11,24 C11,24.8284271 11.6715729,25.5 12.5,25.5 C13.3284271,25.5 14,24.8284271 14,24 C14,23.1715729 13.3284271,22.5 12.5,22.5 Z M17,18.4999996 L9.05049429,18.5000669 C9.03047039,18.5981723 9.01630557,18.6976531 9.00817254,18.7979911 L9,18.9999997 L9,19.4999996 L9.5,19.5 C9.77614237,19.5 10,19.7238576 10,20 C10,20.2454599 9.82312484,20.4496084 9.58987563,20.4919443 L9.5,20.5 L9,20.4999996 L9,21.699365 C9.00053813,22.1234324 9.1261818,22.5379154 9.36097782,22.8905789 C9.53203612,23.1470715 9.78182197,23.3345524 10.0665611,23.4296016 C10.3235968,22.3236079 11.3156164,21.5 12.5,21.5 C13.7096818,21.5 14.7186941,22.3591679 14.9501074,23.500574 L17,23.4999996 L17,18.4999996 Z M24.471,18.4999996 L18,18.4999996 L18,23.4999996 L24.0498926,23.500574 C24.2707406,22.4112792 25.1998054,21.5790396 26.3356243,21.5053177 L26.5,21.5 C27.7096818,21.5 28.7186941,22.3591679 28.9501074,23.500574 L30.5,23.4999997 C30.7454599,23.4999997 30.9496084,23.3231248 30.9919443,23.0898755 L31,22.9999997 L31,21.4999996 L29.5,21.5 C29.2238576,21.5 29,21.2761424 29,21 C29,20.7545401 29.1768752,20.5503916 29.4101244,20.5080557 L29.5,20.5 L30.9297587,20.5001695 C30.7513756,19.880205 30.2489294,19.3907035 29.6038618,19.2408905 L29.4493031,19.2119767 L24.471,18.4999996 Z M20.5,19.5 C20.7761424,19.5 21,19.7238576 21,20 C21,20.2454599 20.8231248,20.4496084 20.5898756,20.4919443 L20.5,20.5 L19.5,20.5 C19.2238576,20.5 19,20.2761424 19,20 C19,19.7545401 19.1768752,19.5503916 19.4101244,19.5080557 L19.5,19.5 L20.5,19.5 Z M14.5,19.5 C14.7761424,19.5 15,19.7238576 15,20 C15,20.2454599 14.8231248,20.4496084 14.5898756,20.4919443 L14.5,20.5 L13.5,20.5 C13.2238576,20.5 13,20.2761424 13,20 C13,19.7545401 13.1768752,19.5503916 13.4101244,19.5080557 L13.5,19.5 L14.5,19.5 Z M12.859,14.4999996 L12.5,14.4999997 C12.0803237,14.4999997 11.6824179,14.6756374 11.4002178,14.979945 L11.3,15.1 L9.5,17.4999997 L12.109,17.4999996 L12.859,14.4999996 Z M19,14.4999997 L18,14.4999996 L18,17.4999996 L23.185,17.4999996 L20.414777,15.0376682 C20.068351,14.7296658 19.632113,14.5442678 19.1730765,14.5069873 L19,14.4999997 Z M17,14.4999996 L13.89,14.4999996 L13.14,17.4999996 L17,17.4999996 L17,14.4999996 Z" id="icon"></path>
        </g>
    </g>
</svg>