<?xml version="1.0" encoding="UTF-8"?>
<svg width="15px" height="22px" viewBox="0 0 15 22" version="1.1" xmlns="http://www.w3.org/2000/svg" xmlns:xlink="http://www.w3.org/1999/xlink">
    <title>icon</title>
    <g id="----icon" stroke="none" stroke-width="1" fill="none" fill-rule="evenodd">
        <g id="basics/icon/icon-transportation-1" transform="translate(-12.000000, -8.000000)" fill="#000000">
            <path d="M16.5939284,14.9608344 C18.4344057,14.1525381 20.5710252,14.3968813 22.1834266,15.6051701 L22.1834266,15.6051701 L23.0975021,16.2916266 C23.4855198,16.5824751 23.9179477,16.8087744 24.378868,16.962048 L24.378868,16.962048 L25.3587922,17.2900084 C26.2120382,17.5533137 26.7548953,18.3891334 26.6467173,19.2888805 C26.5677972,19.8147939 26.2603589,20.2788916 25.8068741,20.556677 C25.3533893,20.8344625 24.8002788,20.8975004 24.2962975,20.7290075 L24.2962975,20.7290075 L23.2380576,20.3762608 C22.4099548,20.1005717 21.6318519,19.692856 20.9340834,19.1690625 L21.0311736,19.239 L21.0320902,20.4170268 C21.032604,20.4947962 21.0536302,20.5700671 21.0932648,20.6370049 L21.1390316,20.700949 L21.1967811,20.7580411 C23.1815836,22.4829369 24.6507753,24.7230684 25.4378157,27.2183432 C25.6509799,27.8310855 25.5179178,28.5111298 25.089529,28.9983415 C24.6611403,29.4855532 24.0037136,29.7045414 23.3687316,29.5715375 C22.7337496,29.4385337 22.2194691,28.9741186 22.0223167,28.3550007 C21.6234891,27.0929844 21.0004619,25.915589 20.182,24.874 L20.182,24.874 L20.1517734,24.9633867 C19.6821295,26.2459064 19.0303702,27.4552067 18.215615,28.5542224 L18.215615,28.5542224 L17.9380193,28.9164256 C17.3187007,29.694136 16.1861849,29.8225379 15.4084745,29.2032193 C14.630764,28.5839007 14.5023621,27.4513849 15.134229,26.6586029 C16.0269783,25.6326537 16.6746337,24.4170544 17.0219509,23.1300241 L17.0219509,23.1300241 L17.1309228,22.6012002 C17.3295583,21.5541157 17.4295073,20.4906012 17.4294,19.4246 L17.4294,19.4246 L17.429,18.657 L17.3381453,18.7406484 C16.8700177,19.1975793 16.5798205,19.8183977 16.5349749,20.4958761 L16.5349749,20.4958761 L16.5288781,20.6819672 C16.5028805,21.2212771 16.2361584,21.7204322 15.8022642,22.0417837 C15.3683699,22.3631352 14.8131368,22.4727379 14.2768407,22.3369184 C13.4507257,22.1018459 12.8946023,21.3296711 12.9330493,20.4853386 C12.9671048,18.1850135 14.2850065,16.0969922 16.3469054,15.0765862 L16.3469054,15.0765862 Z M21.6433448,16.3251085 C20.2913397,15.3119538 18.4992846,15.1070149 16.9658682,15.7803094 L16.9658682,15.7803094 L16.7374913,15.8873583 C14.9866156,16.7539563 13.8620113,18.5357262 13.8325392,20.5123587 C13.8125625,20.9534644 14.0984607,21.3504328 14.5103219,21.4678328 C14.7720513,21.5340181 15.0496678,21.4792168 15.266615,21.3185411 C15.4835621,21.1578653 15.6169231,20.9082877 15.6294002,20.6607553 C15.6280791,19.3551362 16.3384773,18.15259 17.4981539,17.5155078 L17.4981539,17.5155078 L17.6781539,17.4255078 C17.9773594,17.275905 18.3294,17.4934781 18.3294,17.828 L18.3294,17.828 L18.3294,19.4245547 C18.3295129,20.54683 18.2242832,21.6665348 18.0137869,22.7758469 L18.0137869,22.7758469 L17.8972293,23.33778 C17.5082037,24.7828388 16.7955357,26.1204617 15.8257193,27.2343255 C15.5160397,27.6232062 15.5802449,28.1895011 15.9691256,28.4991807 C16.3580062,28.8088602 16.9243011,28.7446551 17.2332512,28.356693 C18.2953224,27.0158376 19.0901269,25.4835703 19.5745206,23.843067 C19.6738535,23.5066544 20.1028191,23.408196 20.3389116,23.6676198 C21.4955288,24.9385368 22.3626611,26.445247 22.8801843,28.0828568 C22.978611,28.3919445 23.2357512,28.624152 23.5532422,28.690654 C23.8707332,28.7571559 24.1994466,28.6476618 24.4136409,28.404056 C24.6278353,28.1604501 24.6943664,27.820428 24.5836513,27.5015933 C23.8424131,25.1521319 22.4659499,23.0533872 20.6129735,21.4429459 C20.3105797,21.1901439 20.1347139,20.8171102 20.1321,20.42 L20.1321,20.42 L20.1321,18.3428 C20.1321,17.9720276 20.5553472,17.7603427 20.8520166,17.9827375 L20.8520166,17.9827375 L21.4741541,18.4491156 C22.0946039,18.9148682 22.786251,19.2772821 23.5225025,19.5223925 L23.5225025,19.5223925 L24.5812827,19.8753195 C24.8334635,19.9596294 25.1100187,19.9281104 25.3367612,19.7892177 C25.5635036,19.650325 25.7172227,19.4182761 25.7549061,19.1684792 C25.8094802,18.7137415 25.5310445,18.285043 25.083332,18.146752 L25.083332,18.146752 L24.0941038,17.8158095 C23.5420359,17.6322268 23.0232261,17.3607219 22.5573734,17.0115299 L22.5573734,17.0115299 Z M19.2321,8 C20.7232688,8 21.9321,9.20883118 21.9321,10.7 C21.9321,12.1911688 20.7232688,13.4 19.2321,13.4 C17.7409312,13.4 16.5321,12.1911688 16.5321,10.7 C16.5321,9.20883118 17.7409312,8 19.2321,8 Z M19.2321,8.9 C18.2379875,8.9 17.4321,9.70588745 17.4321,10.7 C17.4321,11.6941125 18.2379875,12.5 19.2321,12.5 C20.2262125,12.5 21.0321,11.6941125 21.0321,10.7 C21.0321,9.70588745 20.2262125,8.9 19.2321,8.9 Z" id="icon"></path>
        </g>
    </g>
</svg>