<svg width="40" height="40" xmlns="http://www.w3.org/2000/svg" xmlns:xlink="http://www.w3.org/1999/xlink">
    <g fill="none" fill-rule="evenodd">
        <g>
            <use fill="#000" xlink:href="#path-1"/>
            <circle stroke="#545454" stroke-linejoin="square" fill="#FFF" cx="20" cy="20" r="19.5"/>
        </g>
        <path d="M8.522 20.522a.522.522 0 0 1-.094-1.035l.094-.009h2.623a8.87 8.87 0 0 1 8.334-8.333V8.522a.522.522 0 0 1 1.034-.094l.009.094v2.623a8.87 8.87 0 0 1 8.333 8.334h2.623a.522.522 0 0 1 .094 1.034l-.094.009h-2.623a8.87 8.87 0 0 1-8.334 8.333v2.623a.522.522 0 0 1-1.034.094l-.009-.094v-2.623a8.87 8.87 0 0 1-8.333-8.334H8.522ZM20 12.174a7.826 7.826 0 1 0 0 15.652 7.826 7.826 0 0 0 0-15.652Zm0 3.652a4.174 4.174 0 1 1 0 8.348 4.174 4.174 0 0 1 0-8.348Zm0 1.044a3.13 3.13 0 1 0 0 6.26 3.13 3.13 0 0 0 0-6.26Z" fill="#545454"/>
    </g>
</svg>
