<svg viewBox="0 0 1063 263" fill="none" xmlns="http://www.w3.org/2000/svg">
    <path d="M307.319 256.334v-3.147h9.497v-78.544h-9.497v-3.146h34.086c5.982 0 11.032.874 15.15 2.622 4.156 1.709 7.302 4.253 9.439 7.633 2.175 3.34 3.263 7.497 3.263 12.469 0 4.739-1.185 8.779-3.554 12.119-2.331 3.302-5.614 5.827-9.848 7.575-4.195 1.709-9.089 2.564-14.683 2.564h-21.209v36.708h9.497v3.147h-22.141Zm58.034 0-17.772-41.894h3.147l16.723 38.747h7.749v3.147h-9.847Zm-45.39-43.001h21.151c8.584 0 14.897-1.826 18.937-5.478 4.039-3.651 6.059-8.196 6.059-13.634 0-6.332-2.078-11.168-6.234-14.509-4.118-3.379-10.275-5.069-18.471-5.069h-21.442v38.69ZM396.225 256.275v-3.146h9.498v-78.544h-9.498v-3.147h59.374v17.073h-3.146v-13.926h-43.584v35.892h36.708v3.147h-36.708v39.505h45.332v-13.926h3.146v17.072h-61.122ZM478.71 256.275v-3.146h6.234l30.532-81.691h3.846l30.59 81.691h6.235v3.146h-18.005v-3.146h8.333l-8.333-22.2h-41.486l-8.274 22.2h8.332v3.146H478.71Zm19.111-28.492h39.156l-17.771-47.779-1.632-4.778h-.35l-1.573 4.778-17.83 47.779ZM574.868 256.275v-3.146h9.498v-78.544h-9.498v-3.147h22.2v3.147h-9.498v78.544h40.38v-13.926h3.146v17.072h-56.228ZM642.575 256.275v-3.146h9.497v-78.544h-9.497v-3.147h22.199v3.147h-9.497v78.544h40.379v-13.926h3.146v17.072h-56.227ZM729.223 256.275v-3.146h6.234l30.532-81.691h3.846l30.59 81.691h6.235v3.146h-18.005v-3.146h8.332l-8.332-22.2h-41.486l-8.274 22.2h8.332v3.146h-18.004Zm19.111-28.492h39.156l-17.772-47.779-1.631-4.778h-.35l-1.573 4.778-17.83 47.779ZM825.38 256.275v-3.146h9.498v-78.544h-9.498v-3.147h31.814c8.779 0 15.596 1.807 20.452 5.419 4.856 3.613 7.283 9.051 7.283 16.315 0 5.05-1.301 9.303-3.903 12.761-2.603 3.457-6.274 5.613-11.013 6.467 3.535.466 6.72 1.69 9.556 3.671 2.836 1.942 5.069 4.39 6.701 7.342 1.67 2.913 2.505 6.079 2.505 9.497 0 7.42-2.408 13.169-7.225 17.247-4.778 4.079-11.11 6.118-18.995 6.118H825.38Zm12.644-3.146h24.531c7.147 0 12.78-1.767 16.897-5.302 4.118-3.535 6.177-8.468 6.177-14.8 0-3.457-.894-6.584-2.681-9.381-1.748-2.836-4.311-5.089-7.691-6.759-3.341-1.67-7.38-2.506-12.119-2.506h-25.114v38.748Zm0-41.894h20.336c7.73 0 13.556-1.496 17.48-4.487 3.923-3.03 5.885-7.633 5.885-13.809 0-6.06-2.078-10.624-6.235-13.693-4.117-3.107-10.216-4.661-18.296-4.661h-19.17v36.65ZM946.469 257.499c-5.283 0-10.1-1.01-14.45-3.03-4.351-2.059-8.099-4.972-11.246-8.74-3.146-3.807-5.574-8.352-7.283-13.634-1.709-5.283-2.564-11.188-2.564-17.714v-1.048c0-6.526.835-12.431 2.506-17.714 1.709-5.283 4.136-9.808 7.283-13.576 3.146-3.807 6.875-6.72 11.187-8.74 4.351-2.059 9.168-3.088 14.45-3.088 5.245 0 10.042 1.029 14.392 3.088 4.351 2.02 8.1 4.933 11.246 8.74 3.185 3.768 5.632 8.293 7.342 13.576 1.709 5.283 2.563 11.188 2.563 17.714v1.048c0 6.526-.854 12.45-2.563 17.772-1.71 5.283-4.137 9.808-7.284 13.576-3.107 3.768-6.836 6.681-11.187 8.74-4.351 2.02-9.148 3.03-14.392 3.03Zm0-3.146c6.565 0 12.256-1.651 17.072-4.953 4.856-3.302 8.604-7.944 11.246-13.926 2.641-6.021 3.962-13.052 3.962-21.093v-1.165c0-8.002-1.34-14.994-4.02-20.976-2.642-5.982-6.39-10.624-11.246-13.926-4.856-3.302-10.566-4.953-17.131-4.953-6.525 0-12.197 1.651-17.014 4.953-4.816 3.302-8.565 7.944-11.245 13.926-2.642 5.982-3.962 12.974-3.962 20.976v1.165c0 8.041 1.32 15.072 3.962 21.093 2.68 5.982 6.429 10.624 11.245 13.926 4.856 3.302 10.566 4.953 17.131 4.953ZM994.19 256.334v-3.147h9.5v-78.544h-9.5v-3.146h34.09c5.98 0 11.03.874 15.15 2.622 4.15 1.709 7.3 4.253 9.43 7.633 2.18 3.34 3.27 7.497 3.27 12.469 0 4.739-1.19 8.779-3.56 12.119-2.33 3.302-5.61 5.827-9.84 7.575-4.2 1.709-9.09 2.564-14.69 2.564h-21.21v36.708h9.5v3.147h-22.14Zm58.03 0-17.77-41.894h3.15l16.72 38.747h7.75v3.147h-9.85Zm-45.39-43.001h21.15c8.59 0 14.9-1.826 18.94-5.478 4.04-3.651 6.06-8.196 6.06-13.634 0-6.332-2.08-11.168-6.23-14.509-4.12-3.379-10.28-5.069-18.47-5.069h-21.45v38.69Z" fill="#231F20"/>
    <path fill-rule="evenodd" clip-rule="evenodd" d="M141.362 17.566c58.328 5.6 103.997 54.796 103.997 114.572 0 6.125-.482 12.135-1.405 18.008l-135.953-11.521 33.361-121.059Z" fill="#FABD24" fill-opacity=".9"/>
    <path fill-rule="evenodd" clip-rule="evenodd" d="M247.318 84.242c5.554 13.963 8.609 29.181 8.609 45.108 0 52.324-32.955 97.014-79.226 114.429l-68.699-105.153 139.316-54.384Z" fill="url(#a)"/>
    <path fill-rule="evenodd" clip-rule="evenodd" d="m108.002 138.627-61.983 75.818c-21.215-21.852-34.337-51.594-34.526-84.371l96.509 8.553Z" fill="url(#b)"/>
    <path fill-rule="evenodd" clip-rule="evenodd" d="M31.627 62.156C53.49 29.017 91.06 7.129 133.71 7.129c7.553 0 14.948.688 22.123 2.004l-47.831 129.494-76.375-76.471Z" fill="url(#c)"/>
    <path fill-rule="evenodd" clip-rule="evenodd" d="M108.002 138.625 5.929 166.077C2.574 154.419.78 142.088.78 129.348c0-37.111 15.238-70.688 39.788-94.805l67.435 104.082Z" fill="#FABD24"/>
    <path fill-rule="evenodd" clip-rule="evenodd" d="M208.845 238.989c-21.373 14.688-47.259 23.286-75.135 23.286-40.773 0-77.277-18.395-101.67-47.326l75.962-76.324 100.843 100.364Z" fill="#FABD24"/>
    <path d="M307.533 145.115v-13.596l12.042-2.331V48.001l-12.042-2.331V31.996h35.038l49.257 78.468.466-.077V48.001l-14.451-2.331V31.996h46.848V45.67L412.571 48v97.115h-21.909l-50.344-77.692-.466.078v61.687l14.529 2.331v13.596h-46.848ZM503.998 146.746c-8.96 0-16.859-1.554-23.695-4.661-6.786-3.108-12.069-7.614-15.849-13.519-3.781-5.904-5.672-13.078-5.672-21.52V48l-12.042-2.33V31.996h46.848V45.67L481.468 48v59.046c0 4.972.906 9.116 2.719 12.43 1.813 3.315 4.403 5.801 7.769 7.459 3.367 1.605 7.381 2.408 12.042 2.408 4.765 0 8.831-.803 12.198-2.408 3.418-1.658 6.034-4.144 7.847-7.459 1.812-3.314 2.719-7.458 2.719-12.43V48l-12.042-2.33V31.996h46.848V45.67L549.448 48v59.046c0 8.442-1.917 15.642-5.749 21.598-3.781 5.905-9.09 10.411-15.927 13.518-6.785 3.056-14.71 4.584-23.774 4.584ZM584.859 145.115v-13.596l12.198-2.564V48.311l-12.198-2.641V31.996h49.645c10.1 0 19.009 2.383 26.726 7.148 7.717 4.713 13.725 11.265 18.024 19.656 4.351 8.338 6.526 17.92 6.526 28.745v2.098c0 10.721-2.149 20.277-6.448 28.668-4.247 8.339-10.203 14.891-17.869 19.656-7.666 4.765-16.548 7.148-26.648 7.148h-49.956Zm34.884-17.326h13.907c6.267 0 11.575-1.631 15.926-4.894 4.351-3.315 7.666-7.847 9.945-13.596 2.33-5.749 3.496-12.301 3.496-19.656v-2.175c0-7.459-1.166-14.037-3.496-19.734-2.279-5.75-5.594-10.23-9.945-13.44-4.351-3.264-9.659-4.895-15.926-4.895h-13.907v78.39ZM705.731 145.115v-13.596l8.08-1.166 35.971-98.357h23.23l35.738 98.357 8.08 1.166v13.596h-38.535v-13.596l7.847-1.399-4.972-15.538h-39.778l-4.973 15.538 7.847 1.399v13.596h-38.535Zm41.021-47.237h29.057L762.601 59.11l-1.087-3.418h-.466l-1.166 3.651-13.13 38.535ZM840.277 145.115v-13.596l12.042-2.331V48.001l-12.042-2.331V31.996h90.044v30.999h-17.403l-1.009-13.518h-36.904V80.63h39.623v17.48h-39.623v31.077l12.12 2.331v13.596h-46.848ZM935.667 145.115v-13.596l8.079-1.166 35.971-98.357h23.233l35.74 98.357 8.07 1.166v13.596h-38.53v-13.596l7.85-1.399-4.98-15.538h-39.773l-4.972 15.538 7.846 1.399v13.596h-38.534Zm41.02-47.237h29.053L992.536 59.11l-1.087-3.418h-.466l-1.166 3.651-13.13 38.535Z" fill="#231F20"/>
    <defs>
        <linearGradient id="a" x1="228.908" y1="150.147" x2="11.489" y2="150.147" gradientUnits="userSpaceOnUse">
            <stop stop-color="#FDE6AC"/>
            <stop offset="1" stop-color="#FACC57"/>
        </linearGradient>
        <linearGradient id="b" x1="228.908" y1="150.147" x2="11.489" y2="150.147" gradientUnits="userSpaceOnUse">
            <stop stop-color="#FDE6AC"/>
            <stop offset="1" stop-color="#FACC57"/>
        </linearGradient>
        <linearGradient id="c" x1="228.908" y1="150.148" x2="11.489" y2="150.148" gradientUnits="userSpaceOnUse">
            <stop stop-color="#FDE6AC"/>
            <stop offset="1" stop-color="#FACC57"/>
        </linearGradient>
    </defs>
</svg>
