<svg viewBox="0 0 2126 567" xmlns="http://www.w3.org/2000/svg" xml:space="preserve" style="fill-rule:evenodd;clip-rule:evenodd;stroke-linejoin:round;stroke-miterlimit:2">
    <path d="M402.096 78.78v-1.532l2.489-.24v-7.332l-2.489-.239v-1.54h8.412l9.69 6.966h.099v-5.187l-3.169-.239v-1.54h10.835v1.54l-2.505.239v9.104h-5.741l-9.872-6.817h-.1v5.045l3.186.24v1.532h-10.835Zm43.56.157c-2.08 0-3.891-.151-5.434-.452-1.543-.302-2.735-.744-3.575-1.327-.841-.583-1.261-1.296-1.261-2.138v-5.344l-2.489-.239v-1.54h10.818v1.54l-2.506.239v5.344c0 .439.172.801.515 1.088.342.286.843.499 1.501.639.658.139 1.457.209 2.398.209.973 0 1.789-.07 2.447-.209.658-.14 1.156-.353 1.493-.639.338-.287.506-.649.506-1.088v-5.344l-2.488-.239v-1.54h10.817v1.54l-2.505.239v5.344c0 .827-.431 1.534-1.294 2.119-.863.586-2.06 1.032-3.592 1.338-1.532.307-3.316.46-5.351.46Zm18.091-.157v-1.532l2.539-.277v-7.25l-2.539-.284v-1.54h11.316c2.179 0 4.109.228 5.79.684 1.681.456 2.998 1.086 3.949 1.891.951.805 1.427 1.733 1.427 2.784v.172c0 1.052-.476 1.98-1.427 2.784-.951.805-2.268 1.434-3.949 1.888-1.681.453-3.611.68-5.79.68h-11.316Zm8.362-1.988h2.655c1.228 0 2.256-.14 3.086-.419.83-.279 1.457-.671 1.883-1.177a2.661 2.661 0 0 0 .639-1.768v-.179c0-.673-.213-1.261-.639-1.764-.426-.503-1.053-.894-1.883-1.173-.83-.28-1.858-.419-3.086-.419h-2.655v6.899Zm19.236 1.988v-1.532l1.693-.112 7.2-9.239h6.305l7.218 9.239 1.692.112v1.532h-9.026v-1.532l1.576-.135-.73-1.181h-7.765l-.696 1.181 1.576.135v1.532h-9.043Zm9.391-4.687h5.293l-2.356-3.296-.265-.381h-.1l-.282.419-2.29 3.258Zm20.149 4.687v-1.532l2.505-.24v-7.332l-2.505-.239v-1.54h19.893v3.207h-4.396l-.117-1.189h-7.051v2.519h8.213v2.003h-8.213v2.571l2.505.24v1.532h-10.834Zm21.31 0v-1.532l1.692-.112 7.201-9.239h6.305l7.217 9.239 1.693.112v1.532h-9.026v-1.532l1.576-.135-.73-1.181h-7.765l-.697 1.181 1.576.135v1.532h-9.042Zm9.391-4.687h5.292l-2.356-3.296-.265-.381h-.1l-.282.419-2.289 3.258ZM402.333 89.501v-.303h2.028v-7.557h-2.028v-.302h7.279c1.278 0 2.358.083 3.242.249.884.166 1.555.411 2.016.734.46.324.691.725.691 1.203 0 .456-.251.844-.753 1.163-.502.32-1.203.563-2.103.729-.9.166-1.948.249-3.142.249h-4.53v3.532h2.028v.303h-4.728Zm12.394 0-3.796-4.031h.672l3.572 3.728h1.655v.303h-2.103Zm-9.694-4.137h4.517c1.834 0 3.182-.176 4.044-.527.863-.352 1.295-.789 1.295-1.312 0-.609-.442-1.075-1.326-1.399-.883-.323-2.2-.485-3.951-.485h-4.579v3.723Zm16.286 4.131v-.303h2.028v-7.556h-2.028v-.303h12.68v1.643h-.672v-1.34h-9.308v3.453h7.84v.303h-7.84v3.8h9.682v-1.34h.672v1.643h-13.054Zm17.615 0v-.303h1.331l6.521-7.859h.821l6.533 7.859h1.332v.303h-3.845v-.303h1.779l-1.779-2.136h-8.86L441 89.192h1.779v.303h-3.845Zm4.082-2.741h8.362l-3.796-4.597-.348-.46h-.075l-.336.46-3.807 4.597Zm16.454 2.741v-.303h2.028v-7.556h-2.028v-.303h4.741v.303h-2.028v7.556h8.623v-1.34h.672v1.643H459.47Zm16.462 0v-.303h2.029v-7.556h-2.029v-.303h4.742v.303h-2.029v7.556h8.624v-1.34h.672v1.643h-12.009Zm16.5 0v-.303h1.332l6.52-7.859h.821l6.533 7.859h1.332v.303h-3.845v-.303h1.779l-1.779-2.136h-8.86l-1.767 2.136h1.779v.303h-3.845Zm4.082-2.741h8.362l-3.795-4.597-.349-.46h-.075l-.336.46-3.807 4.597Zm16.454 2.741v-.303h2.029v-7.556h-2.029v-.303h6.795c1.874 0 3.33.174 4.367.521 1.037.348 1.556.871 1.556 1.57 0 .486-.278.895-.834 1.228-.556.332-1.34.54-2.352.622a8.568 8.568 0 0 1 2.041.35c.606.189 1.085.424 1.437.707.353.282.529.587.529.916 0 .714-.512 1.267-1.537 1.659-1.024.393-2.379.589-4.063.589h-7.939Zm2.701-.303h5.238c1.527 0 2.73-.17 3.609-.51.879-.34 1.319-.815 1.319-1.424 0-.332-.189-.634-.566-.905-.378-.271-.925-.487-1.643-.648-.717-.16-1.582-.241-2.594-.241h-5.363v3.728Zm0-4.03h4.342c1.651 0 2.896-.145 3.734-.435.837-.289 1.256-.731 1.256-1.325 0-.583-.441-1.023-1.325-1.321-.883-.297-2.188-.445-3.913-.445h-4.094v3.526Zm23.158 4.451c-1.128 0-2.157-.098-3.086-.295-.929-.196-1.73-.476-2.402-.84-.672-.365-1.19-.801-1.555-1.309a2.857 2.857 0 0 1-.548-1.705v-.1c0-.628.181-1.196.541-1.705.361-.508.878-.944 1.55-1.309.672-.364 1.47-.644 2.395-.84.925-.197 1.952-.295 3.08-.295 1.12 0 2.144.098 3.074.295.929.196 1.731.476 2.407.84.677.365 1.197.801 1.562 1.309.365.509.548 1.077.548 1.705v.1c0 .628-.183 1.197-.548 1.707-.365.511-.881.947-1.549 1.309-.668.363-1.466.642-2.396.838-.929.197-1.953.295-3.073.295Zm0-.303c1.402 0 2.619-.159 3.652-.477 1.033-.317 1.831-.765 2.396-1.342.564-.577.846-1.253.846-2.027v-.112c0-.77-.284-1.442-.853-2.018-.568-.575-1.371-1.022-2.408-1.339-1.037-.318-2.256-.477-3.658-.477-1.394 0-2.605.159-3.634.477-1.028.317-1.827.764-2.395 1.339-.568.576-.853 1.248-.853 2.018v.112c0 .774.285 1.45.853 2.027.568.577 1.369 1.025 2.402 1.342 1.032.318 2.25.477 3.652.477Zm12.203.191v-.303h2.028v-7.557h-2.028v-.302h7.28c1.277 0 2.358.083 3.241.249.884.166 1.556.411 2.016.734.461.324.691.725.691 1.203 0 .456-.251.844-.753 1.163-.502.32-1.203.563-2.103.729-.9.166-1.947.249-3.142.249h-4.53v3.532h2.029v.303h-4.729Zm12.394 0-3.795-4.031h.672l3.571 3.728h1.655v.303h-2.103Zm-9.694-4.137h4.517c1.834 0 3.182-.176 4.045-.527.863-.352 1.294-.789 1.294-1.312 0-.609-.442-1.075-1.325-1.399-.884-.323-2.201-.485-3.951-.485h-4.58v3.723Z" style="fill:#231f20;fill-rule:nonzero" transform="matrix(9.53173 0 0 21.1591 -3281.37 -1363.91)"/>
    <path d="M1513.44 1999.78c132.09 12.68 235.51 124.09 235.51 259.46 0 13.87-1.09 27.48-3.18 40.78l-307.88-26.09 75.55-274.15Z" style="fill:#fabd24;fill-opacity:.9" transform="translate(-1074.213 -1746.246) scale(.89887)"/>
    <path d="M1711.07 2170.79c10.89 27.38 16.88 57.22 16.88 88.45 0 102.6-64.62 190.23-155.35 224.38l-134.71-206.19 273.18-106.64ZM1437.89 2277.43l-121.54 148.67c-41.6-42.85-67.33-101.17-67.7-165.44l189.24 16.77Z" style="fill:#fde6ac" transform="translate(-1274.416 -2066.49) scale(1.0381)"/>
    <path d="M1288.13 2127.48c42.87-64.98 116.54-107.9 200.17-107.9 14.81 0 29.31 1.35 43.38 3.93l-93.79 253.92-149.76-149.95Z" style="fill:#fde6ac" transform="translate(-1274.416 -2066.49) scale(1.0381)"/>
    <path d="m1437.89 2277.43-200.15 53.83c-6.58-22.86-10.1-47.04-10.1-72.02 0-72.77 29.88-138.61 78.02-185.9l132.23 204.09Zm197.74 196.8c-41.91 28.8-92.67 45.66-147.33 45.66-79.95 0-151.53-36.07-199.36-92.8l148.95-149.66 197.74 196.8Z" style="fill:#fabd24" transform="translate(-1274.416 -2066.49) scale(1.0381)"/>
</svg>
