<svg xmlns="http://www.w3.org/2000/svg" width="24" height="23" viewBox="0 0 24 23">
    <path fill="#000" fill-rule="nonzero" d="M10.4 0v10.4h3.2V0h-3.2zM5.6 3.2v7.2h3.2V3.2H5.6zM20 4v6.4h3.2V4H20zM.8 6v4.4H4V6H.8zm14.4.8v3.6h3.2V6.8h-3.2zm-14.786 4c-.23 0-.414.173-.414.387v.026c0 .214.185.387.414.387H.8v.326l.326-.326h.565l-.891.891v.566L2.257 11.6h.566L.8 13.623v.565L3.388 11.6h.566L.8 14.754v.566l3.2-3.2v-.52h1.6v.448l.448-.448h.565L5.6 12.613v.566L7.179 11.6h.566l-2.052 2.052-.093.093v.566l.376-.376L8.31 11.6h2.09v.448l.448-.448h.565L10.4 12.613v.566l1.579-1.579h.566l-2.052 2.052-.093.093v.566l.376-.376L13.11 11.6h2.09v.448l.448-.448h.565L15.2 12.613v.566l1.579-1.579h.566l-2.052 2.052-.093.093v.566l.376-.376L17.91 11.6H20v.448l.448-.448h.565L20 12.613v.566l1.579-1.579h.566l-2.052 2.052-.093.093v.566l.376-.376L22.71 11.6h.876c.23 0 .414-.173.414-.387v-.026c0-.214-.185-.387-.414-.387H.414zm8.386.877l-2.541 2.541-.566.566-.093.093v.565l.376-.376.565-.565L8.8 12.242v-.565zm4.8 0l-2.541 2.541-.566.566-.093.093v.565l.376-.376.565-.565 2.259-2.259v-.565zm4.8 0l-2.541 2.541-.566.566-.093.093v.565l.376-.376.565-.565 2.259-2.259v-.565zm4.8 0l-2.541 2.541-.566.566-.093.093v.565l.376-.376.565-.565 2.259-2.259v-.565zM4 12.685l-3.2 3.2v.515h.074l-.011-.012L4 13.251v-.566zm4.8.123l-1.976 1.976-.565.565-.659.659v.565l1.507-1.507L8.8 13.373v-.565zm4.8 0l-1.976 1.976-.565.565-.659.659v.565l1.507-1.507 1.693-1.693v-.565zm4.8 0l-1.976 1.976-.565.565-.251.251h.565l.534-.534 1.693-1.693v-.565zm4.8 0l-1.976 1.976-.565.565-.659.659v.565l1.507-1.507 1.693-1.693v-.565zM4 13.816L1.416 16.4h.566L4 14.382v-.566zm4.8.123l-1.41 1.41-1.79 1.79v.566l2.073-2.073L8.8 14.505v-.566zm4.8 0l-1.41 1.41-1.79 1.79v.566l2.073-2.073 1.127-1.127v-.566zm4.8 0l-1.41 1.41-.25.251h.565l1.095-1.095v-.566zm4.8 0l-1.41 1.41L20 17.14v.566l2.073-2.073 1.127-1.127v-.566zM4 14.948L2.548 16.4h.565L4 15.513v-.565zm4.8.122l-.845.845L5.6 18.27v.567l2.638-2.64.562-.561v-.566zm4.8 0l-.845.845L10.4 18.27v.567l2.638-2.64.562-.561v-.566zm4.8 0l-.53.53h.53v-.53zm4.8 0l-.845.845L20 18.27v.13h.437l2.201-2.202.562-.562v-.566zM4 16.08l-.32.32H4v-.32zm4.8.122l-.279.278-2.719 2.72h.566L8.8 16.767v-.565zm4.8 0l-.279.278-2.921 2.922v.566l3.2-3.2v-.566zm9.6 0l-.279.278-1.919 1.92h.566l1.632-1.633v-.565zm-14.4 1.13L6.934 19.2h.564L8.8 17.898v-.565zm4.8 0l-3.2 3.202v.565l3.2-3.2v-.566zm9.6 0L22.133 18.4h.565l.502-.502v-.565zM8.8 18.465l-.736.736h.566l.17-.17v-.566zm4.8 0l-3.2 3.2v.566l3.2-3.2v-.566zm0 1.132L10.796 22.4h.566l2.238-2.238v-.566zm0 1.131L11.927 22.4h.566l1.107-1.107v-.566zm0 1.132l-.541.541h.541v-.541z"/>
</svg>
