<svg xmlns="http://www.w3.org/2000/svg" width="24" height="24" viewBox="0 0 24 24">
    <g fill="#000" fill-rule="nonzero">
        <path d="M23.332 10.066L20.974 9.5a9.238 9.238 0 0 0-.86-2.08l1.267-2.065a.474.474 0 0 0-.07-.583l-2.083-2.084a.473.473 0 0 0-.583-.069L16.58 3.886a9.254 9.254 0 0 0-2.079-.86L13.935.668a.474.474 0 0 0-.461-.363h-2.948c-.219 0-.41.15-.46.363L9.5 3.026a9.254 9.254 0 0 0-2.079.86L5.355 2.619a.473.473 0 0 0-.583.07L2.688 4.771a.474.474 0 0 0-.069.583L3.886 7.42a9.238 9.238 0 0 0-.86 2.079l-2.358.566a.474.474 0 0 0-.363.46v2.948c0 .219.15.41.363.46l2.358.566c.202.728.49 1.425.86 2.08l-1.267 2.065a.474.474 0 0 0 .07.583l2.083 2.084a.472.472 0 0 0 .583.069l2.066-1.267c.654.37 1.351.658 2.079.86l.565 2.358a.474.474 0 0 0 .461.363h2.948c.219 0 .41-.15.46-.363l.566-2.358a9.262 9.262 0 0 0 2.08-.86l2.065 1.267a.473.473 0 0 0 .583-.07l2.084-2.083a.474.474 0 0 0 .069-.583l-1.267-2.066c.37-.654.658-1.351.86-2.079l2.358-.566a.474.474 0 0 0 .363-.46v-2.948c0-.219-.15-.41-.363-.46zm-.584 3.034l-2.178.523a.474.474 0 0 0-.44.361 8.308 8.308 0 0 1-.974 2.358.472.472 0 0 0 .025.528l1.197 1.952-1.556 1.556-1.94-1.189a.474.474 0 0 0-.54-.034 8.311 8.311 0 0 1-2.358.975.468.468 0 0 0-.355.416l-.529 2.202h-2.2l-.523-2.177a.474.474 0 0 0-.361-.441 8.311 8.311 0 0 1-2.358-.975.473.473 0 0 0-.528.026l-1.952 1.197-1.556-1.556 1.189-1.94a.474.474 0 0 0 .033-.54 8.308 8.308 0 0 1-.973-2.358.469.469 0 0 0-.416-.355L1.252 13.1v-2.2l2.178-.523a.474.474 0 0 0 .44-.361c.203-.835.531-1.628.974-2.358a.472.472 0 0 0-.025-.528L3.622 5.178l1.556-1.556L7.117 4.81c.153.122.369.14.541.035a8.307 8.307 0 0 1 2.358-.975.468.468 0 0 0 .355-.416l.529-2.202h2.2l.523 2.177c.008.208.153.39.361.441.835.203 1.628.531 2.358.975a.472.472 0 0 0 .528-.026l1.952-1.197 1.556 1.556-1.189 1.94a.474.474 0 0 0-.033.54c.443.73.77 1.523.973 2.358.05.2.22.338.416.355l2.203.529v2.2z"/>
        <path d="M9.965 8.93h-1.7a2.412 2.412 0 0 0-2.408 2.409v.187h-1.92v.948h1.92v.187c0 1.329 1.08 2.41 2.409 2.41h1.699a.474.474 0 0 0 .473-.474V9.403a.474.474 0 0 0-.473-.473zm-.474 5.193H8.266a1.463 1.463 0 0 1-1.462-1.462V11.34c0-.806.656-1.462 1.462-1.462H9.49v4.246zM18.854 11.339c0-1.329-1.081-2.41-2.41-2.41h-1.698a.474.474 0 0 0-.474.474v.862h-1.911v.947h1.911v1.484h-1.911v.947h1.911v.954c0 .261.212.473.474.473h1.699a2.412 2.412 0 0 0 2.409-2.409v-.187h1.92v-.948h-1.92v-.187zm-.948 1.322c0 .806-.655 1.462-1.461 1.462H15.22V9.877h1.225c.806 0 1.461.656 1.461 1.462v1.322z"/>
    </g>
</svg>
