<svg xmlns="http://www.w3.org/2000/svg" width="18" height="18" viewBox="0 0 18 18">
    <path fill-rule="evenodd" d="M14.423 8.656c.743-.78 1.952-.877 2.809-.224l.119.103c.386.362.619.862.646 1.395.03.582-.187 1.149-.598 1.56l-5.62 5.633c-.048.047-.106.082-.17.1l-2.611.747c-.274.078-.568.002-.769-.2-.2-.201-.277-.496-.199-.77l.746-2.616c.019-.064.053-.122.1-.17zm-4.997 6.301l-.643 2.258 2.255-.646-1.612-1.612zm4.902-5.098l-4.464 4.474 1.797 1.797 4.464-4.474-1.797-1.797zM6.265 0c.787.02 1.531.38 2.053.992s.776 1.422.7 2.163c.116 1.221-.277 2.436-1.076 3.336-.128.146-.105 1.037.026 1.205l.029.023 1.278.492.53.213c.213.088.4.17.573.25.853.397 1.357.763 1.583 1.232.091.19.017.419-.165.513-.181.095-.402.018-.493-.17-.126-.263-.52-.548-1.225-.876l-.26-.117c-.182-.08-.385-.164-.62-.257l-1.455-.562c-.731-.28-.792-1.951-.344-2.463.659-.741.982-1.74.887-2.819.056-.603-.132-1.203-.519-1.656-.386-.454-.937-.72-1.502-.735-.583.015-1.133.281-1.52.735-.387.453-.575 1.053-.519 1.73-.094 1.005.23 2.004.892 2.748.427.488.39 2.042-.257 2.418l-.088.042c.092-.035-1.003.384-1.273.49l-.513.206c-.206.085-.385.163-.55.24-.705.328-1.098.613-1.215.854-.242.59-.396 1.213-.457 1.848l-.012.16h7.711c.18 0 .331.136.362.314l.006.069c0 .187-.13.343-.302.376L8.464 13H.368c-.205 0-.37-.174-.368-.387.01-.924.196-1.836.554-2.707.226-.47.73-.835 1.583-1.231l.272-.123c.19-.083.4-.17.643-.267l1.466-.566.029-.023c.122-.156.15-.935.053-1.16l-.024-.043c-.803-.901-1.197-2.116-1.083-3.265-.075-.814.179-1.624.701-2.236C4.716.379 5.46.02 6.265 0zm10.39 8.985c-.53-.33-1.228-.247-1.672.22l-.124.123 1.797 1.797.19-.19c.193-.193.317-.443.357-.71l.013-.135v-.12c-.02-.36-.19-.694-.465-.918z"/>
</svg>
