<?xml version="1.0" encoding="UTF-8" standalone="no"?>
<svg width="83px" height="37px" viewBox="0 0 83 37" version="1.1" xmlns="http://www.w3.org/2000/svg" xmlns:xlink="http://www.w3.org/1999/xlink">
    <defs>
        <path d="M14.489509,1.51650052 L14.489509,1.50736959 C14.3953194,1.25170344 14.1362978,1.1330013 13.916522,1.2425725 L9.82712098,3.28790172 C9.71723304,3.34268732 9.63874166,3.45225853 9.59164683,3.57096067 C9.50530631,3.83575776 9.61519425,4.12794765 9.84281926,4.23751885 C9.94485805,4.28317352 10.0625951,4.28317352 10.1803322,4.22838792 L14.261884,2.1830587 C14.489509,2.0734875 14.5915478,1.77216668 14.489509,1.51650052 Z M9.56025028,11.5696588 L7.59796574,9.62476991 L6.27931053,10.2730662 C6.01243983,10.4008993 5.71417258,10.2639353 5.60428465,9.95348353 C5.49439671,9.65216271 5.61998292,9.30518722 5.87900448,9.17735414 L6.73456054,8.75733118 L5.36096136,7.39682201 L3.93241822,8.56558157 L2.46462938,9.75260298 C2.15851299,10.0082691 1.89949144,10.30959 1.6875647,10.6200417 C1.45209056,10.9852791 1.28725866,11.3596474 1.17737072,11.7157538 C1.07533193,12.0353365 1.0282371,12.3275264 1.02038796,12.5740616 C1.02038796,12.7201565 1.03608624,12.9027752 1.08318107,12.9758227 C1.1302759,13.067132 1.27940952,13.1675723 1.49918539,13.2771435 C1.75820695,13.4141075 2.09571989,13.5236787 2.47247852,13.6058571 C2.94342681,13.6971665 3.50071562,13.7428211 4.06585357,13.6880355 C4.55250013,13.6423809 5.04699584,13.5328097 5.50224585,13.3319291 C6.86014675,12.7475493 8.21019852,12.1631696 9.56025028,11.5696588 Z M10.8867546,11.3231236 C11.1771727,11.6061826 11.1065305,12.1723005 10.737621,12.3275264 C9.11284941,13.0397392 7.48807781,13.7428211 5.86330621,14.4459031 C5.29816826,14.6924383 4.7094829,14.8294023 4.14434495,14.875057 C3.48501734,14.9389735 2.84923715,14.8933188 2.29979748,14.7746167 C1.83669833,14.6833073 1.42069401,14.5463433 1.0910302,14.3728556 C0.698573296,14.171975 0.400306046,13.9254398 0.235474145,13.6515118 C0.109887934,13.3958456 0,13.1127867 0,12.5466688 C0.00784913816,12.1723005 0.0784913816,11.7431466 0.21192673,11.3231236 C0.353211217,10.857446 0.572987086,10.3643756 0.879103474,9.89869793 C1.14597417,9.49693683 1.47563797,9.1134376 1.88379316,8.78472398 C2.95127595,7.90815432 4.02660788,7.03158465 5.09409067,6.15501499 C5.28246998,5.99978911 5.54149154,6.00892005 5.72202172,6.19153873 L7.17411228,7.6342263 L7.17411228,4.90407703 C7.17411228,4.66667275 7.29969849,4.45666127 7.48807781,4.35622099 L8.53986232,3.83575776 C8.53201318,3.58922254 8.57125887,3.35181826 8.64190112,3.13267584 C8.7831856,2.72178381 9.05790544,2.38393925 9.42681493,2.19218964 L13.6104056,0.101205755 C14.3403754,-0.209246001 15.1331384,0.219907897 15.4314056,1.04169196 C15.7532203,1.89999975 15.4078582,2.91353342 14.6700392,3.27877078 L10.5806382,5.3241 C10.2117287,5.50671868 9.8114227,5.50671868 9.46606062,5.34236187 C9.26198303,5.25105253 9.08145285,5.10495758 8.94016837,4.93146984 L8.20234938,5.2967072 L8.20234938,8.64775997 L10.8867546,11.3231236 Z" id="beta-icon-path"></path>
    </defs>
    <g id="beta" stroke="none" stroke-width="1" fill="none" fill-rule="evenodd">
        <g id="Group-4" transform="translate(1.638874, 5.887783)">
            <path d="M72.1461731,12.7611544 L79.7247029,26 L6,26 C2.13400675,26 -1,22.8659932 -1,19 L-1,6 C-1,2.13400675 2.13400675,-1 6,-1 L79.6884321,-1 L72.1461731,12.7611544 Z" id="Rectangle-beta-6" stroke="#FFFFFF" stroke-width="2" fill="#910155"></path>
            <text id="beta" font-family="OpenSans-Bold, Open Sans" font-size="14" font-weight="bold" fill="#FFFFFF">
                <tspan x="27" y="17">beta!</tspan>
            </text>
            <g id="icon-phase-bau" transform="translate(6.000000, 4.000000)">
                <g id="noun_1547539_cc" transform="translate(0.000000, 0.648000)">
                    <use id="Shape" fill="#FFFFFF" fill-rule="nonzero" xlink:href="#beta-icon-path"></use>
                    <g id="color-white" mask="url(#beta-icon-mask)" fill="#FFFFFF">
                        <!-- <g transform="translate(7.776000, 7.587491) scale(-1, 1) translate(-7.776000, -7.587491) translate(0.000000, -1.354909)" id="Rectangle-beta">
                            <rect x="0" y="0" width="15.9157895" height="17.9052632"></rect>
                        </g> -->
                    </g>
                    <mask id="beta-icon-mask" fill="white">
                        <use xlink:href="#beta-icon-path"></use>
                    </mask>
                </g>
            </g>
        </g>
    </g>
</svg>