<svg viewBox="0 0 40 40" xmlns="http://www.w3.org/2000/svg">
    <g fill="none" fill-rule="evenodd" stroke="#000">
        <g stroke-linecap="round" stroke-linejoin="round" stroke-width="1.14">
            <path d="M12.668 12.002c-.628.136-1.142.6-1.355 1.225l-4.208 13.25c-.337.986.164 2.067 1.12 2.415.196.072.402.108.61.108h22.33C32.18 29 33 28.152 33 27.107c0-.215-.035-.428-.105-.631l-4.208-13.25A1.853 1.853 0 0 0 27.32 12M15 29l1-9"/>
            <path d="M25.006 29 24 20h6.535M8.248 23.5h23.447M9.319 20H16"/>
        </g>
        <path d="M13.625 16.3c0-1.16.98-2.1 2.187-2.1.45 0 .869.13 1.217.354L15.58 16.1l-.032.04c-.13.193.012.461.264.461h2.166c-.152 1.018-1.064 1.8-2.166 1.8-1.208 0-2.187-.94-2.187-2.1zm3.868-1.344c.254.291.426.65.485 1.044h-1.464l.98-1.044zm1.016-1.085.9 2.13h-.801a2.642 2.642 0 0 0-.694-1.495zm4.065-1.559-2.618 3.38-.935-2.206zm2.32 4.092.025.049a.32.32 0 0 0 .377.129.297.297 0 0 0 .185-.386l-.75-1.95c.148-.03.3-.046.457-.046 1.208 0 2.187.94 2.187 2.1s-.98 2.1-2.187 2.1c-1.209 0-2.188-.94-2.188-2.1 0-.798.463-1.491 1.146-1.847l.748 1.95zm-6.286.196h1.286l.053-.007.05-.016.048-.025.043-.032.038-.04 3.207-4.143.594 1.549c-.92.443-1.552 1.358-1.552 2.414 0 1.49 1.258 2.699 2.81 2.7h.005c1.552-.001 2.81-1.21 2.81-2.7 0-1.491-1.26-2.7-2.812-2.7-.233 0-.458.027-.674.078l-1.1-2.868.912-.219.053-.018a.297.297 0 0 0 .174-.346.313.313 0 0 0-.379-.218l-.912.22-.072.02a.618.618 0 0 0-.329.28.578.578 0 0 0-.034.489l.196.511-4.237 1.4-.478-1.129h.63l.056-.005a.304.304 0 0 0 .256-.295c0-.166-.14-.3-.312-.3h-1.876l-.056.005a.304.304 0 0 0-.256.295c0 .166.14.3.312.3h.571l.615 1.453-.798.852a2.88 2.88 0 0 0-1.638-.505C14.26 13.6 13 14.81 13 16.3s1.258 2.699 2.81 2.7h.006c1.446-.001 2.636-1.05 2.792-2.4z" fill="#000" stroke-width=".4"/>
    </g>
</svg>
