<?xml version="1.0" encoding="UTF-8"?>
<svg width="33px" height="18px" viewBox="0 0 33 18" version="1.1" xmlns="http://www.w3.org/2000/svg" xmlns:xlink="http://www.w3.org/1999/xlink">
    <!-- Generator: Sketch 50.2 (55047) - http://www.bohemiancoding.com/sketch -->
    <title>noun_1010574_cc</title>
    <desc>Created with Sketch.</desc>
    <defs></defs>
    <g id="Page-1" stroke="none" stroke-width="1" fill="none" fill-rule="evenodd">
        <g id="noun_1010574_cc" transform="translate(0.617379, 0.499586)" fill="#000000" fill-rule="nonzero">
            <path d="M11.4605677,3.65319756 L10.8349054,1.86559127 L10.260752,1.86559127 C9.74558318,1.86559127 9.32795635,1.44796421 9.32795635,0.932795635 C9.32795635,0.417627064 9.74558318,0 10.260752,0 L13.0591389,0 C13.5743077,0 13.9919345,0.417627064 13.9919345,0.932795635 C13.9919345,1.44796421 13.5743077,1.86559127 13.0591389,1.86559127 L12.8114639,1.86559127 L13.1379424,2.79838691 L20.0551062,2.79838691 L20.0551062,2.56559003 C20.0551062,1.14917671 21.2048915,0 22.6202942,0 C24.0367807,0 25.1854822,1.14816322 25.1854822,2.56416285 L25.1854822,2.83698739 C25.1854822,3.35215596 24.7678551,3.76978302 24.2526865,3.76978302 C23.7375179,3.76978302 23.3198909,3.35215596 23.3198909,2.83698739 L23.3198909,2.56416285 C23.3198909,2.17869672 23.0066385,1.86559127 22.6202942,1.86559127 C22.2350081,1.86559127 21.9206974,2.17973539 21.9206974,2.56559003 L21.9206974,5.78989282 C22.3654842,5.66409087 22.834826,5.59677381 23.3198909,5.59677381 C26.1533192,5.59677381 28.4502669,7.8937215 28.4502669,10.7271498 C28.4502669,12.7966516 27.2249223,14.5799591 25.4601769,15.391128 L30.782256,15.391128 C31.2974245,15.391128 31.7150516,15.808755 31.7150516,16.3239236 C31.7150516,16.8390922 31.2974245,17.2567193 30.782256,17.2567193 C23.952939,17.2567193 18.8309513,17.2567193 15.4162928,17.2567193 C12.1977379,17.2567193 7.3699055,17.2567193 0.932795635,17.2567193 C0.417626831,17.2567193 0,16.8390922 0,16.3239236 C0,15.808755 0.417626831,15.391128 0.932795635,15.391128 L5.32207921,15.391128 C3.55733373,14.5799591 2.33198909,12.7966516 2.33198909,10.7271498 C2.33198909,7.8937215 4.62893668,5.59677381 7.46236508,5.59677381 C8.2062481,5.59677381 8.91315351,5.75509395 9.5512243,6.03987692 L11.4605677,3.65319756 Z M18.5807062,4.66397818 L13.7908993,4.66397818 L15.2486667,8.82902775 L18.5807062,4.66397818 Z M20.8706564,8.56837014 C20.3630705,9.14380617 20.0551062,9.89951335 20.0551062,10.7271498 C20.0551062,12.5302405 21.5168002,13.9919345 23.3198909,13.9919345 C25.1229816,13.9919345 26.5846756,12.5302405 26.5846756,10.7271498 C26.5846756,8.92405911 25.1229816,7.46236508 23.3198909,7.46236508 C23.0194696,7.46236508 22.728526,7.50294216 22.4522412,7.5789151 L24.1109002,10.2327691 C24.3839388,10.6696313 24.2511339,11.24512 23.8142716,11.5181591 C23.3774094,11.7911977 22.8019207,11.6583928 22.5288816,11.2215306 L20.8706564,8.56837014 Z M8.32179317,7.57666566 C8.04796019,7.50214182 7.75980782,7.46236508 7.46236508,7.46236508 C5.65927429,7.46236508 4.19758036,8.92405911 4.19758036,10.7271498 C4.19758036,12.5302405 5.65927429,13.9919345 7.46236508,13.9919345 C8.94132217,13.9919345 10.1905927,13.0085296 10.591951,11.6599454 L6.99596727,11.6599454 C6.21381234,11.6599454 5.77896792,10.7551976 6.26757626,10.144437 L8.32179317,7.57666566 Z M9.91471904,8.5719115 L8.93676504,9.79435417 L10.591951,9.79435417 C10.4557713,9.3367834 10.2219779,8.92125326 9.91471904,8.5719115 Z M12.1876919,5.73069575 L11.0915433,7.10088112 C11.8104341,7.82034546 12.316731,8.7522652 12.5081476,9.79435417 L13.6099724,9.79435417 L12.1876919,5.73069575 Z M14.9047796,11.6599454 L12.5081476,11.6599454 C12.2027408,13.3226075 11.0957593,14.7048175 9.60265096,15.391128 L21.1796048,15.391128 C19.4148595,14.5799591 18.1895149,12.7966516 18.1895149,10.7271498 C18.1895149,9.13399363 18.9156932,7.71044581 20.0551062,6.76944904 L20.0551062,5.80738134 L15.6585043,11.3031339 C15.6516723,11.3118252 15.6446892,11.3203924 15.637559,11.328831 C15.4425025,11.5606708 15.1712467,11.6664349 14.9047796,11.6599454 Z" id="Shape"></path>
        </g>
    </g>
</svg>