<?xml version="1.0" encoding="UTF-8"?>
<svg width="38px" height="24px" viewBox="0 0 29 17" version="1.1" xmlns="http://www.w3.org/2000/svg" xmlns:xlink="http://www.w3.org/1999/xlink">
    <g id="Symbols" stroke="none" stroke-width="1" fill="none" fill-rule="evenodd">
        <g id="button/slider/zustandfuture-copy-6" transform="translate(-10.000000, -16.000000)" fill="#FFFFFF" stroke-width="0" class="bike">
            <g id="noun_1010574_cc" transform="translate(11.000000, 17.000000)">
                <path d="M9.99147617,3.18490648 L9.44601543,1.62644742 L8.94546079,1.62644742 C8.49632974,1.62644742 8.13223708,1.26235456 8.13223708,0.813223708 C8.13223708,0.364092859 8.49632974,0 8.94546079,0 L11.3851319,0 C11.834263,0 12.1983556,0.364092859 12.1983556,0.813223708 C12.1983556,1.26235456 11.834263,1.62644742 11.3851319,1.62644742 L11.1692056,1.62644742 L11.4538339,2.43967112 L17.4843097,2.43967112 L17.4843097,2.2367157 C17.4843097,1.00186762 18.486708,0 19.7206749,0 C20.9555868,0 21.9570401,1.00098405 21.9570401,2.23547146 L21.9570401,2.47332354 C21.9570401,2.92245439 21.5929473,3.28654725 21.1438164,3.28654725 C20.6946856,3.28654725 20.3305927,2.92245439 20.3305927,2.47332354 L20.3305927,2.23547146 C20.3305927,1.89941693 20.0574951,1.62644742 19.7206749,1.62644742 C19.3847773,1.62644742 19.1107571,1.90032246 19.1107571,2.2367157 L19.1107571,5.04770599 C19.4985282,4.93803016 19.9077066,4.87934225 20.3305927,4.87934225 C22.8008134,4.87934225 24.8033231,6.88185196 24.8033231,9.35207264 C24.8033231,11.156292 23.7350513,12.7110033 22.1965227,13.4181912 L26.8363824,13.4181912 C27.2855132,13.4181912 27.6496061,13.782284 27.6496061,14.2314149 C27.6496061,14.6805457 27.2855132,15.0446386 26.8363824,15.0446386 C20.8824925,15.0446386 16.4170751,15.0446386 13.4401302,15.0446386 C10.634151,15.0446386 6.42518216,15.0446386 0.813223708,15.0446386 C0.364092656,15.0446386 0,14.6805457 0,14.2314149 C0,13.782284 0.364092656,13.4181912 0.813223708,13.4181912 L4.63985982,13.4181912 C3.10133112,12.7110033 2.03305927,11.156292 2.03305927,9.35207264 C2.03305927,6.88185196 4.0355689,4.87934225 6.50578966,4.87934225 C7.15431683,4.87934225 7.77060642,5.01736786 8.32688506,5.26564547 L9.99147617,3.18490648 Z M16.1989081,4.06611854 L12.0230905,4.06611854 L13.2939915,7.69726446 L16.1989081,4.06611854 Z M18.1953173,7.47001966 C17.7527971,7.97169249 17.4843097,8.63052812 17.4843097,9.35207264 C17.4843097,10.9240312 18.7586341,12.1983556 20.3305927,12.1983556 C21.9025513,12.1983556 23.1768757,10.9240312 23.1768757,9.35207264 C23.1768757,7.78011406 21.9025513,6.50578966 20.3305927,6.50578966 C20.0686814,6.50578966 19.8150329,6.5411653 19.5741641,6.60739953 L21.0202052,8.92106489 C21.2582439,9.30192724 21.1424628,9.80364601 20.7616005,10.0416851 C20.3807381,10.2797238 19.8790193,10.1639427 19.6409802,9.78308039 L18.1953173,7.47001966 Z M7.25505056,6.60543844 C7.01631931,6.54046756 6.76510422,6.50578966 6.50578966,6.50578966 C4.933831,6.50578966 3.65950669,7.78011406 3.65950669,9.35207264 C3.65950669,10.9240312 4.933831,12.1983556 6.50578966,12.1983556 C7.79516423,12.1983556 8.88429502,11.3410101 9.23420453,10.1652964 L6.09917781,10.1652964 C5.41728469,10.1652964 5.03818151,9.37652506 5.46415679,8.84405586 L7.25505056,6.60543844 Z M8.64378464,7.47310707 L7.79119127,8.53884893 L9.23420453,8.53884893 C9.11548127,8.13993262 8.91165703,7.77766788 8.64378464,7.47310707 Z M10.6253928,4.99609718 L9.6697558,6.19064311 C10.2964943,6.81788175 10.7378908,7.63034184 10.9047703,8.53884893 L11.865356,8.53884893 L10.6253928,4.99609718 Z M12.9941861,10.1652964 L10.9047703,10.1652964 C10.6385126,11.6148274 9.67343137,12.8198566 8.37171951,13.4181912 L18.4646627,13.4181912 C16.9261342,12.7110033 15.8578623,11.156292 15.8578623,9.35207264 C15.8578623,7.96313778 16.4909542,6.72206976 17.4843097,5.90169619 L17.4843097,5.06295271 L13.6512934,9.85422324 C13.6453372,9.86180045 13.6392493,9.8692695 13.6330331,9.87662633 C13.4629802,10.0787474 13.2264958,10.1709539 12.9941861,10.1652964 Z" id="Shape"></path>
            </g>
        </g>
    </g>
</svg>