<svg xmlns="http://www.w3.org/2000/svg" width="24" height="13" viewBox="0 0 24 13">
    <path fill="#000" fill-rule="evenodd" d="M7.746 4.275c.421 0 .827.07 1.205.198L9.99 2.18l-.256-.7-.882-.017V.732h3.317c.29.394-.117.393-1.586.716l.256.717h6.555c-.442-1.532-.192-1.42-2.18-1.417V0c2.736.026 2.262-.28 3.727 4.4a3.81 3.81 0 0 1 .692-.063c2.078 0 3.769 1.68 3.769 3.743 0 2.064-1.691 3.744-3.77 3.744-2.078 0-3.769-1.68-3.769-3.744 0-1.545.947-2.874 2.295-3.445l-.265-.822c-5.514 5.777-3.445 4.84-6.413 4.958h-.042a3.77 3.77 0 0 1-3.692 2.991c-2.079 0-3.77-1.679-3.77-3.743 0-2.065 1.691-3.744 3.77-3.744zm8.999 3.805c0 1.582 1.295 2.868 2.887 2.868S22.52 9.662 22.52 8.08c0-1.581-1.295-2.868-2.887-2.868-.144 0-.285.011-.423.032.92 2.88.81 2.552.815 2.796.005.204-.162.367-.371.38-.376-.037-.291.025-1.229-2.944a2.87 2.87 0 0 0-1.68 2.604zm-3.722-.178l4.56-4.936-6.413-.012 1.853 4.948zm-1.508.104l.7-.002-1.819-4.745-.706 1.554a3.74 3.74 0 0 1 1.825 3.193zm-2.19-2.387l-1.09 2.396 2.398-.007A2.863 2.863 0 0 0 9.324 5.62zm-1.58 5.268a2.89 2.89 0 0 0 2.788-2.12c-3.005.002-3.274.155-3.315-.362.004-.151.06-.255 1.368-3.13a2.886 2.886 0 0 0-.84-.125c-1.592 0-2.888 1.287-2.888 2.869 0 1.581 1.296 2.868 2.888 2.868zM2.535 1.689H6.51v.845H2.534v-.845zM0 11.824h24v.845H0v-.845zm.845-7.601h3.132v.844H.845v-.844zM0 6.757h2.287V7.6H0v-.844z"/>
</svg>
