<svg xmlns="http://www.w3.org/2000/svg" version="1.1" xmlns:xlink="http://www.w3.org/1999/xlink" xmlns:svgjs="http://svgjs.com/svgjs" viewBox="0 0 140 140" width="140" height="140"><g transform="matrix(5.833333333333333,0,0,5.833333333333333,0,0)"><path d="M0.5 7.5L1.5 16.5 0.5 22.5" fill="none" stroke="#000000" stroke-linecap="round" stroke-linejoin="round"></path><path d="M1.5,16.5h4a1,1,0,0,1,1,1v5" fill="none" stroke="#000000" stroke-linecap="round" stroke-linejoin="round"></path><path d="M23.5 7.5L22.5 16.5 23.5 22.5" fill="none" stroke="#000000" stroke-linecap="round" stroke-linejoin="round"></path><path d="M22.5,16.5h-4a1,1,0,0,0-1,1v5" fill="none" stroke="#000000" stroke-linecap="round" stroke-linejoin="round"></path><path d="M4.5 11.5L19.5 11.5" fill="none" stroke="#000000" stroke-linecap="round" stroke-linejoin="round"></path><path d="M12 11.5L12 20.5" fill="none" stroke="#000000" stroke-linecap="round" stroke-linejoin="round"></path><path d="M15.445,22.5a3.967,3.967,0,0,0-6.89,0" fill="none" stroke="#000000" stroke-linecap="round" stroke-linejoin="round"></path><path d="M10.5,5.5A2.292,2.292,0,0,1,8.5,8a2.292,2.292,0,0,1-2-2.5Z" fill="none" stroke="#000000" stroke-linecap="round" stroke-linejoin="round"></path><path d="M8.5 8L8.5 11.5" fill="none" stroke="#000000" stroke-linecap="round" stroke-linejoin="round"></path><path d="M17.5,11.5h-4V6.4A2.978,2.978,0,0,1,14,4.75,2.978,2.978,0,0,0,14.5,3.1V2a.5.5,0,0,1,.5-.5h1a.5.5,0,0,1,.5.5V3.1A2.978,2.978,0,0,0,17,4.75,2.978,2.978,0,0,1,17.5,6.4Z" fill="none" stroke="#000000" stroke-linecap="round" stroke-linejoin="round"></path></g></svg>