<svg xmlns="http://www.w3.org/2000/svg" width="25" height="26" viewBox="0 0 25 26">
    <g>
        <path d="M10.435 15.652H3.39c-.328 0-.637.155-.834.418L.209 19.2c-.237.316-.276.74-.099 1.093.177.353.538.577.933.577h6c.329 0 .638-.155.835-.418l2.974-3.965c.258-.344.013-.835-.417-.835zM3.39 16.696l6-.001-2.348 3.131h-6l2.348-3.13z"/>
        <path d="M10.122 15.757c.205-.154.486-.134.667.034l.063.07 3.13 4.174c.174.23.127.557-.104.73-.205.154-.486.134-.667-.034l-.063-.07-3.13-4.174c-.173-.23-.127-.558.104-.73zM8.348 18.435c.256 0 .469.185.513.428l.009.094v5.565c0 .256-.185.469-.428.513l-.094.008H1.565c-.538 0-.98-.406-1.037-.93L.522 24v-3.652c0-.288.233-.522.521-.522.257 0 .47.185.514.428l.008.094V24h6.26l.001-5.043c0-.256.185-.47.428-.513l.094-.009z"/>
        <path d="M12.522 18.435c.256 0 .469.185.513.428l.008.094V24c0 .538-.406.98-.93 1.037l-.113.006H8.348c-.288 0-.522-.233-.522-.521 0-.256.185-.47.428-.514L8.348 24H12v-5.043c0-.288.234-.522.522-.522zM19.576 0c.136 0 .269.027.391.077l.12.057c.077.043.148.096.212.158l.091.1 4.017 5.021c.18.225.144.554-.081.734-.2.16-.482.149-.668-.014l-.065-.068-3.771-4.713-3.606 4.517c-.169.212-.413.348-.68.383l-.134.009H7.345c-.4 0-.765-.23-.939-.592-.154-.32-.133-.695.05-.995l.076-.108L9.87.392c.169-.212.413-.348.68-.383L10.684 0h8.891zm-4.175 5.217l3.333-4.174h-8.048l-3.34 4.174h8.055z"/>
        <path d="M10.435 21.913c.256 0 .469.185.513.428l.009.094v2.087c0 .288-.234.521-.522.521-.256 0-.47-.184-.514-.427l-.008-.094v-2.087c0-.288.234-.522.522-.522zM22.957 3.913c.256 0 .469.185.513.428l.008.094V20.87c0 .537-.407.98-.93 1.037l-.113.006h-5.74c-.287 0-.521-.234-.521-.522 0-.256.184-.469.428-.513l.094-.008h5.739V4.435c0-.288.233-.522.522-.522z"/>
        <path d="M16.696 3.913c.256 0 .469.185.513.428l.008.094V21.39c0 .256-.184.47-.428.514l-.093.008h-1.562c-.289 0-.522-.234-.522-.522 0-.256.184-.469.428-.513l.094-.008 1.04-.001V4.435c0-.256.184-.47.428-.514l.094-.008zM7.304 5.217c.256 0 .47.185.514.428l.008.094v8.348c0 .288-.233.522-.522.522-.256 0-.469-.185-.513-.428l-.008-.094V5.739c0-.288.233-.522.521-.522zM18.783 6.26c.256 0 .469.185.513.429l.008.094v1.043c0 .288-.233.522-.521.522-.257 0-.47-.185-.514-.428l-.008-.094V6.783c0-.289.233-.522.522-.522zM20.87 6.26c.256 0 .469.185.513.429l.008.094v1.043c0 .288-.233.522-.521.522-.257 0-.47-.185-.514-.428l-.008-.094V6.783c0-.289.233-.522.522-.522zM18.783 10.435c.256 0 .469.184.513.428l.008.094V12c0 .288-.233.522-.521.522-.257 0-.47-.185-.514-.428L18.261 12v-1.043c0-.289.233-.522.522-.522zM20.87 10.435c.256 0 .469.184.513.428l.008.094V12c0 .288-.233.522-.521.522-.257 0-.47-.185-.514-.428L20.348 12v-1.043c0-.289.233-.522.522-.522zM18.783 14.609c.256 0 .469.184.513.428l.008.093v1.044c0 .288-.233.522-.521.522-.257 0-.47-.185-.514-.428l-.008-.094V15.13c0-.288.233-.521.522-.521zM20.87 14.609c.256 0 .469.184.513.428l.008.093v1.044c0 .288-.233.522-.521.522-.257 0-.47-.185-.514-.428l-.008-.094V15.13c0-.288.233-.521.522-.521z"/>
    </g>
</svg>
