<svg xmlns="http://www.w3.org/2000/svg" version="1.1" xmlns:xlink="http://www.w3.org/1999/xlink" xmlns:svgjs="http://svgjs.com/svgjs" viewBox="0 0 48 48" width="48" height="48"><g transform="matrix(2,0,0,2,0,0)"><path d="M9.5,3.5v8L4.7,19.354A2,2,0,0,0,6.342,22.5H17.658A2,2,0,0,0,19.3,19.354L14.5,11.5v-8" fill="none" stroke="#000000" stroke-linecap="round" stroke-linejoin="round"></path><path d="M16.5,2.5a1,1,0,0,1-1,1h-7a1,1,0,0,1,0-2h7A1,1,0,0,1,16.5,2.5Z" fill="none" stroke="#000000" stroke-linecap="round" stroke-linejoin="round"></path><path d="M14.5 5.5L12.5 5.5" fill="none" stroke="#000000" stroke-linecap="round" stroke-linejoin="round"></path><path d="M14.5 9.5L12.5 9.5" fill="none" stroke="#000000" stroke-linecap="round" stroke-linejoin="round"></path><path d="M14.5 7.5L11.5 7.5" fill="none" stroke="#000000" stroke-linecap="round" stroke-linejoin="round"></path><path d="M7.057 15.5L16.943 15.5" fill="none" stroke="#000000" stroke-linecap="round" stroke-linejoin="round"></path><path d="M8.000 19.000 A1.500 1.500 0 1 0 11.000 19.000 A1.500 1.500 0 1 0 8.000 19.000 Z" fill="none" stroke="#000000" stroke-linecap="round" stroke-linejoin="round"></path><path d="M15.5,20.25a.25.25,0,0,1,.25.25" fill="none" stroke="#000000" stroke-linecap="round" stroke-linejoin="round"></path><path d="M15.25,20.5a.25.25,0,0,1,.25-.25" fill="none" stroke="#000000" stroke-linecap="round" stroke-linejoin="round"></path><path d="M15.5,20.75a.25.25,0,0,1-.25-.25" fill="none" stroke="#000000" stroke-linecap="round" stroke-linejoin="round"></path><path d="M15.75,20.5a.25.25,0,0,1-.25.25" fill="none" stroke="#000000" stroke-linecap="round" stroke-linejoin="round"></path><path d="M13.5,17.25a.25.25,0,0,1,.25.25" fill="none" stroke="#000000" stroke-linecap="round" stroke-linejoin="round"></path><path d="M13.25,17.5a.25.25,0,0,1,.25-.25" fill="none" stroke="#000000" stroke-linecap="round" stroke-linejoin="round"></path><path d="M13.5,17.75a.25.25,0,0,1-.25-.25" fill="none" stroke="#000000" stroke-linecap="round" stroke-linejoin="round"></path><path d="M13.75,17.5a.25.25,0,0,1-.25.25" fill="none" stroke="#000000" stroke-linecap="round" stroke-linejoin="round"></path></g></svg>