<svg xmlns="http://www.w3.org/2000/svg" width="24" height="24" viewBox="0 0 24 24">
    <g fill="#000" fill-rule="nonzero">
        <path d="M11.868 1.002c6.119 0 11.077 4.958 11.077 11.077s-4.958 11.077-11.077 11.077S.791 18.171.791 12.079C.791 5.96 5.75 1.002 11.868 1.002zm0-.791A11.852 11.852 0 0 0 0 12.079a11.852 11.852 0 0 0 11.868 11.868A11.852 11.852 0 0 0 23.736 12.08 11.852 11.852 0 0 0 11.868.211z"/>
        <path d="M10.523 11.05v-.395a4.979 4.979 0 0 1 1.108-.29c.21-.053.448-.08.66-.106.21-.026.421-.052.58-.052l.21.131L12 15.481h.844v.422c-.106.08-.237.132-.37.211-.131.053-.29.132-.448.185-.158.053-.316.079-.474.105-.159.027-.317.053-.449.053-.316 0-.5-.053-.633-.184-.105-.106-.184-.238-.184-.37 0-.158 0-.316.026-.474.026-.159.053-.317.106-.502l.817-3.718-.712-.158zm1.002-2.69c0-.263.08-.474.264-.633.185-.158.422-.237.686-.237.29 0 .554.08.712.237.184.159.264.37.264.633 0 .264-.08.449-.264.607-.185.158-.422.237-.712.237s-.501-.079-.686-.237a.764.764 0 0 1-.264-.607z"/>
    </g>
</svg>
