<?xml version="1.0" encoding="UTF-8"?>
<svg width="24px" height="24px" viewBox="0 0 24 24" version="1.1" xmlns="http://www.w3.org/2000/svg" xmlns:xlink="http://www.w3.org/1999/xlink">
    <!-- Generator: Sketch 49.3 (51167) - http://www.bohemiancoding.com/sketch -->
    <title>Shape</title>
    <desc>Created with Sketch.</desc>
    <defs></defs>
    <g id="Page-1" stroke="none" stroke-width="1" fill="none" fill-rule="evenodd">
        <g id="location" fill="#545454" fill-rule="nonzero">
            <path d="M12,7.636 C9.59256544,7.64259274 7.64259274,9.59256544 7.636,12 C7.636,14.4 9.6,16.364 12,16.364 C14.4,16.364 16.364,14.4 16.364,12 C16.364,9.6 14.4,7.636 12,7.636 Z M21.71,10.909 C21.164,6.327 17.564,2.727 13.09,2.291 L13.09,0 L10.91,0 L10.91,2.29 C6.33704795,2.71533674 2.71533674,6.33704795 2.29,10.91 L0,10.91 L0,13.09 L2.29,13.09 C2.836,17.673 6.436,21.273 10.91,21.71 L10.91,24 L13.09,24 L13.09,21.71 C17.673,21.164 21.273,17.564 21.71,13.09 L24,13.09 L24,10.91 L21.71,10.91 L21.71,10.909 Z M12,19.636 C9.97105078,19.6483344 8.02162955,18.847791 6.58691928,17.4130807 C5.15220902,15.9783704 4.35166562,14.0289492 4.364,12 C4.35166562,9.97105078 5.15220902,8.02162955 6.58691928,6.58691928 C8.02162955,5.15220902 9.97105078,4.35166562 12,4.364 C14.0289492,4.35166562 15.9783704,5.15220902 17.4130807,6.58691928 C18.847791,8.02162955 19.6483344,9.97105078 19.636,12 C19.6483344,14.0289492 18.847791,15.9783704 17.4130807,17.4130807 C15.9783704,18.847791 14.0289492,19.6483344 12,19.636 Z" id="Shape"></path>
        </g>
    </g>
</svg>