<?xml version="1.0" encoding="UTF-8"?>
<svg width="40px" height="40px" viewBox="0 0 40 40" version="1.1" xmlns="http://www.w3.org/2000/svg" xmlns:xlink="http://www.w3.org/1999/xlink">
    <title>C3B8C111-49CF-44D5-911A-4B8C777F670B</title>
    <defs>
        <circle id="path-1" cx="20" cy="20" r="20"></circle>
        <filter x="-21.2%" y="-16.2%" width="142.5%" height="142.5%" filterUnits="objectBoundingBox" id="filter-2">
            <feOffset dx="0" dy="2" in="SourceAlpha" result="shadowOffsetOuter1"></feOffset>
            <feGaussianBlur stdDeviation="2.5" in="shadowOffsetOuter1" result="shadowBlurOuter1"></feGaussianBlur>
            <feComposite in="shadowBlurOuter1" in2="SourceAlpha" operator="out" result="shadowBlurOuter1"></feComposite>
            <feColorMatrix values="0 0 0 0 0   0 0 0 0 0   0 0 0 0 0  0 0 0 0.2 0" type="matrix" in="shadowBlurOuter1"></feColorMatrix>
        </filter>
    </defs>
    <g id="FMC-Main" stroke="none" stroke-width="1" fill="none" fill-rule="evenodd">
        <g id="Apps/HBI/map/kataster-no-legend-mobile" transform="translate(-303.000000, -355.000000)">
            <g id="basics/button/map/button-map-location-default" transform="translate(303.000000, 355.000000)">
                <g id="background-button-round">
                    <use fill="black" fill-opacity="1" filter="url(#filter-2)" xlink:href="#path-1"></use>
                    <circle stroke="#545454" stroke-width="1" stroke-linejoin="square" fill="#FFFFFF" fill-rule="evenodd" cx="20" cy="20" r="19.5"></circle>
                </g>
                <g id="basics/icon/icon-location" fill="#545454">
                    <path d="M8.52173913,20.5217391 C8.23359057,20.5217391 8,20.2881486 8,20 C8,19.7438679 8.18456538,19.5308434 8.42795586,19.4866668 L8.52173913,19.4782609 L11.1454914,19.4788457 C11.4052719,14.9953365 14.9953365,11.4052719 19.4788457,11.1454914 L19.4782609,8.52173913 C19.4782609,8.23359057 19.7118514,8 20,8 C20.2561321,8 20.4691566,8.18456538 20.5133332,8.42795586 L20.5217391,8.52173913 L20.5211543,11.1454914 C25.0046635,11.4052719 28.5947281,14.9953365 28.8545086,19.4788457 L31.4782609,19.4782609 C31.7664094,19.4782609 32,19.7118514 32,20 C32,20.2561321 31.8154346,20.4691566 31.5720441,20.5133332 L31.4782609,20.5217391 L28.8545086,20.5211543 C28.5947281,25.0046635 25.0046635,28.5947281 20.5211543,28.8545086 L20.5217391,31.4782609 C20.5217391,31.7664094 20.2881486,32 20,32 C19.7438679,32 19.5308434,31.8154346 19.4866668,31.5720441 L19.4782609,31.4782609 L19.4788457,28.8545086 C14.9953365,28.5947281 11.4052719,25.0046635 11.1454914,20.5211543 L8.52173913,20.5217391 Z M20,12.173913 C15.6777715,12.173913 12.173913,15.6777715 12.173913,20 C12.173913,24.3222285 15.6777715,27.826087 20,27.826087 C24.3222285,27.826087 27.826087,24.3222285 27.826087,20 C27.826087,15.6777715 24.3222285,12.173913 20,12.173913 Z M20,15.826087 C22.3051885,15.826087 24.173913,17.6948115 24.173913,20 C24.173913,22.3051885 22.3051885,24.173913 20,24.173913 C17.6948115,24.173913 15.826087,22.3051885 15.826087,20 C15.826087,17.6948115 17.6948115,15.826087 20,15.826087 Z M20,16.8695652 C18.2711086,16.8695652 16.8695652,18.2711086 16.8695652,20 C16.8695652,21.7288914 18.2711086,23.1304348 20,23.1304348 C21.7288914,23.1304348 23.1304348,21.7288914 23.1304348,20 C23.1304348,18.2711086 21.7288914,16.8695652 20,16.8695652 Z" id="icon"></path>
                </g>
            </g>
        </g>
    </g>
</svg>