<svg width="40" height="40" xmlns="http://www.w3.org/2000/svg" xmlns:xlink="http://www.w3.org/1999/xlink"><defs><filter x="-21.2%" y="-16.2%" width="142.5%" height="142.5%" filterUnits="objectBoundingBox" id="a"><feOffset dy="2" in="SourceAlpha" result="shadowOffsetOuter1"/><feGaussianBlur stdDeviation="2.5" in="shadowOffsetOuter1" result="shadowBlurOuter1"/><feComposite in="shadowBlurOuter1" in2="SourceAlpha" operator="out" result="shadowBlurOuter1"/><feColorMatrix values="0 0 0 0 0 0 0 0 0 0 0 0 0 0 0 0 0 0 0.2 0" in="shadowBlurOuter1"/></filter><circle id="b" cx="20" cy="20" r="20"/></defs><g fill="none" fill-rule="evenodd"><g><use fill="#000" filter="url(#a)" xlink:href="#b"/><circle stroke="#545454" stroke-linejoin="square" fill="#FFF" cx="20" cy="20" r="19.5"/></g><g stroke-linecap="round" stroke-linejoin="round"><g stroke="#545454" stroke-width=".889"><path d="M20.584 25.14a5.333 5.333 0 1 0 10.667 0 5.333 5.333 0 0 0-10.667 0Z"/><path d="M25.917 27.806v-3.11a.444.444 0 0 0-.444-.445h-.889M25.25 22.029a.222.222 0 1 1 0 .444.222.222 0 0 1 0-.444M24.584 27.807h2.666"/></g><g stroke="#445454"><path d="m18.856 27.944-3.288 2.22a.51.51 0 0 1-.593 0l-6.63-4.734a.51.51 0 0 1-.214-.415V9.948a.51.51 0 0 1 .807-.415l6.333 4.523 6.844-4.888a.51.51 0 0 1 .593 0l6.63 4.735a.51.51 0 0 1 .214.416v4.041M15.271 14.056v16.205M22.412 17.889V9.073" stroke-width="1.02"/><path stroke-width=".889" d="M9.917 15.362h.445M9.917 18.029h.889M9.917 20.695h1.334M9.917 23.362h.889"/></g></g></g></svg>