<?xml version="1.0" encoding="UTF-8"?>
<svg width="40px" height="40px" viewBox="0 0 40 40" version="1.1" xmlns="http://www.w3.org/2000/svg"
  xmlns:xlink="http://www.w3.org/1999/xlink">
  <title>B2740935-CDFB-44E0-A95A-DF4D2EC0B091</title>
  <defs>
    <circle id="path-1" cx="20" cy="20" r="20"></circle>
    <filter x="-21.2%" y="-16.2%" width="142.5%" height="142.5%" filterUnits="objectBoundingBox" id="filter-2">
      <feOffset dx="0" dy="2" in="SourceAlpha" result="shadowOffsetOuter1"></feOffset>
      <feGaussianBlur stdDeviation="2.5" in="shadowOffsetOuter1" result="shadowBlurOuter1"></feGaussianBlur>
      <feComposite in="shadowBlurOuter1" in2="SourceAlpha" operator="out" result="shadowBlurOuter1"></feComposite>
      <feColorMatrix values="0 0 0 0 0   0 0 0 0 0   0 0 0 0 0  0 0 0 0.2 0" type="matrix" in="shadowBlurOuter1">
      </feColorMatrix>
    </filter>
  </defs>
  <g id="FMC-Main" stroke="none" stroke-width="1" fill="none" fill-rule="evenodd">
    <g id="Apps/HBI/map/kataster-no-legend-mobile" transform="translate(-303.000000, -299.000000)">
      <g id="basics/button/map/button-map-legend" transform="translate(303.000000, 299.000000)">
        <g id="background-button-round">
          <use fill="black" fill-opacity="1" filter="url(#filter-2)" xlink:href="#path-1"></use>
          <circle stroke="#545454" stroke-width="1" stroke-linejoin="square" fill="#FFFFFF" fill-rule="evenodd" cx="20"
            cy="20" r="19.5"></circle>
        </g>
        <g id="basics/icon/icon-legend" stroke-linecap="round" stroke-linejoin="round">
          <g id="Group">
            <g transform="translate(8.000000, 9.000000)">
              <g id="streamline-icon-common-file-text-info@140x140" transform="translate(12.444444, 10.666667)"
                stroke="#545454" stroke-width="0.888888889">
                <path
                  d="M0.13968254,5.47301587 C0.13968254,8.41853454 2.52749721,10.8063492 5.47301587,10.8063492 C8.41853454,10.8063492 10.8063492,8.41853454 10.8063492,5.47301587 C10.8063492,2.52749721 8.41853454,0.13968254 5.47301587,0.13968254 C2.52749721,0.13968254 0.13968254,2.52749721 0.13968254,5.47301587 Z"
                  id="Path"></path>
                <path
                  d="M5.47301587,8.13968254 L5.47301587,5.02857143 C5.47301587,4.78311154 5.27403132,4.58412698 5.02857143,4.58412698 L4.13968254,4.58412698"
                  id="Path"></path>
                <path
                  d="M4.80634921,2.36190476 C4.92907915,2.36190476 5.02857143,2.46139704 5.02857143,2.58412698 C5.02857143,2.70685693 4.92907915,2.80634921 4.80634921,2.80634921 C4.68361926,2.80634921 4.58412698,2.70685693 4.58412698,2.58412698 C4.58412698,2.46139704 4.68361926,2.36190476 4.80634921,2.36190476"
                  id="Path"></path>
                <line x1="4.13968254" y1="8.13968254" x2="6.80634921" y2="8.13968254" id="Path"></line>
              </g>
              <g id="streamline-icon-maps@140x140" stroke="#445454">
                <path
                  d="M10.856102,18.9435337 L7.56823315,21.1648816 C7.39073421,21.2919178 7.15207089,21.2919178 6.97457195,21.1648816 L0.344335155,16.4298725 C0.210412334,16.3340239 0.131147372,16.179406 0.131147372,16.0147177 L0.131147372,0.947759563 C0.131147372,0.756552826 0.237798706,0.581321421 0.407819094,0.493839376 C0.577839481,0.406357331 0.782509177,0.421322315 0.937996357,0.532604736 L7.27140255,5.0564663 L14.114827,0.16845173 C14.2923259,0.0414155672 14.5309892,0.0414155672 14.7084882,0.16845173 L21.338725,4.90346084 C21.4726478,4.99930945 21.5519127,5.15392729 21.5519127,5.31861566 L21.5519127,9.36"
                  id="Path" stroke-width="1.02003643"></path>
                <line x1="7.27140255" y1="5.0564663" x2="7.27140255" y2="21.260765" id="Path" stroke-width="1.02003643">
                </line>
                <line x1="14.4116576" y1="8.88888889" x2="14.4116578" y2="0.072568" id="Path" stroke-width="1.02003643">
                </line>
                <line x1="1.91746032" y1="6.36190476" x2="2.36190476" y2="6.36190476" id="Path-Copy-2"
                  stroke-width="0.888888889"></line>
                <line x1="1.91746032" y1="9.02857143" x2="2.80634921" y2="9.02857143" id="Path-Copy-2"
                  stroke-width="0.888888889"></line>
                <line x1="1.91746032" y1="11.6952381" x2="3.25079365" y2="11.6952381" id="Path-Copy-2"
                  stroke-width="0.888888889"></line>
                <line x1="1.91746032" y1="14.3619048" x2="2.80634921" y2="14.3619048" id="Path-Copy-3"
                  stroke-width="0.888888889"></line>
              </g>
            </g>
          </g>
        </g>
      </g>
    </g>
  </g>
</svg>
