<svg xmlns="http://www.w3.org/2000/svg" width="24" height="22" viewBox="0 0 24 22">
    <g fill="#000" fill-rule="nonzero">
        <path d="M15.9 6.773l-.06.622a2.14 2.14 0 0 0-.78.276s-.03 0-.03.034l-.3-.518c.03-.034.06-.034.09-.034.36-.242.69-.346 1.08-.38zM13.74 7.982l.3.518c-.21.207-.42.45-.63.725l-.33-.483c.18-.277.42-.518.66-.76zM18.21 7.153l-.24.552c-.3-.103-.57-.207-.84-.276l.06-.622c.3.104.63.208 1.02.346z"/>
        <path d="M0 8.742l3.42 13.023 4.92-3.35 5.7.345 3.78-4.007 6.18-.518-4.65-10.986-5.28-.242-3.54 3.42-.99-.172c-.12.207-.27.483-.42.76l1.26.207 1.08 3.8c-.09.138-.18.31-.27.449a1.89 1.89 0 0 1-.21.31l.36.415c.09-.138.15-.241.24-.38.03-.034.03-.069.06-.103l1.77 6.183-5.25-.31-4.32 2.936-1.38-5.217c.15.07.3.104.45.173l.15-.553c-.3-.103-.57-.207-.81-.31L.81 9.156l2.94-2.141c-.15-.277-.27-.484-.39-.691L0 8.742zm12.18 2.142l.36-.519-.33-.449c-.06.104-.15.208-.21.311l-.9-3.178 3.27-3.144 4.53.139 2.25 5.32c-.09-.07-.21-.173-.3-.242l-.24.518c.33.276.69.553 1.05.864l1.26 3.005-5.31.45-3.51 3.626-1.92-6.701z"/>
        <path d="M3.03 3.627c0 .883.33 1.64.78 2.3.72 1.072 2.64 4.508 2.64 4.508S8.37 7.03 9.09 5.928c.45-.662.78-1.418.78-2.3C9.87 1.641 8.34.034 6.45.034S3.03 1.642 3.03 3.627zm1.56-.252c0-1.071.84-1.954 1.86-1.954s1.86.883 1.86 1.954c0 1.072-.84 1.954-1.86 1.954-1.02-.031-1.86-.882-1.86-1.954zM8.13 16.1l-.15-.622c.24-.138.45-.345.69-.553l.39.45c-.33.276-.63.518-.93.725zM4.59 16.273l-.9-.208.18-.587c.27.07.57.138.84.207l-.12.588zM9.93 14.338l-.39-.449c.21-.276.42-.587.63-.898l.39.449c-.21.31-.42.622-.63.898zM6.78 15.893l.15.587h-.39c-.21 0-.45 0-.69-.035l.12-.587c.3.035.57.035.81.035zM20.22 8.258l-.27.518c-.3-.207-.57-.38-.84-.518l.24-.553c.27.173.57.38.87.553z"/>
    </g>
</svg>
