<svg xmlns="http://www.w3.org/2000/svg" xmlns:xlink="http://www.w3.org/1999/xlink" width="40" height="40" viewBox="0 0 40 40">
    <defs>
        <filter id="prefix__a" width="187.5%" height="187.5%" x="-43.8%" y="-31.2%" filterUnits="objectBoundingBox">
            <feOffset dy="5" in="SourceAlpha" result="shadowOffsetOuter1"/>
            <feGaussianBlur in="shadowOffsetOuter1" result="shadowBlurOuter1" stdDeviation="5"/>
            <feColorMatrix in="shadowBlurOuter1" values="0 0 0 0 0 0 0 0 0 0 0 0 0 0 0 0 0 0 0.2 0"/>
        </filter>
        <circle id="prefix__b" cx="20" cy="20" r="20"/>
    </defs>
    <g fill="none" fill-rule="evenodd">
        <use fill="#000" xlink:href="#prefix__b" id="menubutton"/>
        <use fill="#353535" xlink:href="#prefix__b"/>
        <g fill="#FFF">
            <path d="M25.478 23c.288 0 .522.224.522.5 0 .245-.185.45-.428.492l-.094.008H14.522c-.288 0-.522-.224-.522-.5 0-.245.185-.45.428-.492l.094-.008h10.956zm0-4c.288 0 .522.224.522.5 0 .245-.185.45-.428.492l-.094.008H14.522c-.288 0-.522-.224-.522-.5 0-.245.185-.45.428-.492l.094-.008h10.956zm0-4c.288 0 .522.224.522.5 0 .245-.185.45-.428.492l-.094.008H14.522c-.288 0-.522-.224-.522-.5 0-.245.185-.45.428-.492l.094-.008h10.956z"/>
        </g>
    </g>
</svg>
