<?xml version="1.0" encoding="UTF-8"?>
<svg width="32px" height="21px" viewBox="0 0 32 21" version="1.1" xmlns="http://www.w3.org/2000/svg" xmlns:xlink="http://www.w3.org/1999/xlink">
    <!-- Generator: sketchtool 52.5 (67469) - http://www.bohemiancoding.com/sketch -->
    <title>4CFE713B-4A7D-4396-80D6-BE2018AEFC69</title>
    <desc>Created with sketchtool.</desc>
    <g id="Meldedialog-simple" stroke="none" stroke-width="1" fill="none" fill-rule="evenodd">
        <g id="Sidebar/meldedialog" transform="translate(-21.000000, -273.000000)">
            <g id="noun_Bicycle_1408699" transform="translate(21.000000, 273.000000)">
                <g id="Group">
                    <g>
                        <path d="M26.6475982,15.7915122 C26.6475982,15.5741628 26.8289978,15.3962159 27.0505644,15.3962159 C27.2708353,15.3962159 27.4522349,15.5741628 27.4522349,15.7915122 L27.4522349,19.0708185 L26.6475982,19.0708185 L26.6475982,15.7915122 Z M17.7162603,16.1524901 L17.7162603,16.151219 L21.5424958,16.151219 C21.7303739,16.151219 21.9014078,16.0444509 21.9817419,15.8766724 C22.062076,15.710165 22.0348661,15.5118814 21.9156606,15.3695239 L20.1781118,13.319322 C20.3335972,13.295172 20.4890825,13.2735642 20.6510464,13.2735642 C22.2693898,13.2735642 23.5871281,14.5649499 23.5871281,16.1524901 C23.5871281,17.7400302 22.2693898,19.0314159 20.6510464,19.0314159 C19.032703,19.0314159 17.7162603,17.7400302 17.7162603,16.1524901 Z M19.2050326,13.6625052 L20.5059268,15.1979323 L17.8950685,15.1979323 C18.1321837,14.5433421 18.5986398,14.0031463 19.2050326,13.6625052 Z M16.3155965,15.1979323 L17.6229691,11.7940632 L18.5753169,12.9189415 C17.7460617,13.4324453 17.134486,14.2421035 16.883118,15.1979323 L16.3155965,15.1979323 Z M12.0164265,11.3275883 L16.7639126,11.3275883 L15.4241471,14.8166176 L11.9633023,11.4368985 L12.0164265,11.3275883 Z M12.1991217,16.1524901 C12.1991217,17.7400302 10.882679,19.0314159 9.26433566,19.0314159 C8.73827687,19.0314159 8.25108941,18.8839743 7.82350472,18.6450171 L7.82350472,16.5490573 C7.82350472,16.2376503 7.7651977,15.9351407 7.65247081,15.6491547 C7.55529247,15.4038422 7.27282741,15.2830926 7.02275516,15.3784213 C6.77268284,15.4737499 6.6482946,15.7508386 6.74676863,15.996151 C6.81544137,16.1702848 6.85172124,16.357129 6.85172124,16.5490573 L6.85172124,17.785788 C6.52390628,17.3205841 6.32825389,16.7587804 6.32825389,16.1524901 C6.32825389,15.3682529 6.64440746,14.6361287 7.21581615,14.0895776 C7.76649339,13.5633634 8.49338745,13.2735642 9.26433566,13.2735642 C9.50404225,13.2735642 9.73338311,13.3091536 9.95624546,13.3625376 L8.82508956,15.7012677 C8.70977121,15.9389538 8.81342814,16.2236688 9.05572618,16.3367922 C9.12439886,16.3672973 9.19436722,16.3825499 9.26433566,16.3825499 C9.44573523,16.3825499 9.61936053,16.2821371 9.70358176,16.1092744 L10.851582,13.7374971 C11.6601058,14.2510008 12.1991217,15.138193 12.1991217,16.1524901 Z M3.70314284,16.5490573 C3.70314284,15.6974545 4.40930549,15.0047329 5.27743205,15.0047329 C5.36813184,15.0047329 5.45753592,15.0187144 5.54434857,15.033967 C5.4329174,15.3936738 5.35647044,15.7648201 5.35647044,16.1524901 C5.35647044,17.3269393 5.90973916,18.3666573 6.76102149,19.0708185 L3.70314284,19.0708185 L3.70314284,16.5490573 Z M24.7856611,6.07688503 L29.3167635,6.07688503 L29.3167635,0.953286713 L24.7856611,0.953286713 L24.7856611,6.07688503 Z M28.4240184,19.0708185 L28.4240184,15.7915122 C28.4240184,15.216998 28.053445,14.7327284 27.5364561,14.539529 L27.5364561,7.0289007 L29.8026552,7.0289007 C30.0708674,7.0289007 30.2885469,6.81536448 30.2885469,6.55225734 L30.2885469,0.476643357 C30.2885469,0.213536224 30.0708674,0 29.8026552,0 L24.2997694,0 C24.0302615,0 23.8125819,0.213536224 23.8125819,0.476643357 L23.8125819,6.55225734 C23.8125819,6.81536448 24.0302615,7.0289007 24.2997694,7.0289007 L26.5646727,7.0289007 L26.5646727,14.539529 C26.0463882,14.7327284 25.6758147,15.216998 25.6758147,15.7915122 L25.6758147,19.0708185 L23.1543606,19.0708185 C24.0056429,18.3666573 24.5589116,17.3269393 24.5589116,16.1524901 C24.5589116,14.0387357 22.8058143,12.3202775 20.6510464,12.3202775 C20.2454888,12.3202775 19.8619583,12.3978115 19.4939762,12.5109348 L18.0168654,10.7683267 L18.4522244,9.6358221 L19.1337685,9.6358221 C19.4019807,9.6358221 19.6196602,9.42228587 19.6196602,9.15917874 C19.6196602,8.89607161 19.4019807,8.68253538 19.1337685,8.68253538 L16.5488245,8.68253538 C16.2806122,8.68253538 16.0629328,8.89607161 16.0629328,9.15917874 C16.0629328,9.42228587 16.2806122,9.6358221 16.5488245,9.6358221 L17.4143596,9.6358221 L17.1305988,10.3743015 L12.4764039,10.3743015 L12.6409593,10.0336604 C12.7122234,9.88621874 12.7018577,9.71335608 12.6137493,9.57481175 C12.5243452,9.43626741 12.3688599,9.35364923 12.2030089,9.35364923 L11.6445573,9.35364923 C11.4761148,9.35364923 11.3348823,9.21383385 11.3348823,9.04859748 C11.3348823,8.88081902 11.4735234,8.74481678 11.6445573,8.74481678 L13.3263906,8.74481678 C13.5946027,8.74481678 13.8122823,8.53128056 13.8122823,8.26817343 C13.8122823,8.00506629 13.5946027,7.79153007 13.3263906,7.79153007 L11.6445573,7.79153007 C10.9370989,7.79153007 10.3630988,8.35460476 10.3630988,9.04859748 C10.3630988,9.67522462 10.8308506,10.1950836 11.4424263,10.2904123 L11.2986024,10.5865667 C11.2700967,10.6285113 11.2467739,10.672998 11.2338168,10.72384 L10.3747602,12.4969533 C10.0210311,12.3927273 9.65304902,12.3202775 9.26433566,12.3202775 C8.23942806,12.3202775 7.27153172,12.7054053 6.53686339,13.4070243 C6.30363538,13.630729 6.11316583,13.8836677 5.94601907,14.1493169 C5.72833958,14.0908487 5.50806866,14.0514462 5.27743205,14.0514462 C3.87417673,14.0514462 2.73135938,15.1725113 2.73135938,16.5490573 L2.73135938,19.0708185 L0.485891732,19.0708185 C0.217679496,19.0708185 0,19.2843547 0,19.5474618 C0,19.810569 0.217679496,20.0241052 0.485891732,20.0241052 L3.12655132,20.0241052 C3.15635268,20.0291894 3.18615404,20.0418999 3.21725111,20.0418999 C3.24834818,20.0418999 3.27814954,20.0291894 3.3079509,20.0241052 L7.24561751,20.0241052 C7.27671455,20.0291894 7.30522022,20.0418999 7.33761302,20.0418999 C7.36871006,20.0418999 7.39851142,20.0291894 7.42831277,20.0241052 L12.9273115,20.0241052 C13.1955237,20.0241052 13.4132032,19.810569 13.4132032,19.5474618 C13.4132032,19.2843547 13.1955237,19.0708185 12.9273115,19.0708185 L11.7663541,19.0708185 C12.6176364,18.3666573 13.1709052,17.3269393 13.1709052,16.1524901 C13.1709052,14.7594204 12.4012527,13.5493818 11.2662096,12.878268 L11.5214647,12.3507827 L15.2712532,16.0114036 C15.2725489,16.0126747 15.2751403,16.0139457 15.276436,16.0152168 C15.294576,16.0330115 15.3204902,16.0431799 15.3412216,16.0584324 C15.3736144,16.0800403 15.40212,16.1029192 15.4371042,16.1169007 C15.4396957,16.1169007 15.4409914,16.1194428 15.4435827,16.1207138 C15.4992984,16.1410506 15.5563096,16.151219 15.613321,16.151219 L16.7444769,16.151219 L16.7444769,16.1524901 C16.7444769,17.3269393 17.2977456,18.3666573 18.1490279,19.0708185 L16.4542375,19.0708185 C16.1860253,19.0708185 15.9683458,19.2843547 15.9683458,19.5474618 C15.9683458,19.810569 16.1860253,20.0241052 16.4542375,20.0241052 L26.0710067,20.0241052 C26.100808,20.0291894 26.1306094,20.0418999 26.1617065,20.0418999 L27.9381267,20.0418999 C27.9705194,20.0418999 27.9990251,20.0291894 28.0288264,20.0241052 L31.3121588,20.0241052 C31.580371,20.0241052 31.7980506,19.810569 31.7980506,19.5474618 C31.7980506,19.2843547 31.580371,19.0708185 31.3121588,19.0708185 L28.4240184,19.0708185 Z" id="Shape" fill="#000000" fill-rule="nonzero"></path>
                        <path d="M27.7583061,2.7941116 C27.7583061,2.86032239 27.6970605,2.91789699 27.6266279,2.91789699 L27.1443185,2.91789699 L27.1443185,2.4443459 L27.6266279,2.4443459 C27.6985916,2.4443459 27.7583061,2.50048114 27.7583061,2.56813129 L27.7583061,2.7941116 Z M27.6266279,1.36482213 L26.5701405,1.36482213 C26.2531942,1.36482213 25.9959625,1.60663545 25.9959625,1.90458401 L25.9959625,4.65233185 C25.9959625,4.95028041 26.2531942,5.19209374 26.5701405,5.19209374 C26.8870867,5.19209374 27.1443185,4.95028041 27.1443185,4.65233185 L27.1443185,3.99742076 L27.6266279,3.99742076 C28.3324841,3.99742076 28.9066621,3.45765888 28.9066621,2.7941116 L28.9066621,2.56813129 C28.9066621,1.90458401 28.3324841,1.36482213 27.6266279,1.36482213 Z" id="Shape" fill="#FFFFFF" fill-rule="nonzero"></path>
                        <path d="M15.1375133,18.584088 C15.4057254,18.584088 15.623405,18.3705517 15.623405,18.1074446 C15.623405,17.8443375 15.4057254,17.6308013 15.1375133,17.6308013 L14.4818833,17.6308013 C14.2136711,17.6308013 13.9959916,17.8443375 13.9959916,18.1074446 C13.9959916,18.3705517 14.2136711,18.584088 14.4818833,18.584088 L15.1375133,18.584088 Z" id="Path" fill="#000000"></path>
                    </g>
                </g>
            </g>
        </g>
    </g>
</svg>