<?xml version="1.0" encoding="UTF-8"?>
<svg width="19px" height="24px" viewBox="0 0 19 24" version="1.1" xmlns="http://www.w3.org/2000/svg" xmlns:xlink="http://www.w3.org/1999/xlink">
    <defs></defs>
    <g id="Symbols" stroke="none" stroke-width="1" fill="none" fill-rule="evenodd">
        <g id="icon-phase-planung" transform="translate(-3.000000, 0.000000)" fill-rule="nonzero">
            <g id="planung" transform="translate(3.000000, 0.000000)">
                <path d="M7.05,22.75 C7.05,22.5 7.15,21.89 7.32,21.89 C8.23,21.89 17.53,21.9 18.44,21.9 C18.61,21.9 18.73,22.51 18.73,22.77 C18.73,23.06 18.61,23.63 18.44,23.63 C17.84,23.63 12.79,23.62 7.32,23.61 C7.14,23.23 7.05,22.94 7.05,22.75 Z" id="a3idsNi29X" fill="#CF0A7D"></path>
                <path d="M8.35,5.91 C7.59,7.15 1.46,17.02 0.7,18.26 C0.62,18.38 0.57,18.52 0.56,18.66 C0.52,19.15 0.18,23.02 0.14,23.51 C0.13,23.61 0.17,23.7 0.26,23.75 C0.34,23.81 0.44,23.81 0.53,23.76 C0.94,23.5 4.25,21.5 4.66,21.24 C4.79,21.18 4.89,21.07 4.96,20.94 C5.73,19.71 11.85,9.83 12.62,8.6 C12.69,8.47 12.67,8.37 12.55,8.29 C12.29,8.13 10.99,7.31 8.65,5.84 C8.5,5.81 8.4,5.83 8.35,5.91 Z" id="eXIsImx7X" fill="#CF0A7D"></path>
                <path d="M15.12,4.56 C14.97,4.8 13.79,6.7 13.64,6.94 C13.56,7.07 13.46,7.09 13.34,7.01 C12.95,6.77 9.84,4.8 9.45,4.56 C9.32,4.48 9.3,4.38 9.38,4.26 C9.53,4.02 10.71,2.11 10.86,1.87 C11.67,0.56 12.57,0.35 13.87,1.17 C13.93,1.21 14.11,1.24 14.9,1.87 C15.7,2.5 15.93,3.25 15.12,4.56 Z" id="aoov0EjIz" fill="#CF0A7D"></path>
                <path d="M0.87,21.25 C0.88,21.07 0.97,20.14 1.11,18.46 C1.55,18.4 1.79,18.37 1.83,18.36 C2.06,18.33 2.13,18.37 2.21,18.59 C2.24,18.65 2.42,19.13 2.44,19.19 C2.53,19.41 2.64,19.56 2.8,19.66 C2.94,19.75 3.13,19.79 3.36,19.77 C3.43,19.76 3.94,19.72 4.01,19.72 C4.23,19.7 4.3,19.74 4.37,19.96 C4.39,20.01 4.46,20.24 4.6,20.66 L2.22,22.13 C1.61,21.63 1.16,21.34 0.87,21.25 Z" id="dVZ4H2RkU" fill="#FFFFFF"></path>
            </g>
        </g>
    </g>
</svg>