<?xml version="1.0" encoding="UTF-8"?>
<svg width="40px" height="40px" viewBox="0 0 40 40" version="1.1" xmlns="http://www.w3.org/2000/svg" xmlns:xlink="http://www.w3.org/1999/xlink">
    <title>6405F659-2F42-4400-B84A-CE292C6CFE15</title>
    <defs>
        <circle id="path-1" cx="20" cy="20" r="20"></circle>
        <filter x="-21.2%" y="-16.2%" width="142.5%" height="142.5%" filterUnits="objectBoundingBox" id="filter-2">
            <feOffset dx="0" dy="2" in="SourceAlpha" result="shadowOffsetOuter1"></feOffset>
            <feGaussianBlur stdDeviation="2.5" in="shadowOffsetOuter1" result="shadowBlurOuter1"></feGaussianBlur>
            <feComposite in="shadowBlurOuter1" in2="SourceAlpha" operator="out" result="shadowBlurOuter1"></feComposite>
            <feColorMatrix values="0 0 0 0 0   0 0 0 0 0   0 0 0 0 0  0 0 0 0.2 0" type="matrix" in="shadowBlurOuter1"></feColorMatrix>
        </filter>
    </defs>
    <g id="FMC-Main" stroke="none" stroke-width="1" fill="none" fill-rule="evenodd">
        <g id="Apps/HBI/map/legend-incidents" transform="translate(-1234.000000, -23.000000)">
            <g id="basics/button/map/button-map-zoom_in" transform="translate(1234.000000, 23.000000)">
                <g id="background-button-round">
                    <use fill="black" fill-opacity="1" filter="url(#filter-2)" xlink:href="#path-1"></use>
                    <circle stroke="#545454" stroke-width="1" stroke-linejoin="square" fill="#FFFFFF" fill-rule="evenodd" cx="20" cy="20" r="19.5"></circle>
                </g>
                <g id="basics/icon/icon-plus" fill="#545454">
                    <path d="M20,14 C20.2677744,14 20.4904819,14.1929547 20.5366665,14.4474084 L20.5454545,14.5454545 L20.545,19.454 L25.4545455,19.4545455 C25.7557917,19.4545455 26,19.6987538 26,20 C26,20.2677744 25.8070453,20.4904819 25.5525916,20.5366665 L25.4545455,20.5454545 L20.545,20.545 L20.5454545,25.4545455 C20.5454545,25.7557917 20.3012462,26 20,26 C19.7322256,26 19.5095181,25.8070453 19.4633335,25.5525916 L19.4545455,25.4545455 L19.454,20.545 L14.5454545,20.5454545 C14.2442083,20.5454545 14,20.3012462 14,20 C14,19.7322256 14.1929547,19.5095181 14.4474084,19.4633335 L14.5454545,19.4545455 L19.454,19.454 L19.4545455,14.5454545 C19.4545455,14.2442083 19.6987538,14 20,14 Z" id="icon"></path>
                </g>
            </g>
        </g>
    </g>
</svg>