<?xml version="1.0" encoding="UTF-8"?>
<svg width="21px" height="29px" viewBox="0 0 21 29" version="1.1" xmlns="http://www.w3.org/2000/svg" xmlns:xlink="http://www.w3.org/1999/xlink">
    <!-- Generator: sketchtool 51.3 (57544) - http://www.bohemiancoding.com/sketch -->
    <title>A5FB4242-3C80-4B35-8050-42722C91E29C</title>
    <desc>Created with sketchtool.</desc>
    <defs></defs>
    <g id="Symbols" stroke="none" stroke-width="1" fill="none" fill-rule="evenodd">
        <g id="button/slider/projekte-copy-4" transform="translate(-14.000000, -10.000000)" fill="#FFFFFF" fill-rule="nonzero">
            <g id="Group" transform="translate(-0.334407, 0.000000)">
                <path d="M28.4975631,16.5472072 L22.0027053,16.5472072 L23.2532217,11.7501892 C23.4861793,10.8549775 24.3085196,10.2286036 25.2501342,10.2286036 C26.1917488,10.2286036 27.0140891,10.8549775 27.2470467,11.7501892 L28.4975631,16.5472072 Z M29.9884917,22.2668694 L20.5122426,22.2668694 L21.2926506,19.2707905 L29.2076178,19.2707905 L29.9884917,22.2668694 Z M31.4789544,27.9865315 L19.0217799,27.9865315 L19.0776897,27.7730158 L19.5571165,25.9327568 L19.8026538,24.9904527 L30.6976146,24.9904527 L31.4789544,27.9865315 Z M35.288277,35.9812568 C35.288277,37.1617658 34.3135824,38.1182432 33.1105894,38.1182432 L17.3892131,38.1182432 C16.186686,38.1182432 15.2115255,37.1617658 15.2115255,35.9812568 C15.2115255,34.801205 16.186686,33.8447275 17.3892131,33.8447275 L17.4945099,33.8447275 L18.3117252,30.7096577 L32.1880773,30.7096577 L33.0052925,33.8447275 L33.1105894,33.8447275 C34.3135824,33.8447275 35.288277,34.8016622 35.288277,35.9812568 Z" id="Combined-Shape"></path>
            </g>
        </g>
    </g>
</svg>