<svg xmlns="http://www.w3.org/2000/svg" width="24" height="24" viewBox="0 0 24 24">
    <g fill="#000" fill-rule="evenodd">
        <path fill-rule="nonzero" d="M11.868.791c6.119 0 11.077 4.958 11.077 11.077s-4.958 11.077-11.077 11.077S.791 17.96.791 11.868C.791 5.75 5.75.791 11.868.791zm0-.791A11.852 11.852 0 0 0 0 11.868a11.852 11.852 0 0 0 11.868 11.868 11.852 11.852 0 0 0 11.868-11.868A11.852 11.852 0 0 0 11.868 0z"/>
        <path d="M10.796 14.182v-.407c0-.465.085-.852.254-1.161.17-.31.466-.629.889-.959.504-.398.828-.706.974-.926a1.39 1.39 0 0 0 .22-.788c0-.355-.12-.628-.356-.818-.237-.19-.578-.286-1.022-.286-.402 0-.775.057-1.117.171a7.93 7.93 0 0 0-1.003.413l-.533-1.117a5.588 5.588 0 0 1 2.76-.718c.83 0 1.488.204 1.975.61.487.406.73.967.73 1.682 0 .317-.047.6-.14.847a2.432 2.432 0 0 1-.422.708c-.188.224-.513.516-.974.876-.394.309-.657.565-.79.768-.134.203-.2.476-.2.819v.286h-1.245zm-.26 2.025c0-.64.311-.959.933-.959.305 0 .538.084.698.25.161.168.242.404.242.709 0 .3-.082.538-.245.714-.163.175-.394.263-.695.263-.3 0-.53-.086-.692-.257-.16-.171-.24-.412-.24-.72z"/>
    </g>
</svg>
