<svg xmlns="http://www.w3.org/2000/svg" width="26" height="26" viewBox="0 0 26 26">
    <g>
        <path d="M4.28 15.088c-2.559 0-4.633 2.074-4.633 4.633 0 2.558 2.074 4.632 4.632 4.632 2.559 0 4.633-2.074 4.633-4.632 0-2.559-2.074-4.633-4.633-4.633zm0 1.03c1.99 0 3.602 1.613 3.602 3.603 0 1.99-1.613 3.603-3.603 3.603-1.99 0-3.603-1.614-3.603-3.603 0-1.99 1.614-3.603 3.603-3.603zM19.72 15.088c-2.558 0-4.632 2.074-4.632 4.633 0 2.558 2.074 4.632 4.633 4.632 2.558 0 4.632-2.074 4.632-4.632 0-2.559-2.074-4.633-4.632-4.633zm0 1.03c1.99 0 3.604 1.613 3.604 3.603 0 1.99-1.614 3.603-3.603 3.603-1.99 0-3.603-1.614-3.603-3.603 0-1.99 1.613-3.603 3.603-3.603z" transform="translate(1 1)"/>
        <path d="M7.431 11.01c.254-.104.542.01.658.254l.013.029 1.074 2.645 7.478-2.575c.47-.162.867.367.597.77l-.016.024-5.84 7.855-.005.008c-.087.121-.225.206-.388.215l-.031.001H5.436c-.407.001-.776-.238-.942-.61-.16-.358-.101-.774.146-1.074l.03-.034 3.621-4.024-1.143-2.814c-.103-.254.01-.541.255-.658l.028-.013zm2.775 8.197l-1.484-3.653-3.287 3.653h4.77zm5.21-6.329l-5.851 2.015 1.538 3.787 4.313-5.802z" transform="translate(1 1)"/>
        <path d="M18.051 8.927c.276-.069.556.099.625.374.066.266-.087.536-.345.617l-.03.008-1.501.376 3.404 9.24c.094.258-.029.541-.276.65l-.03.012c-.256.094-.54-.029-.649-.276l-.011-.03-3.405-9.241c-.1-.275-.08-.578.057-.836.129-.244.35-.425.613-.504l.046-.013 1.502-.377zM9.426 10.97c.285 0 .515.231.515.515 0 .274-.214.498-.484.514l-.03.001H6.337c-.284 0-.514-.23-.514-.515 0-.274.214-.498.484-.514h3.118zM6.99-.268C4.812.156 3.241 2.062 3.241 4.28c0 2.218 1.57 4.124 3.747 4.547l.069.013c2.016.361 4.015-.645 4.937-2.444l.028-.057 5.928.007c.273 0 .536-.107.729-.3l.962-.962c.386-.386.404-1.005.041-1.412l-.98-1.104-.033-.036c-.191-.197-.455-.309-.73-.31h-5.916l-.029-.057C11.063.344 9.028-.664 6.99-.268zm4.224 3.196c.079.195.267.322.477.322h6.243l.98 1.105-.961.961-6.261-.007c-.21 0-.4.127-.478.322-.647 1.598-2.335 2.514-4.028 2.185-1.693-.33-2.915-1.812-2.915-3.537 0-1.724 1.222-3.207 2.915-3.536 1.693-.33 3.381.587 4.028 2.185z" transform="translate(1 1)"/>
        <path d="M7.882 2.22c-1.137 0-2.058.922-2.058 2.06 0 1.136.921 2.058 2.058 2.058 1.137 0 2.06-.922 2.06-2.059s-.923-2.058-2.06-2.058zm0 1.03c.569 0 1.03.46 1.03 1.03 0 .568-.461 1.029-1.03 1.029-.568 0-1.03-.461-1.03-1.03 0-.568.462-1.029 1.03-1.029z" transform="translate(1 1)"/>
    </g>
</svg>
