<svg width="8" height="200" xmlns="http://www.w3.org/2000/svg"><path style="fill:#f5f5f5;fill-opacity:1;stroke:#000;stroke-width:0;stroke-linecap:butt;stroke-linejoin:miter;stroke-miterlimit:4;stroke-dasharray:none;stroke-dashoffset:0;stroke-opacity:1" d="m.259 118.158.502-2.984 1.164-2.141 4.638-5.73 1.176-1.865-.206-1.683-5.616-7.102L.703 93.95l-.49-2.092-.311-3.3.089 31.156z"/><path style="fill:#fff;fill-opacity:1;stroke:#000;stroke-width:0;stroke-linecap:butt;stroke-linejoin:miter;stroke-miterlimit:4;stroke-dasharray:none;stroke-dashoffset:0;stroke-opacity:1" d="M7.997 575.663v-953.332l-7.763-.053-.04 469.58.491 2.091 1.217 2.704 4.058 5.037 1.576 2.065.207 1.683-1.18 1.866-4.652 5.729-1.168 2.141-.504 2.984-.006 457.5"/><path d="M-275.35 535h466.793c2.312 0 4.646.624 6.44 2.083l5.84 4.747c1.003.816 2.506.813 3.512 0l5.881-4.747c1.8-1.453 4.129-2.083 6.441-2.083h456.984" transform="matrix(0 1 1 0 -534.721 -100.596)" style="fill:none;fill-opacity:1" stroke="#979797" stroke-width=".5" fill="none" fill-rule="evenodd"/></svg>