<?xml version="1.0" encoding="UTF-8" standalone="no"?>
<svg
   width="950"
   height="8"
   viewBox="0 0 950 8"
   version="1.1"
   id="svg11"
   sodipodi:docname="selector-brace.svg"
   inkscape:version="1.1.1 (3bf5ae0d25, 2021-09-20, custom)"
   xmlns:inkscape="http://www.inkscape.org/namespaces/inkscape"
   xmlns:sodipodi="http://sodipodi.sourceforge.net/DTD/sodipodi-0.dtd"
   xmlns="http://www.w3.org/2000/svg"
   xmlns:svg="http://www.w3.org/2000/svg"
   xmlns:rdf="http://www.w3.org/1999/02/22-rdf-syntax-ns#"
   xmlns:cc="http://creativecommons.org/ns#"
   xmlns:dc="http://purl.org/dc/elements/1.1/">
  <sodipodi:namedview
     id="namedview11"
     pagecolor="#ffffff"
     bordercolor="#666666"
     borderopacity="1.0"
     inkscape:pageshadow="2"
     inkscape:pageopacity="0.0"
     inkscape:pagecheckerboard="0"
     showgrid="false"
     inkscape:zoom="42.91239"
     inkscape:cx="475.45709"
     inkscape:cy="3.7634819"
     inkscape:window-width="1920"
     inkscape:window-height="1015"
     inkscape:window-x="1920"
     inkscape:window-y="32"
     inkscape:window-maximized="1"
     inkscape:current-layer="svg11" />
  <!-- Generator: sketchtool 51.1 (57501) - http://www.bohemiancoding.com/sketch -->
  <title
     id="title2">0495C5B3-C0CB-4937-A680-7EA93F481A8A</title>
  <path
     style="fill:#ffffff;stroke:#000000;stroke-width:0;stroke-linecap:butt;stroke-linejoin:miter;stroke-miterlimit:4;stroke-dasharray:none;stroke-dashoffset:0;stroke-opacity:1"
     d="m 456.31757,0.26744101 2.98373,0.50200063 2.14147,1.16457056 5.72906,4.6376092 1.8659,1.1762717 1.68266,-0.2059553 7.10179,-5.6165754 2.70389,-1.21343614 2.09235,-0.49014214 3.2992,-0.31122199 -31.15484,0.0885295 z"
     id="inbound"
     sodipodi:nodetypes="cccccccccccc" />
  <path
     style="fill:#f5f5f5;fill-opacity:1;stroke:#000000;stroke-width:0;stroke-linecap:butt;stroke-linejoin:miter;stroke-miterlimit:4;stroke-dasharray:none;stroke-dashoffset:0;stroke-opacity:1"
     d="M -1.1877132,8.0203719 H 952.14467 l 0.0528,-7.7637167 -469.57905,-0.0402362 -2.09235,0.49168576 -2.70389,1.21725764 -5.0363,4.0573676 -2.06549,1.5768963 -1.68266,0.206604 -1.8659,-1.1799762 -5.72906,-4.6522146 -2.14147,-1.16823822 -2.98373,-0.5035816 -457.4997262,-0.005564"
     id="outbound"
     sodipodi:nodetypes="cccccccccccccc" />
  <defs
     id="defs6" />
  <g
     id="Page-1"
     stroke="none"
     stroke-width="1"
     fill="none"
     fill-rule="evenodd"
     transform="translate(341.29081,-0.74347112)"
     style="fill:none;fill-opacity:1">
    <g
       id="map/zoom1/Zustand"
       transform="translate(-27,-534)"
       stroke="#979797"
       stroke-width="0.5"
       style="fill:none;fill-opacity:1">
      <path
         d="M -275.35003,535 H 191.443 c 2.31239,0 4.64642,0.62379 6.44055,2.08264 l 5.83879,4.74765 c 1.00356,0.81602 2.50658,0.81247 3.51302,0 l 5.88109,-4.74765 C 214.91572,535.63014 217.24461,535 219.557,535 h 456.98426"
         id="Path-2"
         transform="matrix(-1,0,0,1,360.84498,0)"
         style="fill:none;fill-opacity:1"
         sodipodi:nodetypes="cssssssc" />
    </g>
  </g>
  <metadata
     id="metadata266">
    <rdf:RDF>
      <cc:Work
         rdf:about="">
        <dc:title>0495C5B3-C0CB-4937-A680-7EA93F481A8A</dc:title>
      </cc:Work>
    </rdf:RDF>
  </metadata>
</svg>
