<?xml version="1.0" encoding="UTF-8" standalone="no"?>
<svg
   width="8"
   height="200"
   viewBox="0 0 8 200"
   version="1.1"
   id="svg11"
   xmlns="http://www.w3.org/2000/svg"
   xmlns:svg="http://www.w3.org/2000/svg"
   xmlns:rdf="http://www.w3.org/1999/02/22-rdf-syntax-ns#"
   xmlns:cc="http://creativecommons.org/ns#"
   xmlns:dc="http://purl.org/dc/elements/1.1/">
  <!-- Generator: sketchtool 51.1 (57501) - http://www.bohemiancoding.com/sketch -->
  <title
     id="title2">0495C5B3-C0CB-4937-A680-7EA93F481A8A</title>
  <path
     style="fill:#f5f5f5;fill-opacity:1;stroke:#000000;stroke-width:0;stroke-linecap:butt;stroke-linejoin:miter;stroke-miterlimit:4;stroke-dasharray:none;stroke-dashoffset:0;stroke-opacity:1"
     d="m 0.25892527,118.15791 0.50200098,-2.98373 1.16457005,-2.14147 4.637609,-5.72906 1.176274,-1.8659 -0.205957,-1.68266 -5.616576,-7.101784 -1.21343605,-2.70389 -0.49014198,-2.09235 -0.311222,-3.2992 0.08853,31.154834 z"
     id="inbound" />
  <path
     style="fill:#ffffff;fill-opacity:1;stroke:#000000;stroke-width:0;stroke-linecap:butt;stroke-linejoin:miter;stroke-miterlimit:4;stroke-dasharray:none;stroke-dashoffset:0;stroke-opacity:1"
     d="m 7.9972293,575.6632 v -953.33238 l -7.7637202,-0.0528 -0.04024,469.579045 0.491685,2.09235 1.217258,2.70389 4.057363,5.036295 1.5769002,2.06549 0.2066,1.68266 -1.17997,1.8659 -4.6522162,5.72906 -1.168238,2.14147 -0.503582,2.98373 -0.0056,457.49973"
     id="outbound" />
  <defs
     id="defs6" />
  <g
     id="Page-1"
     stroke="none"
     stroke-width="1"
     fill="none"
     fill-rule="evenodd"
     transform="rotate(-90,116.26399,116.98538)"
     style="fill:none;fill-opacity:1">
    <g
       id="map/zoom1/Zustand"
       transform="translate(-27,-534)"
       stroke="#979797"
       stroke-width="0.5"
       style="fill:none;fill-opacity:1">
      <path
         d="M -275.35003,535 H 191.443 c 2.31239,0 4.64642,0.62379 6.44055,2.08264 l 5.83879,4.74765 c 1.00356,0.81602 2.50658,0.81247 3.51302,0 l 5.88109,-4.74765 C 214.91572,535.63014 217.24461,535 219.557,535 h 456.98426"
         id="Path-2"
         transform="matrix(-1,0,0,1,360.84498,0)"
         style="fill:none;fill-opacity:1" />
    </g>
  </g>
  <metadata
     id="metadata266">
    <rdf:RDF>
      <cc:Work
         rdf:about="">
        <dc:title>0495C5B3-C0CB-4937-A680-7EA93F481A8A</dc:title>
      </cc:Work>
    </rdf:RDF>
  </metadata>
</svg>
