<svg width="950" height="8" xmlns="http://www.w3.org/2000/svg"><path style="fill:#fff;stroke:#000;stroke-width:0;stroke-linecap:butt;stroke-linejoin:miter;stroke-miterlimit:4;stroke-dasharray:none;stroke-dashoffset:0;stroke-opacity:1" d="M456.318.267 459.3.77l2.142 1.165 5.729 4.638 1.866 1.176 1.682-.206 7.102-5.617 2.704-1.213 2.092-.49 3.3-.311-31.155.088z"/><path style="fill:#f5f5f5;fill-opacity:1;stroke:#000;stroke-width:0;stroke-linecap:butt;stroke-linejoin:miter;stroke-miterlimit:4;stroke-dasharray:none;stroke-dashoffset:0;stroke-opacity:1" d="M-1.188 8.02h953.333l.052-7.763-469.579-.04-2.092.491-2.704 1.217-5.036 4.058-2.066 1.577-1.682.206-1.866-1.18-5.73-4.652-2.14-1.168-2.984-.504-457.5-.005"/><path d="M-275.35 535h466.793c2.312 0 4.646.624 6.44 2.083l5.84 4.747c1.003.816 2.506.813 3.512 0l5.881-4.747c1.8-1.453 4.129-2.083 6.441-2.083h456.984" transform="matrix(-1 0 0 1 675.136 -534.743)" style="fill:none;fill-opacity:1" stroke="#979797" stroke-width=".5" fill="none" fill-rule="evenodd"/></svg>