<svg xmlns="http://www.w3.org/2000/svg" width="26" height="25" viewBox="0 0 26 25">
    <g>
        <path d="M14.06 9.412c-1.137 0-2.059.922-2.059 2.059s.922 2.058 2.059 2.058 2.059-.921 2.059-2.058c0-1.137-.922-2.06-2.06-2.06zm0 1.03c.568 0 1.03.46 1.03 1.029 0 .568-.462 1.029-1.03 1.029-.569 0-1.03-.46-1.03-1.03 0-.568.461-1.029 1.03-1.029zM6.082 14.766c-.478.276-.772.785-.772 1.337 0 .552.294 1.061.772 1.337.478.276 1.066.276 1.544 0s.772-.785.772-1.337c0-.552-.294-1.061-.772-1.337-.462-.267-1.027-.276-1.496-.027l-.048.027zm1.03.891c.159.092.257.262.257.446s-.098.354-.258.446c-.159.092-.355.092-.514 0-.16-.092-.258-.262-.258-.446s.098-.354.258-.446c.159-.092.355-.092.514 0z" transform="translate(1 1)"/>
        <path d="M12-.367c-.575 0-1.102.32-1.368.828L-.175 21.05c-.25.479-.232 1.053.047 1.514.279.462.779.745 1.318.746h21.619c.54 0 1.04-.282 1.32-.744s.298-1.037.048-1.515L13.367.46c-.265-.508-.792-.827-1.367-.827zm0 1.03c.192 0 .367.106.456.276l10.81 20.588c.082.159.076.35-.017.504-.094.154-.26.248-.44.248H1.19c-.178 0-.345-.094-.438-.248-.093-.154-.099-.345-.016-.505L11.544.94c.089-.17.264-.277.456-.277z" transform="translate(1 1)"/>
        <path d="M9.778 12.526c.26-.086.54.046.64.296l.011.03.28.84c.067.2.248.338.455.351l.033.001h3.464c.391 0 .767.148 1.053.414l.04.038 1.242 1.243c.201.201.201.527 0 .728-.193.193-.5.2-.703.023l-.025-.023-1.242-1.243c-.088-.088-.204-.14-.328-.15h-3.501c-.648-.001-1.225-.406-1.448-1.01l-.016-.047-.28-.84c-.09-.27.056-.56.325-.65zM12.258 16.618c.285 0 .515.23.515.514 0 .274-.214.499-.484.514l-.03.001h-2.195c-.183 0-.352.098-.444.255l-.016.03-.747 1.49c-.127.254-.436.357-.69.23-.245-.123-.35-.415-.243-.663l.013-.028.746-1.49c.253-.507.764-.833 1.328-.852l.053-.001h2.194z" transform="translate(1 1)"/>
        <path d="M13.084 14.329c.127-.255.436-.358.69-.23.245.122.35.413.244.662l-.014.028-1.727 3.454c-.094.188-.064.413.072.57l.024.025 1.02 1.019c.2.2.2.527 0 .728-.194.193-.502.2-.704.023l-.025-.023-1.019-1.02c-.458-.457-.58-1.15-.311-1.736l.022-.047 1.728-3.453z" transform="translate(1 1)"/>
    </g>
</svg>
