<svg xmlns="http://www.w3.org/2000/svg" width="29" height="23" viewBox="0 0 29 23">
    <path fill="#9B9B9B" fill-rule="nonzero" d="M28.793 2.606c-.148-.144-.393-.192-.59-.144l-.983.335c.59-.67.983-1.388 1.229-2.058.098-.24.049-.43-.099-.574a.533.533 0 0 0-.59-.096c-1.376.574-2.555 1.053-3.538 1.34 0 .048-.05 0-.099 0C23.337.98 21.42.021 20.043.021c-3.49.048-6.29 2.92-6.29 6.414v.191C8.64 5.67 5.838 4.233 2.79 1.122L2.3.643l-.295.575c-1.671 3.11-.492 5.935 1.425 7.85-.885-.144-1.474-.431-2.015-.862-.197-.144-.443-.192-.688-.048-.197.096-.295.383-.246.622.688 2.25 2.408 4.069 4.276 5.17-.885 0-1.622-.096-2.36-.575-.196-.096-.49-.096-.687.048-.197.144-.295.383-.197.622.885 2.441 2.605 3.734 5.358 4.069-1.426.813-3.293 1.483-6.193 1.531a.7.7 0 0 0-.64.431c-.098.287 0 .527.197.718 1.77 1.388 5.702 2.202 10.568 2.202 8.65 0 15.729-7.515 15.729-16.753V6.1c1.081-.527 1.966-1.532 2.408-2.92.05-.191 0-.43-.147-.574zm-2.95 2.728l-.294.096v.813c0 8.712-6.636 15.796-14.746 15.796-4.473 0-7.471-.718-9.093-1.484 3.391-.24 5.357-1.293 6.881-2.441l1.229-.862H8.345c-2.801 0-4.522-.766-5.505-2.585.885.288 1.819.288 2.851.24.393-.048.787-.048 1.18-.048l.147-.957c-1.868-.527-4.08-2.154-5.16-4.356.982.43 2.064.527 3.047.527h1.523L5.2 9.21c-1.033-.718-4.08-3.255-2.605-6.892 3.145 3.015 6.144 4.403 11.55 5.36l.59.096v-1.34c0-2.968 2.36-5.409 5.309-5.457 1.13-.048 2.998.958 3.539 1.245.295.143.59.191.884.096.738-.24 1.622-.575 2.605-.958-.442.718-1.032 1.388-1.818 2.01-.197.144-.246.431-.148.67.099.24.394.336.64.24l1.916-.622c-.344.622-.884 1.34-1.818 1.675z"/>
</svg>
