<?xml version="1.0" encoding="UTF-8"?>
<svg width="122px" height="37px" viewBox="0 0 122 37" version="1.1" xmlns="http://www.w3.org/2000/svg" xmlns:xlink="http://www.w3.org/1999/xlink">
    <!-- Generator: sketchtool 51.2 (57519) - http://www.bohemiancoding.com/sketch -->
    <title>AA752A42-F0EC-4BF9-939A-8E99EA10B093</title>
    <desc>Created with sketchtool.</desc>
    <defs>
        <path d="M14.489509,1.58243533 L14.489509,1.5729074 C14.3953194,1.30612533 14.1362978,1.18226222 13.916522,1.2965974 L9.82712098,3.43085397 C9.71723304,3.48802155 9.63874166,3.60235673 9.59164683,3.72621983 C9.50530631,4.00252983 9.61519425,4.30742363 9.84281926,4.4217588 C9.94485805,4.46939846 10.0625951,4.46939846 10.1803322,4.41223087 L14.261884,2.2779743 C14.489509,2.16363913 14.5915478,1.8492174 14.489509,1.58243533 Z M9.56025028,12.0726875 L7.59796574,10.0432382 L6.27931053,10.7197213 C6.01243983,10.8531123 5.71417258,10.7101933 5.60428465,10.3862437 C5.49439671,10.071822 5.61998292,9.70976058 5.87900448,9.57636954 L6.73456054,9.13808471 L5.36096136,7.71842297 L3.93241822,8.93799815 L2.46462938,10.1766292 C2.15851299,10.4434113 1.89949144,10.757833 1.6875647,11.0817827 C1.45209056,11.4628999 1.28725866,11.8535451 1.17737072,12.2251344 C1.07533193,12.558612 1.0282371,12.8635058 1.02038796,13.1207599 C1.02038796,13.2732068 1.03608624,13.4637654 1.08318107,13.5399889 C1.1302759,13.6352682 1.27940952,13.7400754 1.49918539,13.8544106 C1.75820695,13.9973296 2.09571989,14.1116648 2.47247852,14.1974161 C2.94342681,14.2926954 3.50071562,14.3403351 4.06585357,14.2831675 C4.55250013,14.2355279 5.04699584,14.1211927 5.50224585,13.9115782 C6.86014675,13.3017906 8.21019852,12.692003 9.56025028,12.0726875 Z M10.8867546,11.8154334 C11.1771727,12.1107992 11.1065305,12.7015309 10.737621,12.8635058 C9.11284941,13.6066844 7.48807781,14.3403351 5.86330621,15.0739858 C5.29816826,15.3312399 4.7094829,15.4741589 4.14434495,15.5217986 C3.48501734,15.5884941 2.84923715,15.5408544 2.29979748,15.4169913 C1.83669833,15.321712 1.42069401,15.178793 1.0910302,14.9977623 C0.698573296,14.7881479 0.400306046,14.5308937 0.235474145,14.2450558 C0.109887934,13.9782737 0,13.6829079 0,13.0921761 C0.00784913816,12.7015309 0.0784913816,12.2537182 0.21192673,11.8154334 C0.353211217,11.3295089 0.572987086,10.8150006 0.879103474,10.3290761 C1.14597417,9.90984713 1.47563797,9.50967402 1.88379316,9.1666685 C2.95127595,8.25198711 4.02660788,7.33730573 5.09409067,6.42262434 C5.28246998,6.26064951 5.54149154,6.27017744 5.72202172,6.46073606 L7.17411228,7.96614918 L7.17411228,5.11729778 C7.17411228,4.86957157 7.29969849,4.65042915 7.48807781,4.54562191 L8.53986232,4.00252983 C8.53201318,3.74527569 8.57125887,3.49754948 8.64190112,3.26887914 C8.7831856,2.84012224 9.05790544,2.48758879 9.42681493,2.28750223 L13.6104056,0.105606005 C14.3403754,-0.218343653 15.1331384,0.22946911 15.4314056,1.08698291 C15.7532203,1.98260844 15.4078582,3.04020879 14.6700392,3.42132604 L10.5806382,5.55558261 C10.2117287,5.74614123 9.8114227,5.74614123 9.46606062,5.57463847 C9.26198303,5.47935916 9.08145285,5.32691226 8.94016837,5.14588157 L8.20234938,5.52699881 L8.20234938,9.02374954 L10.8867546,11.8154334 Z" id="path-1"></path>
    </defs>
    <g id="Symbols" stroke="none" stroke-width="1" fill="none" fill-rule="evenodd">
        <g id="beta-copy-3">
            <g id="Group-4" transform="translate(2.000000, 6.000000)">
                <path d="M104.146173,12.7611544 L111.724703,26 L6,26 C2.13400675,26 -1,22.8659932 -1,19 L-1,6 C-1,2.13400675 2.13400675,-1 6,-1 L111.688432,-1 L104.146173,12.7611544 Z" id="Rectangle-6" stroke="#FFFFFF" stroke-width="2" fill="#910155"></path>
                <text id="Vorläufig" font-family="OpenSans-Bold, Open Sans" font-size="14" font-weight="bold" fill="#FFFFFF">
                    <tspan x="27" y="17">Vorläufig</tspan>
                </text>
                <g id="icon/phase/bau" transform="translate(6.000000, 4.000000)">
                    <g id="noun_1547539_cc">
                        <mask id="mask-2" fill="white">
                            <use xlink:href="#path-1"></use>
                        </mask>
                        <use id="Shape" fill="#1A1A1A" fill-rule="nonzero" xlink:href="#path-1"></use>
                        <g id="color/white" mask="url(#mask-2)" fill="#FFFFFF">
                            <g transform="translate(7.776000, 7.917382) scale(-1, 1) translate(-7.776000, -7.917382) translate(0.000000, -1.413818)" id="Rectangle">
                                <rect x="0" y="0" width="15.9157895" height="18.9"></rect>
                            </g>
                        </g>
                    </g>
                </g>
            </g>
        </g>
    </g>
</svg>