<svg xmlns="http://www.w3.org/2000/svg" width="53" height="25" viewBox="0 0 53 25">
    <g fill="#545454" fill-rule="evenodd">
        <path fill-rule="nonzero" d="M35.934 17.178v-.002h7.653a.973.973 0 0 0 .878-.543.924.924 0 0 0-.132-1.003l-3.475-4.056c.31-.048.622-.09.946-.09 3.236 0 5.872 2.554 5.872 5.694s-2.636 5.695-5.872 5.695c-3.237 0-5.87-2.555-5.87-5.695zm2.978-4.925l2.601 3.037h-5.221a5.739 5.739 0 0 1 2.62-3.037zm-5.78 3.037l2.616-6.733 1.904 2.225a7.579 7.579 0 0 0-3.384 4.508h-1.135zm-8.598-7.655h9.495l-2.68 6.9-6.92-6.684.105-.216zm.366 9.543c0 3.14-2.633 5.695-5.87 5.695a5.933 5.933 0 0 1-2.881-.764v-4.146c0-.616-.117-1.215-.342-1.78-.195-.486-.76-.724-1.26-.536a.933.933 0 0 0-.552 1.222c.137.344.21.714.21 1.094v2.446a5.549 5.549 0 0 1-1.047-3.23c0-1.552.632-3 1.775-4.081a5.932 5.932 0 0 1 4.097-1.614c.48 0 .938.07 1.384.176l-2.262 4.626a.932.932 0 0 0 .461 1.257c.137.06.277.09.417.09.363 0 .71-.198.879-.54l2.296-4.692c1.617 1.016 2.695 2.771 2.695 4.777zm-16.992.785c0-1.685 1.412-3.055 3.148-3.055.182 0 .36.028.534.058-.223.711-.375 1.445-.375 2.212 0 2.323 1.106 4.38 2.809 5.773H7.908v-4.988zm43.945 4.988H46.81c1.703-1.393 2.81-3.45 2.81-5.773 0-4.18-3.507-7.58-7.816-7.58-.811 0-1.579.153-2.314.377l-2.955-3.447.871-2.24h1.363c.537 0 .972-.422.972-.943 0-.52-.435-.942-.972-.942H33.6c-.536 0-.972.422-.972.942s.436.943.972.943h1.731l-.567 1.46h-9.309l.33-.673a.923.923 0 0 0-.055-.908.98.98 0 0 0-.821-.437H23.79a.62.62 0 0 1-.62-.603c0-.332.278-.601.62-.601h3.363c.537 0 .972-.423.972-.943S27.691.64 27.154.64h-3.363c-1.415 0-2.563 1.114-2.563 2.487 0 1.24.935 2.267 2.158 2.456l-.287.586a.853.853 0 0 0-.13.271l-1.718 3.508c-.707-.207-1.443-.35-2.22-.35-2.05 0-3.986.762-5.456 2.15a7.669 7.669 0 0 0-1.181 1.468 5.171 5.171 0 0 0-1.338-.194c-2.806 0-5.092 2.218-5.092 4.94v4.989h-4.49c-.537 0-.972.422-.972.943 0 .52.435.942.971.942h5.282c.06.01.119.036.181.036s.122-.026.181-.036h7.876c.062.01.119.036.184.036.062 0 .122-.026.181-.036h10.998c.537 0 .972-.422.972-.942s-.435-.943-.972-.943h-2.322c1.703-1.393 2.81-3.45 2.81-5.773 0-2.755-1.54-5.149-3.81-6.476l.51-1.044 7.5 7.241c.003.003.008.005.01.008.037.035.089.055.13.085.065.043.122.088.192.116.005 0 .008.005.013.007.111.04.225.06.34.06h2.262c0 2.326 1.106 4.383 2.809 5.776h-3.39c-.536 0-.972.422-.972.943 0 .52.436.942.972.942h19.234c.06.01.119.036.181.036 0-1.28-.324-1.921-.972-1.921z"/>
        <path d="M30.423 24.837c.537 0 .972-.423.972-.943s-.435-.943-.972-.943h-1.311c-.537 0-.972.422-.972.943 0 .52.435.943.972.943h1.311z"/>
    </g>
</svg>
