<?xml version="1.0" encoding="UTF-8"?>
<svg width="42px" height="25px" viewBox="0 0 42 25" version="1.1" xmlns="http://www.w3.org/2000/svg" xmlns:xlink="http://www.w3.org/1999/xlink">
    <!-- Generator: sketchtool 52.5 (67469) - http://www.bohemiancoding.com/sketch -->
    <title>7B7A518F-954F-43A4-B67C-45D2D7DE6226</title>
    <desc>Created with sketchtool.</desc>
    <g id="Meldedialog" stroke="none" stroke-width="1" fill="none" fill-rule="evenodd">
        <g id="Meldung-Einzelansicht" transform="translate(-301.000000, -325.000000)" stroke="#999999" stroke-width="2">
            <g id="Group-3" transform="translate(294.000000, 308.000000)">
                <g id="Group-2" transform="translate(8.000000, 18.000000)">
                    <path d="M0.0258775112,23.7837838 C0.0258775112,13.685403 0.0258775112,8.63621254 0.0258775112,8.63621254 C0.0258775112,8.63621254 -0.6404303,4.75675676 4.78904646,4.75675676 C10.2185232,4.75675676 24.0991594,4.75675676 28.2763968,4.75675676 C32.4536342,4.75675676 31.9841901,8.63621254 31.9841901,8.63621254 C31.9841901,8.63621254 31.9841901,13.685403 31.9841901,23.7837838" id="Path-12"></path>
                    <path d="M8.02587751,19.027027 C8.02587751,8.9286462 8.02587751,3.87945579 8.02587751,3.87945579 C8.02587751,3.87945579 7.3595697,2.94171594e-15 12.7890465,0 C18.2185232,0 32.0991594,0 36.2763968,0 C40.4536342,0 39.9841901,3.87945579 39.9841901,3.87945579 C39.9841901,3.87945579 39.9841901,8.9286462 39.9841901,19.027027" id="Path-12-Copy"></path>
                </g>
            </g>
        </g>
    </g>
</svg>