<svg width="53" height="25" xmlns="http://www.w3.org/2000/svg">
  <g id="Page-1" fill="none" fill-rule="evenodd">
    <g id="bikeparkdark" fill="#545454" fill-rule="nonzero">
      <path d="M35.934094 17.178266v-.002514h7.65247c.375757 0 .717825-.21119.878493-.543059.160668-.329355.106248-.721565-.132163-1.00315l-3.475097-4.055345c.31097-.04777.621941-.09051.945869-.09051 3.236686 0 5.872163 2.554389 5.872163 5.694578 0 3.14019-2.635477 5.694579-5.872163 5.694579-3.236687 0-5.869572-2.55439-5.869572-5.694579zm2.977544-4.925245l2.601788 3.03711H36.29171c.47423-1.294795 1.407142-2.363314 2.619928-3.03711zm-5.778872 3.03711l2.614745-6.732929 1.904696 2.225034c-1.65851 1.015722-2.881662 2.617244-3.384398 4.507894h-1.135043zm-8.59834-7.655627h9.494972l-2.67953 6.901377-6.92169-6.685159.106248-.216217zm.36539 9.543762c0 3.14019-2.632885 5.694579-5.869572 5.694579-1.052117 0-2.026492-.291643-2.881662-.764306v-4.145854c0-.61597-.116614-1.21434-.342067-1.780027-.194357-.485233-.759287-.724079-1.259432-.535517-.500144.188562-.74892.73665-.551973 1.221883.137346.34444.209905.714022.209905 1.093661v2.44628c-.65563-.920183-1.046934-2.031443-1.046934-3.230699 0-1.551238.632307-2.999396 1.775124-4.080486 1.101355-1.040863 2.555143-1.614092 4.09704-1.614092.479412 0 .938094.070396 1.383819.175991l-2.262312 4.62606c-.230637.470148-.023323 1.03332.461273 1.25708.137346.06034.277282.09051.41722.09051.362798 0 .710049-.198618.878491-.540544l2.296-4.691428c1.617049 1.015722 2.69508 2.770607 2.69508 4.77691zm-16.991957.78442c0-1.68449 1.412325-3.054709 3.148578-3.054709.1814 0 .360208.027656.533833.057826-.222862.711508-.375756 1.445644-.375756 2.212463 0 2.323087 1.106537 4.379672 2.809102 5.772518H7.907859v-4.988099zm43.945343 4.988098h-5.042908c1.702565-1.392846 2.809102-3.449431 2.809102-5.772518 0-4.181052-3.506194-7.5802-7.81573-7.5802-.811115 0-1.578176.153364-2.31414.377124l-2.954222-3.446917.870718-2.24012h1.363088c.536424 0 .971783-.422378.971783-.94281s-.435359-.942811-.971783-.942811h-5.169888c-.536425 0-.971783.42238-.971783.94281 0 .520433.435358.942812.971783.942812h1.73107l-.567521 1.460728h-9.30839l.32911-.673795c.142529-.291643.121797-.63357-.05442-.907613-.178808-.274044-.489778-.437464-.82148-.437464h-1.116903c-.336885 0-.61935-.276558-.61935-.6034 0-.331869.277282-.600884.61935-.600884h3.363666c.536424 0 .971783-.42238.971783-.942811 0-.520432-.435359-.942811-.971783-.942811h-3.363667c-1.414916 0-2.562916 1.113774-2.562916 2.486507 0 1.239482.935503 2.267774 2.158655 2.456337l-.287648.5858c-.057012.082967-.103657.170963-.129571.27153l-1.718114 3.507256c-.707458-.206161-1.443422-.349468-2.220849-.349468-2.049815 0-3.985608.76179-5.454944 2.149609-.466456.442492-.847395.94281-1.181689 1.46827-.435359-.11565-.8759-.19359-1.337174-.19359-2.80651 0-5.092145 2.217492-5.092145 4.94033v4.988099H1.473356c-.536424 0-.971783.42238-.971783.942811 0 .520432.435359.942811.971783.942811h5.28132c.059602.010057.119205.035198.1814.035198.062193 0 .121796-.025141.181399-.035198h7.875333c.062194.010057.119205.035198.183991.035198.062194 0 .121797-.025141.1814-.035198h10.997997c.536424 0 .971783-.42238.971783-.94281 0-.520433-.435359-.942812-.971783-.942812H24.03428c1.702565-1.392846 2.809102-3.449431 2.809102-5.772518 0-2.755522-1.539305-5.149005-3.80939-6.476483l.51051-1.043377 7.499576 7.240788c.002592.002514.007775.005029.010366.007543.03628.035198.088108.055311.129571.085481.064786.042741.121797.087996.191765.115652.005183 0 .007775.005028.012957.007542.111432.040227.225454.06034.339477.06034h2.262312c0 2.3256 1.106537 4.382186 2.809102 5.775032h-3.389581c-.536424 0-.971783.42238-.971783.942811 0 .520432.435359.942811.971783.942811h19.233538c.059603.010057.119206.035198.1814.035198 0-1.280546-.323928-1.92082-.971784-1.92082z" id="Shape"/>
      <path d="M30.423174 24.836658c.536425 0 .971784-.42238.971784-.942812 0-.520431-.43536-.94281-.971784-.94281h-1.31126c-.536424 0-.971783.422379-.971783.94281 0 .520432.43536.942812.971784.942812h1.31126z" id="Path"/>
    </g>
  </g>
</svg>
