<?xml version="1.0" encoding="UTF-8"?>
<svg width="65px" height="40px" viewBox="0 0 65 40" version="1.1" xmlns="http://www.w3.org/2000/svg" xmlns:xlink="http://www.w3.org/1999/xlink">
    <!-- Generator: sketchtool 52.5 (67469) - http://www.bohemiancoding.com/sketch -->
    <title>31E504D9-6FC3-4A36-8B14-F38551C4B55F</title>
    <desc>Created with sketchtool.</desc>
    <g id="Symbols" stroke="none" stroke-width="1" fill="none" fill-rule="evenodd">
        <g id="Bikeparkdark" fill="#545454">
            <g id="Group" transform="translate(0.148148, 15.000000)">
                <path d="M35.7859457,17.1782663 L35.7859457,17.1757522 L43.4384165,17.1757522 C43.8141727,17.1757522 44.1562406,16.9645625 44.3169087,16.632693 C44.4775769,16.3033377 44.4231571,15.9111283 44.1847462,15.6295421 L40.7096486,11.5741975 C41.0206193,11.5264285 41.33159,11.4836877 41.6555178,11.4836877 C44.8922045,11.4836877 47.5276813,14.038077 47.5276813,17.1782663 C47.5276813,20.3184556 44.8922045,22.872845 41.6555178,22.872845 C38.418831,22.872845 35.7859457,20.3184556 35.7859457,17.1782663 Z M38.7634902,12.2530215 L41.3652785,15.2901301 L36.143562,15.2901301 C36.6177923,13.9953363 37.5507045,12.9268171 38.7634902,12.2530215 Z M32.984618,15.2901301 L35.5993633,8.55720223 L37.5040588,10.7822363 C35.8455484,11.797958 34.6223969,13.3994797 34.1196609,15.2901301 L32.984618,15.2901301 Z M24.3862779,7.6345045 L33.8812501,7.6345045 L31.2017192,14.5358813 L24.2800295,7.8507225 L24.3862779,7.6345045 Z M24.7516684,17.1782663 C24.7516684,20.3184556 22.118783,22.872845 18.8820963,22.872845 C17.8299787,22.872845 16.8556038,22.5812021 16.0004344,22.1085395 L16.0004344,17.9626851 C16.0004344,17.3467152 15.8838204,16.7483445 15.6583666,16.1826579 C15.4640099,15.6974245 14.8990798,15.458579 14.3989353,15.6471412 C13.8987907,15.8357034 13.6500142,16.3837909 13.8469622,16.8690243 C13.9843077,17.2134646 14.0568675,17.5830465 14.0568675,17.9626851 L14.0568675,20.4089655 C13.4012375,19.4887819 13.0099328,18.377522 13.0099328,17.1782663 C13.0099328,15.6270279 13.6422399,14.1788702 14.7850573,13.0977802 C15.8864118,12.0569168 17.3401999,11.4836877 18.8820963,11.4836877 C19.3615095,11.4836877 19.8201912,11.5540842 20.2659159,11.6596791 L18.0036041,16.2857386 C17.7729674,16.755887 17.9802812,17.3190595 18.4648773,17.5428199 C18.6022227,17.6031598 18.7421594,17.6333298 18.8820963,17.6333298 C19.2448954,17.6333298 19.592146,17.4347109 19.7605885,17.0927848 L22.0565889,12.4013571 C23.6736366,13.4170788 24.7516684,15.1719645 24.7516684,17.1782663 Z M7.75971066,17.9626851 C7.75971066,16.2781961 9.17203596,14.9079774 10.9082891,14.9079774 C11.0896886,14.9079774 11.2684968,14.9356332 11.4421221,14.9658031 C11.2192598,15.6773112 11.0663659,16.4114467 11.0663659,17.1782663 C11.0663659,19.5013527 12.1729033,21.5579379 13.875468,22.950784 L7.75971066,22.950784 L7.75971066,17.9626851 Z M51.7050544,22.950784 L46.6621462,22.950784 C48.3647108,21.5579379 49.4712482,19.5013527 49.4712482,17.1782663 C49.4712482,12.9972137 45.9650535,9.59806561 41.6555178,9.59806561 C40.8444026,9.59806561 40.0773415,9.75142954 39.3413774,9.97519003 L36.3871558,6.52827288 L37.2578737,4.28815386 L38.620962,4.28815386 C39.1573864,4.28815386 39.5927454,3.86577452 39.5927454,3.34534283 C39.5927454,2.82491114 39.1573864,2.40253179 38.620962,2.40253179 L33.451074,2.40253179 C32.9146494,2.40253179 32.4792906,2.82491114 32.4792906,3.34534283 C32.4792906,3.86577452 32.9146494,4.28815386 33.451074,4.28815386 L35.1821442,4.28815386 L34.6146227,5.74888243 L25.3062329,5.74888243 L25.6353435,5.07508681 C25.7778718,4.78344393 25.7571403,4.44151779 25.5809236,4.16747405 C25.4021154,3.89343031 25.0911447,3.73000973 24.7594427,3.73000973 L23.6425395,3.73000973 C23.3056546,3.73000973 23.0231896,3.45345183 23.0231896,3.12661067 C23.0231896,2.79474118 23.3004718,2.52572577 23.6425395,2.52572577 L27.0062061,2.52572577 C27.5426304,2.52572577 27.9779895,2.10334643 27.9779895,1.58291473 C27.9779895,1.06248304 27.5426304,0.640103699 27.0062061,0.640103699 L23.6425395,0.640103699 C22.2276228,0.640103699 21.0796226,1.7538778 21.0796226,3.12661067 C21.0796226,4.36609291 22.0151262,5.39438548 23.2382776,5.58294769 L22.9506297,6.16874761 C22.8936184,6.25171498 22.8469728,6.33971068 22.8210586,6.44027719 L21.1029455,9.94753424 C20.3954871,9.74137289 19.659523,9.59806561 18.8820963,9.59806561 C16.8322811,9.59806561 14.8964884,10.3598569 13.4271517,11.7476748 C12.9606957,12.1901674 12.5797566,12.6904858 12.2454631,13.2159458 C11.8101041,13.1002943 11.3695623,13.0223553 10.9082891,13.0223553 C8.10177844,13.0223553 5.81614373,15.2398468 5.81614373,17.9626851 L5.81614373,22.950784 L1.32520844,22.950784 C0.788783965,22.950784 0.353424973,23.3731634 0.353424973,23.8935951 C0.353424973,24.4140268 0.788783965,24.8364061 1.32520844,24.8364061 L6.60652761,24.8364061 C6.66613033,24.8464628 6.72573305,24.8716044 6.7879272,24.8716044 C6.85012134,24.8716044 6.90972405,24.8464628 6.96932677,24.8364061 L14.84466,24.8364061 C14.9068541,24.8464628 14.9638654,24.8716044 15.028651,24.8716044 C15.0908451,24.8716044 15.1504478,24.8464628 15.2100505,24.8364061 L26.2080479,24.8364061 C26.7444724,24.8364061 27.1798313,24.4140268 27.1798313,23.8935951 C27.1798313,23.3731634 26.7444724,22.950784 26.2080479,22.950784 L23.8861332,22.950784 C25.5886978,21.5579379 26.6952354,19.5013527 26.6952354,17.1782663 C26.6952354,14.422744 25.1559303,12.029261 22.8858441,10.7017831 L23.3963544,9.65840552 L30.8959314,16.8991943 C30.8985227,16.9017084 30.9037055,16.9042226 30.906297,16.9067368 C30.9425769,16.941935 30.9944053,16.9620483 31.0358681,16.9922183 C31.1006537,17.0349591 31.157665,17.080214 31.2276334,17.1078698 C31.2328163,17.1078698 31.2354077,17.1128981 31.2405904,17.1154123 C31.3520217,17.1556389 31.4660442,17.1757522 31.5800669,17.1757522 L33.8423787,17.1757522 C33.8423787,19.5013527 34.9489162,21.5579379 36.6514808,22.950784 L33.2619,22.950784 C32.7254757,22.950784 32.2901166,23.3731634 32.2901166,23.8935951 C32.2901166,24.4140268 32.7254757,24.8364061 33.2619,24.8364061 L52.4954383,24.8364061 C52.5550411,24.8464628 52.6146438,24.8716044 52.676838,24.8716044 C52.676838,23.5910575 52.3529101,22.950784 51.7050544,22.950784 Z" id="Shape" fill-rule="nonzero"></path>
                <path d="M30.2750265,24.8366575 C30.8114509,24.8366575 31.2468099,24.4142782 31.2468099,23.8938465 C31.2468099,23.3734148 30.8114509,22.9510355 30.2750265,22.9510355 L28.9637667,22.9510355 C28.4273421,22.9510355 27.9919832,23.3734148 27.9919832,23.8938465 C27.9919832,24.4142782 28.4273421,24.8366575 28.9637667,24.8366575 L30.2750265,24.8366575 Z" id="Path"></path>
            </g>
        </g>
    </g>
</svg>