<?xml version="1.0" encoding="UTF-8"?>
<svg width="42px" height="42px" viewBox="0 0 42 42" version="1.1" xmlns="http://www.w3.org/2000/svg" xmlns:xlink="http://www.w3.org/1999/xlink">
    <!-- Generator: sketchtool 52.5 (67469) - http://www.bohemiancoding.com/sketch -->
    <title>25E4A769-7FF5-401B-BF7C-CB1C345D922C</title>
    <desc>Created with sketchtool.</desc>
    <g id="Symbols" stroke="none" stroke-width="1" fill="none" fill-rule="evenodd">
        <g id="icon/locator" transform="translate(1.000000, 1.000000)">
            <g id="Location-Button">
                <circle id="Oval" stroke="#0F0F0F" stroke-width="1.14" cx="20" cy="20" r="20"></circle>
                <g id="location3" transform="translate(10.000000, 10.000000)" fill="#000000" fill-rule="nonzero">
                    <path d="M9.74358974,6.36363636 C7.79487179,6.36363636 6.2004662,8 6.2004662,10 C6.2004662,12 7.79487179,13.6363636 9.74358974,13.6363636 C11.6923077,13.6363636 13.2867133,12 13.2867133,10 C13.2867133,8 11.6923077,6.36363636 9.74358974,6.36363636 Z M17.6270396,9.09090909 C17.1841492,5.27272727 14.2610723,2.27272727 10.6293706,1.90909091 L10.6293706,0 L8.85780886,0 L8.85780886,1.90909091 C5.13752914,2.27272727 2.21445221,5.27272727 1.86013986,9.09090909 L0,9.09090909 L0,10.9090909 L1.86013986,10.9090909 C2.3030303,14.7272727 5.22610723,17.7272727 8.85780886,18.0909091 L8.85780886,20 L10.6293706,20 L10.6293706,18.0909091 C14.3496503,17.6363636 17.2727273,14.6363636 17.6270396,10.9090909 L19.4871795,10.9090909 L19.4871795,9.09090909 L17.6270396,9.09090909 Z M9.74358974,16.3636364 C6.28904429,16.3636364 3.54312354,13.5454545 3.54312354,10 C3.54312354,6.45454545 6.28904429,3.63636364 9.74358974,3.63636364 C13.1981352,3.63636364 15.9440559,6.45454545 15.9440559,10 C15.9440559,13.5454545 13.1981352,16.3636364 9.74358974,16.3636364 Z" id="Shape"></path>
                </g>
            </g>
        </g>
    </g>
</svg>