<?xml version="1.0" encoding="UTF-8"?>
<svg width="40px" height="37px" viewBox="0 0 40 37" version="1.1" xmlns="http://www.w3.org/2000/svg" xmlns:xlink="http://www.w3.org/1999/xlink">
    <!-- Generator: sketchtool 52.5 (67469) - http://www.bohemiancoding.com/sketch -->
    <title>63A99CBB-19FC-4DCA-B76A-262951814FC0</title>
    <desc>Created with sketchtool.</desc>
    <g id="Symbols" stroke="none" stroke-width="1" fill="none" fill-rule="evenodd">
        <g id="icon/map" transform="translate(0.000000, -2.000000)" fill="#000000" fill-rule="nonzero">
            <g id="noun_Map_1909219" transform="translate(0.000000, 2.000000)">
                <path d="M26.5,11.2878788 L26.4,12.3242424 C25.95,12.3818182 25.5,12.5545455 25.1,12.7848485 C25.1,12.7848485 25.05,12.7848485 25.05,12.8424242 L24.55,11.9787879 C24.6,11.9212121 24.65,11.9212121 24.7,11.9212121 C25.3,11.5181818 25.85,11.3454545 26.5,11.2878788 Z" id="Shape"></path>
                <path d="M22.9,13.3030303 L23.4,14.1666667 C23.05,14.5121212 22.7,14.9151515 22.35,15.3757576 L21.8,14.569697 C22.1,14.1090909 22.5,13.7060606 22.9,13.3030303 Z" id="Shape"></path>
                <path d="M30.35,11.9212121 L29.95,12.8424242 C29.45,12.669697 29,12.4969697 28.55,12.3818182 L28.65,11.3454545 C29.15,11.5181818 29.7,11.6909091 30.35,11.9212121 Z" id="Shape"></path>
                <g id="Group">
                    <path d="M0,14.569697 L5.7,36.2757576 L13.9,30.6909091 L23.4,31.2666667 L29.7,24.5878788 L40,23.7242424 L32.25,5.41515152 L23.45,5.01212121 L17.55,10.7121212 L15.9,10.4242424 C15.7,10.769697 15.45,11.230303 15.2,11.6909091 L17.3,12.0363636 L19.1,18.369697 C18.95,18.6 18.8,18.8878788 18.65,19.1181818 C18.55,19.2909091 18.45,19.4636364 18.3,19.6363636 L18.9,20.3272727 C19.05,20.0969697 19.15,19.9242424 19.3,19.6939394 C19.35,19.6363636 19.35,19.5787879 19.4,19.5212121 L22.35,29.8272727 L13.6,29.3090909 L6.4,34.2030303 L4.1,25.5090909 C4.35,25.6242424 4.6,25.6818182 4.85,25.7969697 L5.1,24.8757576 C4.6,24.7030303 4.15,24.530303 3.75,24.3575758 L1.35,15.2606061 L6.25,11.6909091 C6,11.230303 5.8,10.8848485 5.6,10.5393939 L0,14.569697 Z M20.3,18.1393939 C20.5,17.8515152 20.7,17.5636364 20.9,17.2757576 L20.35,16.5272727 C20.25,16.7 20.1,16.8727273 20,17.0454545 L18.5,11.7484848 L23.95,6.50909091 L31.5,6.73939394 L35.25,15.6060606 C35.1,15.4909091 34.9,15.3181818 34.75,15.2030303 L34.35,16.0666667 C34.9,16.5272727 35.5,16.9878788 36.1,17.5060606 L38.2,22.5151515 L29.35,23.2636364 L23.5,29.3090909 L20.3,18.1393939 Z" id="Shape"></path>
                    <path d="M5.05,6.04545455 C5.05,7.51616162 5.6,8.77676768 6.35,9.87979798 C7.55,11.6656566 10.75,17.3909091 10.75,17.3909091 C10.75,17.3909091 13.95,11.7181818 15.15,9.87979798 C15.9,8.77676768 16.45,7.51616162 16.45,6.04545455 C16.45,2.73636364 13.9,0.0575757576 10.75,0.0575757576 C7.6,0.0575757576 5.05,2.73636364 5.05,6.04545455 Z M7.65,5.62525253 C7.65,3.83939394 9.05,2.36868687 10.75,2.36868687 C12.45,2.36868687 13.85,3.83939394 13.85,5.62525253 C13.85,7.41111111 12.45,8.88181818 10.75,8.88181818 C9.05,8.82929293 7.65,7.41111111 7.65,5.62525253 Z" id="Shape"></path>
                    <path d="M13.55,26.8333333 L13.3,25.7969697 C13.7,25.5666667 14.05,25.2212121 14.45,24.8757576 L15.1,25.6242424 C14.55,26.0848485 14.05,26.4878788 13.55,26.8333333 Z" id="Shape"></path>
                    <path d="M7.65,27.1212121 C7.15,27.0060606 6.65,26.8909091 6.15,26.7757576 L6.45,25.7969697 C6.9,25.9121212 7.4,26.0272727 7.85,26.1424242 L7.65,27.1212121 Z" id="Shape"></path>
                    <path d="M16.55,23.8969697 L15.9,23.1484848 C16.25,22.6878788 16.6,22.169697 16.95,21.6515152 L17.6,22.4 C17.25,22.9181818 16.9,23.4363636 16.55,23.8969697 Z" id="Shape"></path>
                    <path d="M11.3,26.4878788 L11.55,27.4666667 C11.35,27.4666667 11.15,27.4666667 10.9,27.4666667 C10.55,27.4666667 10.15,27.4666667 9.75,27.4090909 L9.95,26.430303 C10.45,26.4878788 10.9,26.4878788 11.3,26.4878788 Z" id="Shape"></path>
                </g>
                <path d="M33.7,13.7636364 L33.25,14.6272727 C32.75,14.2818182 32.3,13.9939394 31.85,13.7636364 L32.25,12.8424242 C32.7,13.130303 33.2,13.4757576 33.7,13.7636364 Z" id="Shape"></path>
            </g>
        </g>
    </g>
</svg>