<?xml version="1.0" encoding="UTF-8"?>
<svg width="144px" height="91px" viewBox="0 0 144 91" version="1.1" xmlns="http://www.w3.org/2000/svg" xmlns:xlink="http://www.w3.org/1999/xlink">
    <!-- Generator: sketchtool 52.5 (67469) - http://www.bohemiancoding.com/sketch -->
    <title>79F3428A-6ACA-4C28-A680-4E11120803EC</title>
    <desc>Created with sketchtool.</desc>
    <g id="Meldedialog-simple" stroke="none" stroke-width="1" fill="none" fill-rule="evenodd">
        <g id="Meldung/landingpage" transform="translate(-116.000000, -867.000000)">
            <g id="Group-8" transform="translate(33.000000, 867.000000)">
                <g id="noun_Bicycle_1408699" transform="translate(83.000000, 0.000000)">
                    <g id="Group">
                        <g>
                            <path d="M119.914192,71.0618048 C119.914192,70.0837326 120.73049,69.2829717 121.72754,69.2829717 C122.718759,69.2829717 123.535057,70.0837326 123.535057,71.0618048 L123.535057,85.8186831 L119.914192,85.8186831 L119.914192,71.0618048 Z M79.7231715,72.6862053 L79.7231715,72.6804856 L96.941231,72.6804856 C97.7866824,72.6804856 98.5563351,72.2000291 98.9178385,71.445026 C99.2793419,70.6957427 99.1568974,69.8034663 98.6204727,69.1628576 L90.8015031,59.9369488 C91.5011872,59.8282741 92.2008714,59.7310389 92.9297088,59.7310389 C100.212254,59.7310389 106.142077,65.5422747 106.142077,72.6862053 C106.142077,79.8301359 100.212254,85.6413717 92.9297088,85.6413717 C85.6471636,85.6413717 79.7231715,79.8301359 79.7231715,72.6862053 Z M86.4226469,61.4812733 L92.2766705,68.3906954 L80.5278084,68.3906954 C81.5948266,65.4450394 83.6938789,63.0141583 86.4226469,61.4812733 Z M73.4201842,68.3906954 L79.3033611,53.0732845 L83.5889261,58.1352369 C79.8572776,60.4460039 77.1051869,64.0894657 75.9740309,68.3906954 L73.4201842,68.3906954 Z M54.073919,50.9741471 L75.4376065,50.9741471 L69.408662,66.6747793 L53.8348602,51.4660431 L54.073919,50.9741471 Z M54.8960477,72.6862053 C54.8960477,79.8301359 48.9720556,85.6413717 41.6895105,85.6413717 C39.3222459,85.6413717 37.1299023,84.9778842 35.2057713,83.9025768 L35.2057713,74.470758 C35.2057713,73.0694266 34.9433897,71.7081331 34.4361186,70.4211961 C33.9988161,69.3172901 32.7277234,68.7739166 31.6023982,69.2028957 C30.4770728,69.6318747 29.9173257,70.8787737 30.3604588,71.9826797 C30.6694862,72.7662814 30.8327456,73.6070803 30.8327456,74.470758 L30.8327456,80.0360459 C29.3575783,77.9426283 28.4771425,75.4145119 28.4771425,72.6862053 C28.4771425,69.1571379 29.8998336,65.862579 32.4711727,63.4030993 C34.9492203,61.0351351 38.2202435,59.7310389 41.6895105,59.7310389 C42.7681901,59.7310389 43.800224,59.891191 44.8031046,60.1314193 L39.712903,70.6557046 C39.1939704,71.7252923 39.6604266,73.0065097 40.7507678,73.5155648 C41.0597948,73.652838 41.3746525,73.7214747 41.6895105,73.7214747 C42.5058085,73.7214747 43.2871224,73.2696168 43.6661179,72.4917348 L48.8321189,61.8187368 C52.4704762,64.1295038 54.8960477,68.1218685 54.8960477,72.6862053 Z M16.6641428,74.470758 C16.6641428,70.6385455 19.8418747,67.5212979 23.7484442,67.5212979 C24.1565933,67.5212979 24.5589116,67.5842148 24.9495686,67.6528515 C24.4481283,69.2715323 24.104117,70.9416906 24.104117,72.6862053 C24.104117,77.9712269 26.5938262,82.649958 30.4245967,85.8186831 L16.6641428,85.8186831 L16.6641428,74.470758 Z M111.535475,27.3459827 L131.925436,27.3459827 L131.925436,4.28979021 L111.535475,4.28979021 L111.535475,27.3459827 Z M127.908083,85.8186831 L127.908083,71.0618048 C127.908083,68.4764912 126.240502,66.2972778 123.914053,65.4278803 L123.914053,31.6300531 L134.111948,31.6300531 C135.318903,31.6300531 136.298461,30.6691401 136.298461,29.485158 L136.298461,2.1448951 C136.298461,0.960913007 135.318903,0 134.111948,0 L109.348962,0 C108.136177,0 107.156619,0.960913007 107.156619,2.1448951 L107.156619,29.485158 C107.156619,30.6691401 108.136177,31.6300531 109.348962,31.6300531 L119.541027,31.6300531 L119.541027,65.4278803 C117.208747,66.2972778 115.541166,68.4764912 115.541166,71.0618048 L115.541166,85.8186831 L104.194623,85.8186831 C108.025393,82.649958 110.515102,77.9712269 110.515102,72.6862053 C110.515102,63.1743105 102.626164,55.4412487 92.9297088,55.4412487 C91.1046996,55.4412487 89.3788122,55.7901516 87.7228929,56.2992067 L81.0758943,48.4574702 L83.0350097,43.3611994 L86.1019583,43.3611994 C87.3089131,43.3611994 88.288471,42.4002864 88.288471,41.2163043 C88.288471,40.0323222 87.3089131,39.0714092 86.1019583,39.0714092 L74.4697102,39.0714092 C73.2627551,39.0714092 72.2831976,40.0323222 72.2831976,41.2163043 C72.2831976,42.4002864 73.2627551,43.3611994 74.4697102,43.3611994 L78.3646182,43.3611994 L77.0876948,46.6843569 L56.1438177,46.6843569 L56.8843167,45.1514719 C57.2050053,44.4879843 57.1583595,43.7101024 56.7618718,43.0866529 C56.3595535,42.4632034 55.6598694,42.0914215 54.9135398,42.0914215 L52.4005077,42.0914215 C51.6425166,42.0914215 51.0069704,41.4622523 51.0069704,40.7186887 C51.0069704,39.9636856 51.6308554,39.3516755 52.4005077,39.3516755 L59.9687575,39.3516755 C61.1757123,39.3516755 62.1552702,38.3907625 62.1552702,37.2067804 C62.1552702,36.0227983 61.1757123,35.0618853 59.9687575,35.0618853 L52.4005077,35.0618853 C49.2169451,35.0618853 46.6339447,37.5957214 46.6339447,40.7186887 C46.6339447,43.5385108 48.7388277,45.8778764 51.4909184,46.3068554 L50.8437106,47.6395502 C50.7154351,47.828301 50.6104827,48.0284912 50.5521757,48.25728 L46.6864211,56.2362898 C45.0946398,55.7672727 43.4387206,55.4412487 41.6895105,55.4412487 C37.0774263,55.4412487 32.7218928,57.1743239 29.4158852,60.3316095 C28.3663592,61.3382803 27.5092462,62.4765046 26.7570858,63.6719262 C25.7775281,63.408819 24.786309,63.2315077 23.7484442,63.2315077 C17.4337953,63.2315077 12.2911172,68.276301 12.2911172,74.470758 L12.2911172,85.8186831 L2.18651279,85.8186831 C0.979557732,85.8186831 0,86.7795961 0,87.9635782 C0,89.1475603 0.979557732,90.1084733 2.18651279,90.1084733 L14.0694809,90.1084733 C14.2035871,90.1313522 14.3376932,90.1885494 14.47763,90.1885494 C14.6175668,90.1885494 14.7516729,90.1313522 14.885779,90.1084733 L32.6052788,90.1084733 C32.7452155,90.1313522 32.873491,90.1885494 33.0192586,90.1885494 C33.1591953,90.1885494 33.2933014,90.1313522 33.4274075,90.1084733 L58.1729016,90.1084733 C59.3798567,90.1084733 60.3594142,89.1475603 60.3594142,87.9635782 C60.3594142,86.7795961 59.3798567,85.8186831 58.1729016,85.8186831 L52.9485936,85.8186831 C56.7793639,82.649958 59.2690734,77.9712269 59.2690734,72.6862053 C59.2690734,66.4173919 55.805637,60.9722182 50.697943,57.9522059 L51.8465912,55.578522 L68.7206394,72.0513164 C68.72647,72.0570361 68.7381312,72.0627558 68.7439621,72.0684755 C68.8255918,72.1485516 68.9422058,72.1943094 69.035497,72.262946 C69.1812647,72.3601813 69.3095401,72.4631362 69.466969,72.5260531 C69.4786305,72.5260531 69.4844611,72.5374926 69.4961223,72.5432123 C69.7468427,72.6347278 70.0033933,72.6804856 70.2599443,72.6804856 L75.3501459,72.6804856 L75.3501459,72.6862053 C75.3501459,77.9712269 77.8398553,82.649958 81.6706257,85.8186831 L74.0440689,85.8186831 C72.8371141,85.8186831 71.8575562,86.7795961 71.8575562,87.9635782 C71.8575562,89.1475603 72.8371141,90.1084733 74.0440689,90.1084733 L117.31953,90.1084733 C117.453636,90.1313522 117.587742,90.1885494 117.727679,90.1885494 L125.72157,90.1885494 C125.867337,90.1885494 125.995613,90.1313522 126.129719,90.1084733 L140.904715,90.1084733 C142.11167,90.1084733 143.091227,89.1475603 143.091227,87.9635782 C143.091227,86.7795961 142.11167,85.8186831 140.904715,85.8186831 L127.908083,85.8186831 Z" id="Shape" fill="#000000" fill-rule="nonzero"></path>
                            <path d="M124.912378,12.5735022 C124.912378,12.8714508 124.636772,13.1305365 124.319826,13.1305365 L122.149433,13.1305365 L122.149433,10.9995565 L124.319826,10.9995565 C124.643662,10.9995565 124.912378,11.2521651 124.912378,11.5565908 L124.912378,12.5735022 Z M124.319826,6.14169958 L119.565632,6.14169958 C118.139374,6.14169958 116.981831,7.22985954 116.981831,8.57062806 L116.981831,20.9354933 C116.981831,22.2762619 118.139374,23.3644218 119.565632,23.3644218 C120.99189,23.3644218 122.149433,22.2762619 122.149433,20.9354933 L122.149433,17.9883934 L124.319826,17.9883934 C127.496178,17.9883934 130.07998,15.559465 130.07998,12.5735022 L130.07998,11.5565908 C130.07998,8.57062806 127.496178,6.14169958 124.319826,6.14169958 Z" id="Shape" fill="#FFFFFF" fill-rule="nonzero"></path>
                            <path d="M68.1188097,83.6283959 C69.3257645,83.6283959 70.3053223,82.6674829 70.3053223,81.4835008 C70.3053223,80.2995187 69.3257645,79.3386057 68.1188097,79.3386057 L65.168475,79.3386057 C63.9615198,79.3386057 62.9819623,80.2995187 62.9819623,81.4835008 C62.9819623,82.6674829 63.9615198,83.6283959 65.168475,83.6283959 L68.1188097,83.6283959 Z" id="Path" fill="#000000"></path>
                        </g>
                    </g>
                </g>
            </g>
        </g>
    </g>
</svg>