<svg xmlns="http://www.w3.org/2000/svg" width="41" height="40" viewBox="0 0 41 40">
    <g fill="none" fill-rule="evenodd" stroke="#000" stroke-linecap="round" stroke-linejoin="round">
        <path d="M16.5 25a3 3 0 0 1-6 0M25.3 20.5h2.2a3.775 3.775 0 0 1 4 3.5h-8.7M19.5 19a1 1 0 0 1-1 1h-7l-1.854-1.855a.5.5 0 0 1-.146-.353V17.5a.5.5 0 0 1 .5-.5h9a.5.5 0 0 1 .5.5V19zM27.5 16.915a.5.5 0 0 1-.667.471 2 2 0 0 1 0-3.772.5.5 0 0 1 .667.471v2.83z"/>
        <path d="M22.5 12H24a1.5 1.5 0 0 1 1.5 1.5V19a6 6 0 0 1-6 6h-11a5 5 0 0 1 5-5H16a5 5 0 0 1 4.972 4.469l.02.343M24.674 24a3 3 0 1 0 5.651 0"/>
    </g>
</svg>
