<svg xmlns="http://www.w3.org/2000/svg" width="41" height="40" viewBox="0 0 41 40">
    <g fill="none" fill-rule="evenodd" stroke="#000" stroke-linecap="round" stroke-linejoin="round" transform="translate(8 8)">
        <path d="M2.5 16a1.87 1.87 0 0 1-1.555-.832A2.655 2.655 0 0 1 .5 13.7V11a3 3 0 0 1 .6-1.8l1.8-2.4A2 2 0 0 1 4.5 6H11c.644 0 1.266.236 1.747.664L16.5 10l5.02.717A2.306 2.306 0 0 1 23.5 13v2a1 1 0 0 1-1 1h-2M16.5 16h-10"/>
        <circle cx="18.5" cy="16" r="2"/>
        <circle cx="4.5" cy="16" r="2"/>
        <path d="M16.5 10H.672M9.5 16V6M5.5 6l-1 4M12.5 12h-1M6.5 12h-1M.5 12h1M21.5 13h2"/>
    </g>
</svg>
