<svg xmlns="http://www.w3.org/2000/svg" width="41" height="41" viewBox="0 0 41 41">
    <defs>
        <filter id="hccurj8iza">
            <feColorMatrix in="SourceGraphic" values="0 0 0 0 0.330000 0 0 0 0 0.330000 0 0 0 0 0.330000 0 0 0 1.000000 0"/>
        </filter>
    </defs>
    <g fill="none" fill-rule="evenodd">
        <g>
            <g filter="url(#hccurj8iza)" transform="translate(-7 -325) translate(7.5 325.5)">
                <g fill="#000">
                    <path d="M10 0C4.477 0 0 4.477 0 10c0 1.445.628 3.108 1.772 4.965.8 1.3 1.839 2.667 3.058 4.072 1.034 1.192 2.141 2.345 3.248 3.417l.56.534.718.664.205.183c.251.22.627.22.878 0l.412-.371.512-.476c.179-.168.365-.347.56-.534 1.106-1.072 2.213-2.225 3.247-3.417 1.22-1.405 2.257-2.773 3.058-4.072C19.372 13.108 20 11.445 20 10c0-5.523-4.477-10-10-10zm0 1.333c4.786 0 8.667 3.88 8.667 8.667 0 1.15-.548 2.6-1.574 4.265-.759 1.232-1.755 2.543-2.93 3.898-1.007 1.16-2.088 2.286-3.168 3.333l-.546.521-.449.418-.449-.418c-.174-.164-.356-.338-.546-.521-1.08-1.047-2.161-2.173-3.168-3.333-1.175-1.355-2.171-2.666-2.93-3.898C1.881 12.6 1.333 11.15 1.333 10c0-4.786 3.88-8.667 8.667-8.667z" transform="translate(10 8)"/>
                    <g fill-rule="nonzero">
                        <g>
                            <path d="M9.28 2c.276 0 .5.224.5.5 0 .245-.177.45-.41.492L9.28 3H.5C.224 3 0 2.776 0 2.5c0-.245.177-.45.41-.492L.5 2h8.78z" transform="translate(10 8) translate(5 4) rotate(-90 5.5 5.5)"/>
                            <path d="M8.812.142l.065.062 1.543 1.994c.083.096.124.215.123.332 0 .118-.04.236-.123.332L8.877 4.856l-.065.062c-.186.148-.456.147-.64-.014-.209-.182-.23-.498-.049-.706L9.414 2.53 8.124.862c-.182-.208-.16-.524.047-.706.185-.161.455-.162.64-.014z" transform="translate(10 8) translate(5 4) rotate(-90 5.5 5.5) matrix(1 0 0 -1 0 5.06)"/>
                        </g>
                        <g>
                            <g>
                                <path d="M9.28 2c.276 0 .5.224.5.5 0 .245-.177.45-.41.492L9.28 3H.5C.224 3 0 2.776 0 2.5c0-.245.177-.45.41-.492L.5 2h8.78z" transform="translate(10 8) translate(5 4) matrix(1 0 0 -1 5 12) rotate(-90 5.5 5.5)"/>
                                <path d="M8.812.142l.065.062 1.543 1.994c.083.096.124.215.123.332 0 .118-.04.236-.123.332L8.877 4.856l-.065.062c-.186.148-.456.147-.64-.014-.209-.182-.23-.498-.049-.706L9.414 2.53 8.124.862c-.182-.208-.16-.524.047-.706.185-.161.455-.162.64-.014z" transform="translate(10 8) translate(5 4) matrix(1 0 0 -1 5 12) rotate(-90 5.5 5.5) matrix(1 0 0 -1 0 5.06)"/>
                            </g>
                        </g>
                    </g>
                </g>
            </g>
        </g>
    </g>
</svg>
