<?xml version="1.0" encoding="utf-8"?>
<!-- Generator: Adobe Illustrator 22.1.0, SVG Export Plug-In . SVG Version: 6.00 Build 0)  -->
<svg version="1.1" id="Layer_1" xmlns="http://www.w3.org/2000/svg" xmlns:xlink="http://www.w3.org/1999/xlink" x="0px" y="0px"
	 viewBox="0 0 24 24" style="enable-background:new 0 0 24 24;" xml:space="preserve">
<g>
	<title>chat-translate</title>
	<path d="M2.5,15c-0.066,0-0.131-0.013-0.192-0.038C2.121,14.885,2,14.703,2,14.5V12H1.5C0.673,12,0,11.327,0,10.5v-9
		C0,0.673,0.673,0,1.5,0h12C14.327,0,15,0.673,15,1.5v9c0,0.276-0.224,0.5-0.5,0.5S14,10.776,14,10.5v-9C14,1.224,13.776,1,13.5,1
		h-12C1.224,1,1,1.224,1,1.5v9C1,10.776,1.224,11,1.5,11h1C2.776,11,3,11.224,3,11.5v1.793l2.146-2.146
		C5.241,11.052,5.366,11,5.5,11h2C7.776,11,8,11.224,8,11.5S7.776,12,7.5,12H5.707l-2.854,2.854C2.759,14.948,2.634,15,2.5,15z"/>
	<path d="M21.5,24c-0.134,0-0.259-0.052-0.354-0.146L18.293,21H10.5C9.673,21,9,20.327,9,19.5v-8c0-0.827,0.673-1.5,1.5-1.5h1
		c0.276,0,0.5,0.224,0.5,0.5S11.776,11,11.5,11h-1c-0.276,0-0.5,0.224-0.5,0.5v8c0,0.276,0.224,0.5,0.5,0.5h8
		c0.134,0,0.259,0.052,0.354,0.146L21,22.293V20.5c0-0.276,0.224-0.5,0.5-0.5h1c0.276,0,0.5-0.224,0.5-0.5v-8
		c0-0.276-0.224-0.5-0.5-0.5h-6c-0.276,0-0.5-0.224-0.5-0.5s0.224-0.5,0.5-0.5h6c0.827,0,1.5,0.673,1.5,1.5v8
		c0,0.827-0.673,1.5-1.5,1.5H22v2.5c0,0.203-0.121,0.385-0.309,0.462C21.631,23.987,21.566,24,21.5,24z"/>
	<path d="M8.5,9C8.224,9,8,8.776,8,8.5V6H6v2.5C6,8.776,5.776,9,5.5,9S5,8.776,5,8.5V4c0-1.103,0.897-2,2-2s2,0.897,2,2v4.5
		C9,8.776,8.776,9,8.5,9z M8,5V4c0-0.551-0.449-1-1-1S6,3.449,6,4v1H8z"/>
	<path d="M20,18.5c-0.029,0-0.059-0.002-0.089-0.008c-0.882-0.158-1.712-0.536-2.411-1.097c-0.7,0.561-1.529,0.939-2.412,1.097
		C15.059,18.498,15.029,18.5,15,18.5c-0.242,0-0.449-0.173-0.492-0.412c-0.049-0.271,0.132-0.532,0.404-0.581
		c0.677-0.121,1.316-0.402,1.864-0.816c-0.655-0.766-1.073-1.688-1.221-2.692H14.5c-0.276,0-0.5-0.224-0.5-0.5s0.224-0.5,0.5-0.5H17
		v-0.5c0-0.276,0.224-0.5,0.5-0.5s0.5,0.224,0.5,0.5V13h2.5c0.276,0,0.5,0.224,0.5,0.5S20.776,14,20.5,14h-1.054
		c-0.147,1.004-0.566,1.926-1.221,2.692c0.548,0.414,1.187,0.694,1.864,0.816c0.271,0.049,0.452,0.309,0.404,0.581
		C20.449,18.327,20.242,18.5,20,18.5z M16.567,14c0.135,0.741,0.453,1.424,0.933,2c0.48-0.577,0.799-1.26,0.933-2H16.567z"/>
</g>
</svg>
