<svg height="85" viewBox="0 0 188 85" width="188" xmlns="http://www.w3.org/2000/svg"><g fill="none" fill-rule="evenodd" transform="translate(0 .803)"><path d="m0 83.408h188v-83.408h-188z" fill="#fffffe"/><path d="m24 70.063h13v-56.718h-13zm23-55.606 23 32.252v-32.252zm1 23.355v32.251h23z" fill="#ed9f2d"/><path d="m82.82 69.2h1.159c.872 0 1.183-.755 1.183-1.326 0-1.24-.632-1.456-1.469-1.456h-.874v2.782zm0-3.644h1.195c.64-.011.951-.485.951-1.24 0-.647-.302-1.175-.987-1.175h-1.16v2.415zm-.82 4.507v-7.785h2.094c.892 0 1.194.366 1.435.797.221.42.257.885.257 1.036 0 .97-.274 1.617-1.104 1.844v.053c.918.13 1.318.8 1.318 1.866 0 1.994-1.202 2.189-1.932 2.189zm6.899 0h-.899v-7.785h1.558l1.905 6.534h.02l1.925-6.534h1.592v7.785h-.963v-6.922h-.021l-2.113 6.922h-.911l-2.071-6.922h-.022zm7.921-.863h1.157c.874 0 1.186-.755 1.186-1.326 0-1.24-.633-1.456-1.47-1.456h-.874v2.782zm0-3.644h1.194c.64-.011.953-.485.953-1.24 0-.647-.303-1.175-.99-1.175h-1.157zm-.82 4.507v-7.785h2.094c.891 0 1.193.366 1.435.797.223.42.257.885.257 1.036 0 .97-.276 1.617-1.104 1.844v.053c.917.13 1.318.8 1.318 1.866 0 1.994-1.202 2.189-1.933 2.189zm5 0v-7.785h3v.863h-2.23v2.501h2.113v.863h-2.113v3.558zm39.855-56.183h-2.66l-7.144 18.948h3.306l1.709-4.674h6.807l1.709 4.674h3.418l-7.145-18.947zm-11.904 0h-3.054v12.506l-8.797-12.505h-2.383v18.947h3.055v-12.508l8.797 12.507h2.382zm-36.192 0h-10.759v18.948h3.419v-8.4h5.941v-2.968h-5.94v-4.579h7.34v-3zm44.231 11.59 2.494-6.885 2.463 6.885zm-33.84 4.832c-3.363 0-5.574-2.843-5.574-6.95 0-4.104 2.211-6.946 5.575-6.946 3.307 0 5.493 2.842 5.493 6.947 0 4.106-2.186 6.95-5.493 6.95zm0-16.957c-5.153 0-9.16 4.198-9.16 10.008 0 5.813 4.007 10.01 9.16 10.01 5.128 0 9.075-4.197 9.075-10.01 0-5.81-3.947-10.008-9.074-10.008z" fill="#0a0b09"/><path d="m82.85 40.99v.218c0 .256.032.467.096.637.064.169.149.305.256.409.107.103.225.177.357.222.13.045.264.067.397.067.165 0 .32-.02.467-.062.146-.042.272-.11.375-.207.103-.096.186-.222.247-.378.061-.155.092-.343.092-.563 0-.276-.074-.508-.22-.694-.148-.186-.331-.355-.553-.508-.22-.15-.459-.296-.715-.434-.257-.138-.496-.3-.717-.487-.22-.186-.404-.405-.55-.657-.148-.252-.221-.564-.221-.937 0-.331.049-.622.147-.874s.234-.464.408-.637c.175-.172.382-.302.62-.388.24-.086.496-.13.772-.13.606 0 1.07.175 1.391.523.322.349.47.903.446 1.661h-.882c.006-.406-.062-.735-.207-.982-.143-.249-.415-.373-.812-.373-.129 0-.253.019-.372.057-.12.038-.228.1-.326.186s-.177.2-.234.342c-.06.141-.088.312-.088.512 0 .276.074.505.22.688.148.183.331.349.552.497.22.148.459.293.716.435.257.141.496.305.716.491.22.187.405.413.552.678.147.266.22.596.22.99 0 .392-.056.722-.17.987s-.264.48-.45.641c-.187.164-.404.28-.652.348-.248.07-.51.104-.785.104-.325.006-.6-.034-.823-.12s-.407-.196-.55-.332c-.145-.134-.256-.29-.336-.464-.08-.177-.136-.352-.17-.529-.034-.176-.053-.347-.06-.512-.006-.166-.006-.307 0-.425zm5.65 2.785c.167 0 .303-.042.41-.127.107-.084.192-.219.254-.402.062-.184.105-.426.129-.726.023-.3.035-.67.035-1.107 0-.367-.02-.665-.059-.895s-.095-.41-.167-.54c-.074-.13-.16-.22-.262-.27s-.215-.075-.34-.075-.238.026-.34.075c-.102.05-.189.14-.262.27-.072.13-.129.31-.168.54s-.058.528-.058.895c0 .438.011.807.035 1.107.023.3.066.542.128.726.063.183.148.318.255.402.106.085.243.127.41.127zm0 .71c-.209 0-.404-.03-.586-.09-.183-.06-.342-.186-.477-.377-.135-.19-.242-.462-.32-.815s-.117-.826-.117-1.419c0-.388.014-.757.043-1.107s.094-.653.195-.91c.102-.259.251-.463.45-.615.197-.152.468-.228.812-.228s.614.076.812.228.348.356.45.614c.101.258.166.561.195.911.028.35.043.719.043 1.107 0 .593-.04 1.066-.117 1.42-.078.352-.185.624-.32.814-.136.19-.295.317-.477.377-.183.06-.378.09-.586.09zm5.435-4.901-2.098 3.199h2.163v.589h-3v-.677l2.069-3.163v-.017h-1.966v-.591h2.832zm1.12 3.788h.89v-5.445h-.89zm-.055-6.836h1v-.949h-1v.95zm4.227 5.184c-.162 0-.335.004-.517.011s-.348.043-.5.105c-.15.065-.276.168-.373.313-.099.145-.147.359-.147.641 0 .262.053.49.16.689.105.198.273.296.503.296.107 0 .214-.026.324-.08.109-.052.207-.153.294-.3.086-.15.155-.357.206-.626.05-.269.067-.618.05-1.05zm.017 1.885h-.017c-.106.312-.244.535-.412.673s-.386.206-.655.206c-.225 0-.41-.043-.558-.132-.15-.088-.268-.21-.358-.365s-.153-.34-.19-.556c-.035-.215-.054-.45-.054-.704 0-.403.07-.719.21-.948.14-.23.32-.398.538-.503.219-.106.46-.17.722-.19.264-.022.516-.03.757-.022.006-.177.006-.353 0-.53-.006-.176-.031-.335-.076-.477-.045-.14-.116-.256-.214-.344s-.24-.132-.424-.132c-.235 0-.41.088-.526.265-.114.176-.16.406-.138.688h-.748c.017-.6.148-1.019.39-1.255.244-.237.593-.355 1.047-.355.275 0 .5.043.677.128.176.084.316.199.42.343.103.145.176.315.218.509s.062.404.062.63v2.574c0 .211.008.425.022.64.014.216.035.426.063.63h-.756zm1.756-.233h1v-7.785h-1zm2-1.112h2v-1.112h-2zm5.82-4.41h.735v-1.15h-.735zm-.32 5.894c.167 0 .303-.044.41-.133.107-.088.192-.228.254-.42.063-.191.106-.444.129-.758.023-.313.035-.698.035-1.155 0-.383-.02-.695-.058-.935-.04-.24-.096-.427-.168-.563-.073-.137-.16-.23-.262-.283-.102-.05-.215-.077-.34-.077s-.238.026-.34.077c-.102.053-.189.146-.262.283-.072.136-.128.324-.168.563-.039.24-.058.552-.058.935 0 .457.012.842.035 1.155.023.314.066.567.129.758.062.192.147.332.254.42.106.089.243.133.41.133zm-1.055-5.894h.735v-1.15h-.735zm1.055 6.634c-.208 0-.404-.03-.586-.093-.183-.063-.341-.194-.477-.393-.135-.199-.242-.482-.32-.851s-.117-.862-.117-1.482c0-.405.014-.79.043-1.156.029-.365.094-.682.195-.95.102-.27.252-.483.45-.642.197-.158.468-.238.812-.238s.615.08.813.238c.197.159.347.372.449.641.101.27.166.586.195.951s.043.75.043 1.156c0 .62-.04 1.113-.117 1.482-.078.369-.185.652-.32.85-.136.2-.295.331-.477.394-.183.062-.378.093-.586.093zm3.168-1.112h-.668v-7.785h.668v4.691h.017l1.255-2.351h.815l-1.369 2.341 1.614 3.104h-.848l-1.467-3.051h-.017zm4.832.403c.167 0 .303-.042.41-.127.107-.084.192-.219.255-.402.062-.184.105-.426.128-.726.024-.3.035-.67.035-1.107 0-.367-.02-.665-.058-.895-.04-.23-.096-.41-.168-.54-.073-.13-.16-.22-.262-.27s-.215-.075-.34-.075-.238.026-.34.075c-.102.05-.188.14-.262.27-.072.13-.128.31-.167.54-.04.23-.06.528-.06.895 0 .438.013.807.036 1.107.024.3.067.542.129.726.062.183.147.318.254.402.106.085.243.127.41.127zm0 .71c-.208 0-.404-.03-.586-.09s-.341-.186-.477-.377c-.135-.19-.242-.462-.32-.815s-.117-.826-.117-1.419c0-.388.015-.757.043-1.107.029-.35.094-.653.195-.91.102-.259.252-.463.45-.615.197-.152.468-.228.812-.228s.615.076.813.228c.197.152.347.356.449.614.101.258.166.561.195.911s.043.719.043 1.107c0 .593-.04 1.066-.117 1.42-.078.352-.185.624-.32.814-.136.19-.295.317-.477.377s-.378.09-.586.09zm2.5-1.113h1v-7.785h-1zm4.5.403c.167 0 .303-.042.41-.127.107-.084.192-.219.255-.402.062-.184.105-.426.128-.726.024-.3.035-.67.035-1.107 0-.367-.02-.665-.058-.895-.04-.23-.096-.41-.168-.54-.073-.13-.16-.22-.262-.27s-.215-.075-.34-.075-.238.026-.34.075c-.101.05-.188.14-.262.27-.072.13-.128.31-.167.54-.04.23-.06.528-.06.895 0 .438.013.807.036 1.107.024.3.067.542.129.726.062.183.147.318.254.402.106.085.243.127.41.127zm0 .71c-.208 0-.404-.03-.586-.09s-.341-.186-.477-.377c-.135-.19-.242-.462-.32-.815-.077-.353-.117-.826-.117-1.419 0-.388.015-.757.043-1.107.029-.35.094-.653.195-.91.102-.259.252-.463.45-.615s.468-.228.812-.228.615.076.813.228c.197.152.347.356.449.614.101.258.166.561.195.911s.043.719.043 1.107c0 .593-.04 1.066-.117 1.42-.078.352-.185.624-.32.814s-.295.317-.477.377-.378.09-.586.09zm4.833-3.806c0-.206-.003-.432-.008-.678-.006-.246-.033-.476-.08-.689-.047-.214-.126-.392-.236-.535-.112-.143-.276-.216-.493-.216-.194 0-.345.069-.454.205-.108.136-.187.305-.237.507s-.08.418-.091.645c-.012.228-.017.434-.017.618 0 .448.018.814.054 1.097s.09.507.162.673c.072.165.158.279.258.342.1.062.215.093.342.093.206 0 .362-.072.471-.215.108-.143.188-.32.237-.53.05-.209.078-.433.084-.672.005-.239.008-.454.008-.645zm-.017-2.757h.684v6.131c0 .31-.038.564-.113.767-.075.202-.18.36-.316.474-.137.113-.3.192-.488.236-.189.045-.4.066-.633.066-.178 0-.346-.029-.505-.087-.158-.059-.297-.15-.416-.27-.12-.122-.212-.276-.279-.464-.067-.187-.092-.41-.074-.667h.766c.005.258.067.456.183.595.117.14.27.21.458.21.24 0 .421-.088.545-.264.126-.177.188-.408.188-.695v-1.158h-.025c-.089.22-.22.391-.391.513-.172.121-.35.181-.534.181-.283 0-.513-.076-.691-.23-.178-.155-.317-.364-.417-.63-.1-.264-.168-.577-.204-.936-.036-.36-.054-.746-.054-1.158 0-.64.053-1.142.158-1.506.106-.363.23-.635.37-.816.142-.18.289-.292.439-.335.15-.045.266-.067.35-.067.222 0 .417.064.587.193s.301.33.396.601h.016zm1.738 5.45h.892v-5.445h-.892zm-.054-6.836h1v-.949h-1v.95zm6 6.317c0 .297-.038.547-.115.752-.078.205-.183.374-.317.504-.135.13-.295.226-.48.286-.186.06-.385.09-.596.09-.469 0-.837-.136-1.106-.409-.268-.271-.397-.714-.385-1.328h.797c0 .078.004.174.012.292.01.115.036.228.082.338s.117.203.214.28c.097.079.234.117.412.117.21 0 .388-.067.53-.202.144-.134.215-.338.215-.614 0-.155-.053-.29-.158-.407-.106-.117-.239-.226-.398-.329-.16-.102-.335-.204-.523-.307-.189-.102-.363-.222-.523-.36s-.293-.3-.4-.487c-.104-.187-.157-.415-.157-.683 0-.141.02-.297.06-.466.04-.17.115-.328.227-.477.11-.149.264-.271.459-.371.194-.098.442-.148.745-.148.194 0 .377.03.548.09s.322.15.45.27c.129.12.227.277.296.472.068.194.094.422.077.682h-.78c.006-.281-.05-.495-.167-.64s-.287-.217-.51-.217c-.189 0-.347.062-.475.185-.13.124-.193.302-.193.535 0 .156.053.29.158.402.106.114.239.22.4.319.158.098.333.197.522.296.188.099.363.217.523.355.159.137.291.302.398.492.105.19.158.42.158.688m3.24-2.107c.005-.22-.01-.4-.048-.546-.037-.144-.085-.26-.145-.343-.06-.085-.126-.144-.197-.176-.071-.031-.14-.048-.209-.048-.137 0-.26.026-.372.075-.111.05-.207.14-.287.27-.079.13-.14.31-.183.54s-.064.528-.064.895c0 .438.013.807.038 1.107.026.3.073.542.141.726.068.183.161.318.278.402.117.085.266.127.45.127.038 0 .096-.016.17-.048.074-.031.145-.091.214-.18.068-.088.126-.208.175-.36.048-.152.07-.348.063-.587h.736c.005.374-.04.682-.137.926s-.215.436-.355.577c-.14.142-.29.24-.449.297-.159.056-.298.084-.418.084-.228 0-.442-.03-.641-.089-.2-.06-.374-.186-.521-.377-.15-.19-.265-.462-.351-.815s-.128-.826-.128-1.419c0-.388.015-.757.047-1.107.031-.35.102-.653.213-.91.112-.259.275-.463.492-.615.216-.152.513-.228.89-.228.432 0 .767.154 1.003.46.236.308.343.762.32 1.362h-.726m4.072 2.626v-3.687c0-.165-.011-.318-.034-.458-.022-.14-.063-.26-.121-.361-.06-.101-.138-.18-.236-.238-.098-.057-.22-.086-.366-.086-.173 0-.316.041-.428.124s-.2.198-.265.345c-.064.148-.109.32-.134.518-.025.197-.038.412-.038.64v3.203h-.689v-7.785h.689v3.041h.034c.14-.316.296-.53.47-.641.174-.112.401-.168.681-.168.364 0 .643.128.836.383.194.256.29.693.29 1.31v3.86zm4.988-2.043c0-.389-.02-.698-.061-.927-.04-.23-.095-.406-.165-.53s-.157-.203-.259-.239c-.102-.034-.212-.052-.33-.052-.108 0-.207.02-.298.063-.092.043-.173.128-.243.254-.07.128-.126.306-.168.535-.043.23-.065.529-.065.896zm-1.589.656c0 .375.018.678.056.91.038.234.091.416.161.546.07.131.156.22.259.265.101.046.218.07.346.07.113 0 .213-.029.299-.086.085-.057.158-.13.217-.222.06-.092.105-.2.138-.323.031-.124.05-.252.056-.386h.726c-.006.6-.136 1.038-.392 1.313-.255.275-.598.412-1.028.412-.215 0-.416-.03-.605-.089-.187-.06-.352-.186-.491-.377-.14-.19-.25-.462-.331-.815-.08-.353-.121-.826-.121-1.419 0-.388.015-.757.045-1.107s.096-.653.201-.91c.105-.259.26-.463.464-.615s.483-.228.838-.228c.29 0 .53.053.718.16.188.105.336.266.443.48.108.216.183.487.226.812.043.324.065.71.065 1.153v.456zm-64.71 12.508v-7.784h3v.863h-2.229v2.501h2.111v.863h-2.111v3.557zm5.5-.709c.167 0 .303-.042.41-.127.107-.084.192-.219.254-.402.063-.184.106-.426.13-.726.022-.3.034-.67.034-1.107 0-.367-.02-.665-.058-.895-.04-.23-.096-.41-.168-.54-.073-.13-.16-.221-.262-.27-.102-.05-.215-.075-.34-.075s-.238.026-.34.075-.189.14-.262.27c-.072.13-.128.31-.167.54-.04.23-.06.528-.06.895 0 .438.013.807.036 1.107.024.3.067.542.129.726.062.183.147.318.254.402.106.085.243.127.41.127zm0 .71c-.208 0-.404-.03-.586-.09-.183-.06-.341-.186-.477-.377-.135-.19-.242-.462-.32-.815s-.117-.826-.117-1.419c0-.389.015-.757.043-1.107.029-.349.094-.653.195-.91.102-.258.252-.463.45-.615.197-.152.468-.228.812-.228s.615.076.813.228c.197.152.347.357.449.614.101.258.166.562.195.911.029.35.043.718.043 1.107 0 .593-.04 1.066-.117 1.42-.078.352-.185.624-.32.814-.136.19-.295.317-.477.377-.183.06-.378.09-.586.09zm3.526-4.632h.024c.108-.21.222-.375.344-.497.12-.123.258-.216.413-.281.154-.064.329-.106.525-.124.195-.018.418-.027.668-.027v.918c-.042-.007-.088-.013-.138-.017-.05-.002-.095-.008-.137-.015s-.086-.013-.132-.017c-.045-.003-.093-.005-.142-.005-.284 0-.518.043-.701.13-.183.085-.33.198-.438.335-.108.136-.183.295-.224.474-.042.18-.062.36-.062.54v3.217h-1.026v-5.452h1.026zm5.974 3c0 .297-.038.547-.115.752-.078.205-.183.374-.318.504-.134.13-.294.226-.48.286s-.384.09-.595.09c-.469 0-.837-.136-1.106-.409-.268-.271-.397-.714-.385-1.328h.797c0 .078.004.174.012.292.01.115.036.228.082.338s.117.203.214.28c.097.079.234.117.412.117.21 0 .388-.067.53-.202.144-.134.215-.338.215-.614 0-.155-.053-.29-.158-.407-.106-.117-.239-.226-.398-.33-.16-.101-.335-.203-.523-.305-.189-.103-.363-.224-.523-.36-.16-.138-.293-.301-.4-.488-.104-.187-.157-.415-.157-.683 0-.141.02-.296.06-.466s.115-.328.227-.477c.11-.148.264-.272.459-.371.193-.098.442-.148.745-.148.194 0 .377.03.548.09s.322.15.45.27c.129.12.227.277.296.472.068.194.094.422.077.682h-.78c.006-.281-.05-.495-.167-.64-.118-.144-.287-.218-.51-.218-.189 0-.347.063-.475.186-.13.124-.193.302-.193.535 0 .155.053.29.158.402.106.113.239.22.4.319.158.098.333.197.522.296.188.099.362.217.523.355.159.137.291.302.398.492.105.19.158.42.158.688m3.239-2.107c.006-.22-.01-.4-.047-.546-.037-.144-.085-.26-.146-.344-.059-.084-.125-.143-.196-.175-.071-.031-.14-.048-.209-.048-.137 0-.26.026-.372.075-.111.049-.207.14-.287.27-.079.13-.14.31-.183.54s-.064.528-.064.895c0 .438.013.807.038 1.107.026.3.073.542.141.726.068.183.16.318.277.402.118.085.267.127.45.127.04 0 .097-.016.17-.048.075-.031.146-.091.214-.18.07-.088.127-.208.176-.36.048-.152.07-.348.063-.587h.736c.005.374-.04.682-.137.926s-.215.436-.355.577c-.14.142-.29.24-.449.297-.159.056-.298.084-.418.084-.228 0-.442-.03-.641-.089-.2-.06-.374-.186-.521-.377-.15-.19-.265-.462-.351-.815s-.128-.826-.128-1.419c0-.389.015-.757.047-1.107.03-.349.102-.653.213-.91.112-.258.275-.463.492-.615.216-.152.512-.228.89-.228.432 0 .767.154 1.003.46.236.308.343.762.32 1.362zm4.072 3.738v-3.687c0-.165-.011-.318-.034-.458-.022-.14-.063-.26-.122-.361-.058-.101-.137-.18-.235-.238-.098-.057-.22-.086-.366-.086-.173 0-.316.042-.428.124-.112.083-.2.199-.265.346-.064.147-.109.32-.134.516-.025.198-.038.413-.038.642v3.202h-.689v-7.783h.689v3.04h.034c.14-.315.296-.53.47-.641.174-.11.401-.168.681-.168.364 0 .643.128.836.384.193.255.29.692.29 1.31v3.86h-.689m4.952-5.562h.695v4.32c0 .186.004.375.013.566.008.191.018.38.029.566h-.737v-.658h-.026c-.113.252-.265.443-.457.573s-.401.193-.627.193c-.373 0-.659-.116-.856-.35-.198-.234-.297-.585-.297-1.053v-4.157h.695v3.788c0 .332.06.599.178.8.119.202.302.303.55.303.091 0 .187-.023.29-.07.1-.047.191-.121.27-.222.08-.101.146-.23.2-.39.053-.158.08-.353.08-.585zm4.057 5.56v-3.779c0-.143-.013-.28-.035-.41s-.06-.243-.116-.34c-.055-.098-.131-.173-.228-.227-.098-.054-.217-.08-.361-.08-.19 0-.339.048-.45.145-.11.097-.196.223-.257.378s-.101.328-.12.52c-.02.19-.03.378-.03.566v3.227h-.681v-4.319c0-.187-.004-.375-.013-.566-.008-.19-.017-.38-.029-.567h.723v.702h.033c.134-.31.286-.522.458-.637.171-.115.393-.173.664-.173.222 0 .406.041.553.124s.262.204.345.362.14.348.174.567c.033.22.05.463.05.728v3.78h-.68m4.013-2.694c0-.205-.003-.432-.008-.678-.006-.246-.033-.476-.08-.689-.047-.214-.126-.392-.236-.535-.112-.143-.275-.215-.493-.215-.194 0-.345.069-.454.203-.108.137-.187.306-.237.509-.05.201-.08.416-.091.645-.012.227-.017.433-.017.617 0 .448.018.814.054 1.097s.09.507.162.673c.072.165.158.279.258.342.101.062.215.093.342.093.206 0 .362-.072.471-.215.108-.143.188-.32.238-.53.05-.208.077-.433.083-.672.005-.238.008-.453.008-.645zm-.017-2.756h.684v6.13c0 .31-.038.564-.113.767-.075.202-.18.36-.316.474-.137.114-.3.192-.488.236-.188.045-.4.066-.633.066-.178 0-.346-.029-.504-.087-.159-.059-.298-.15-.417-.27-.12-.122-.212-.276-.278-.464-.068-.187-.092-.41-.075-.667h.766c.005.258.067.456.183.595.117.14.27.21.458.21.24 0 .421-.088.545-.264.126-.176.188-.408.188-.695v-1.158h-.025c-.089.221-.22.392-.391.513-.172.121-.35.181-.534.181-.282 0-.513-.076-.691-.23-.178-.155-.317-.364-.417-.63-.1-.264-.168-.577-.204-.936-.036-.36-.054-.746-.054-1.158 0-.64.053-1.142.159-1.505.105-.364.229-.636.37-.817.141-.18.288-.291.438-.336.15-.043.266-.066.35-.066.222 0 .417.064.587.193s.301.33.396.601h.016z" fill="#ed9f2d"/></g></svg>