<svg enable-background="new 0 0 1500 690.1" viewBox="0 0 1500 690.1" xmlns="http://www.w3.org/2000/svg"><path d="m16.3 434v-416.6h242.2l-4.8 66.4h-156.4v120.2h146.7v66.4h-146.7v163.7h-81z" fill="#009871"/><path d="m491.6 441.3c-111.8 0-189.6-73.7-189.6-215.6s79.2-215.7 190.3-215.7 189.1 73.7 189.1 215.6-78.7 215.7-189.8 215.7zm.5-362.8c-65.9 0-105.1 47.8-105.1 147.3 0 98.5 39.3 147.3 105.1 147.3 64.7 0 104.5-49 104.5-147.3 0-99.7-39.8-147.3-104.5-147.3z" fill="#009871"/><path d="m1062.7 434h-69.5l-171.4-260.3h-1.2v260.3h-80.9v-416.6h69.5l171.5 258.4h1.2v-258.4h80.9v416.6z" fill="#80cdec"/><path d="m1395.3 434-36.2-112.3h-128.7l-36.2 112.3h-80.9l153.4-416.6h63.3l152.8 416.6zm-99.5-312.7h-1.2l-45.9 142.5h93z" fill="#009871"/><path d="m17.2 653.4v-86.3h47.8l-.7 9h-36.1v31.4h33.1v9h-33.1v36.9z"/><path d="m100.7 655c-14.7 0-25.9-10-25.9-31.6 0-21.7 12.9-31.6 27.4-31.6 14.7 0 25.9 9.8 25.9 31.6 0 21.6-13.1 31.6-27.4 31.6zm.7-54c-9.3 0-16.2 7.1-16.2 22.4 0 15.2 6.7 22.4 16.2 22.4 9.7 0 16-7.2 16-22.4.2-15.3-6.5-22.4-16-22.4z"/><path d="m173 602.5c-.7-.3-2.2-1.2-5.5-1.2-7.9 0-12.1 4.8-13.8 8.5v43.6h-10.2v-60h9.3v8.8h.2c1.9-4.3 5.9-10 15.2-10 2.4 0 4 .3 5.5.9z"/><path d="m215.4 606c-2.1-1.7-6.6-5.2-13.3-5.2-6.6 0-9.7 2.8-9.7 6.2 0 4.7 2.8 6.9 9.1 10.2l4.5 2.2c9.3 4.8 14.5 9.8 14.5 18.6 0 9.1-6.7 17.1-21.4 17.1-10 0-15.2-4-17.9-6.4l3.8-9c2.6 2.6 7.1 6.2 14.3 6.2 7.6 0 11.6-2.9 11.6-6.7 0-5.7-3.8-7.9-10.5-11.6l-4.5-2.4c-8.6-4.7-12.9-9.7-12.9-17.9 0-9 7.9-15.5 19.3-15.5 9.7 0 14.3 4 16.4 5.7z"/><path d="m273.9 605.1c-1.2-1-5.7-4.3-12.4-4.3-10.9 0-18.8 6.2-18.8 21.7 0 17.3 7.2 23.5 17.9 23.5 6.4 0 10.4-2.4 12.4-4l2.9 7.6c-2.2 2.1-7.1 5.3-17.3 5.3-15.7 0-26.6-9.3-26.6-32.1 0-21.9 15-31.1 29-31.1 9.1 0 13.5 3.5 16 5.2z"/><path d="m328.2 653.4v-35.5c0-11.6-3.5-17.1-12.1-17.1-8.1 0-12.9 4-15.7 6.6v46.1h-10.2v-88.3l10.2-1.2v35.7h.2c2.9-2.9 8.6-7.6 17.9-7.6 12.8 0 19.7 7.9 19.7 24.3v37.1h-10z"/><path d="m403.1 653.4h-9.3v-6.7h-.2c-1.9 2.2-6.7 8.3-18.5 8.3-12.4 0-19.1-7.6-19.1-24.3v-37.1h10.2v35.5c0 11.9 3.5 17.1 11.6 17.1 8.5 0 12.9-4.1 15.4-6.6v-46.1h10.2v59.9z"/><path d="m459.7 653.4v-35.5c0-11.6-3.5-17.1-12.1-17.1-8.1 0-12.9 4-15.7 6.6v46.1h-10.2v-60h9.3v6.7h.2c2.4-2.6 8.3-8.3 18.6-8.3 12.8 0 19.7 7.9 19.7 24.3v37.1h-9.8z"/><path d="m536.6 601.3h-9.1c2.1 3.1 3.5 6.9 3.5 10.9 0 12.8-10.2 20.2-23.5 20.2-1.7 0-3.5-.2-5-.3-2.1.9-5 2.6-5 5.9 0 2.4 1.9 4.3 6.4 4.3h12.2c12.6 0 19.8 5.2 19.8 15.9 0 11.4-10.9 21.9-31.7 21.9-14.3 0-22.4-5.5-22.4-16.2 0-9.1 6.9-12.9 10.5-14.7v-.2c-2.6-2.1-3.8-5.2-3.8-8.5 0-6.2 5.5-9.3 7.1-10v-.2c-6.2-2.9-10.2-8.8-10.2-17.8 0-13.5 10.2-20.2 22.8-20.2 3.3 0 6.2.5 9 1.6h20.7zm-39 49.7c-3.1 1.9-6.2 4.8-6.2 10.7 0 6.7 4.5 9.7 13.5 9.7 14.7 0 20.9-5.7 20.9-11.7 0-5.7-2.9-7.9-9.7-7.9h-13.3c-2.1-.3-3.6-.3-5.2-.8zm10.7-50.7c-6.9 0-12.9 3.3-12.9 11.9s6.2 11.9 12.8 11.9c6.9 0 12.9-3.3 12.9-11.9s-6.2-11.9-12.8-11.9z"/><path d="m605.8 602h-14.3v51.4h-10.2v-51.4h-8.3v-7l8.3-1.6v-10.2c0-13.5 7.1-20.2 19.1-20.2 4.3 0 7.2 1.6 7.9 1.9l-1.4 8.8c-.9-.3-3.5-1.6-6.7-1.6-5.9 0-8.8 2.9-8.8 11.2v10h15.7z"/><path d="m665.5 653.4h-9.3v-6.7h-.2c-1.9 2.2-6.7 8.3-18.5 8.3-12.4 0-19.1-7.6-19.1-24.3v-37.1h10.2v35.5c0 11.9 3.5 17.1 11.6 17.1 8.5 0 12.9-4.1 15.4-6.6v-46.1h10.2v59.9zm-34.5-70.9c-3.5 0-6.2-2.4-6.2-6.4 0-3.8 2.8-6.4 6.2-6.4s6.2 2.6 6.2 6.4c0 4-2.8 6.4-6.2 6.4zm21.4 0c-3.5 0-6.2-2.4-6.2-6.4 0-3.8 2.8-6.4 6.2-6.4s6.2 2.6 6.2 6.4c-.2 4-3 6.4-6.2 6.4z"/><path d="m713.4 602.5c-.7-.3-2.2-1.2-5.5-1.2-7.9 0-12.1 4.8-13.8 8.5v43.6h-10.2v-60h9.3v8.8h.2c1.9-4.3 5.9-10 15.2-10 2.4 0 4 .3 5.5.9z"/><path d="m821.4 653.4h-10.2l-43.3-66.6h-.2v66.6h-10.9v-86.3h10.2l43.3 66.2h.2v-66.2h10.9z"/><path d="m865.9 620.1h5v-4.7c0-10.5-4.1-14.5-11.9-14.5-7.2 0-12.2 3.5-14.8 5.5l-3.8-7.4c3.1-2.4 9.3-7.1 20.5-7.1 13.1 0 20.2 7.6 20.2 23.5v25.6c0 5.2.5 10.9.7 12.4h-9.7l-.3-6.6h-.2c-2.1 3.5-7.2 8.1-16.7 8.1-9.8 0-16.2-7.1-16.2-17.1-.2-12.3 11.7-17.7 27.2-17.7zm5 20.2v-12.9l-5.7.2c-11.4.5-16.6 3.3-16.6 9.7 0 5.9 4 9.1 8.5 9.1 8 0 11.6-3.7 13.8-6.1z"/><path d="m937.9 605.1c-1.2-1-5.7-4.3-12.4-4.3-10.9 0-18.8 6.2-18.8 21.7 0 17.3 7.2 23.5 17.9 23.5 6.4 0 10.4-2.4 12.4-4l2.9 7.6c-2.2 2.1-7.1 5.3-17.3 5.3-15.7 0-26.6-9.3-26.6-32.1 0-21.9 15-31.1 29-31.1 9.1 0 13.5 3.5 16 5.2z"/><path d="m992.4 653.4v-35.5c0-11.6-3.4-17.1-12.1-17.1-8.1 0-12.9 4-15.7 6.6v46.1h-10.2v-88.3l10.2-1.2v35.7h.2c2.9-2.9 8.6-7.6 17.9-7.6 12.8 0 19.7 7.9 19.7 24.3v37.1h-10z"/><path d="m1058.4 653.4v-35.5c0-11.6-3.4-17.1-12.1-17.1-8.1 0-12.9 4-15.7 6.6v46.1h-10.2v-88.3l10.2-1.2v35.7h.2c2.9-2.9 8.6-7.6 17.9-7.6 12.8 0 19.7 7.9 19.7 24.3v37.1h-10z"/><path d="m1110.2 620.1h5v-4.7c0-10.5-4.1-14.5-11.9-14.5-7.2 0-12.2 3.5-14.8 5.5l-3.8-7.4c3.1-2.4 9.3-7.1 20.5-7.1 13.1 0 20.2 7.6 20.2 23.5v25.6c0 5.2.5 10.9.7 12.4h-9.8l-.3-6.6h-.2c-2.1 3.5-7.2 8.1-16.7 8.1-9.8 0-16.2-7.1-16.2-17.1-.1-12.3 11.6-17.7 27.3-17.7zm5 20.2v-12.9l-5.7.2c-11.4.5-16.6 3.3-16.6 9.7 0 5.9 4 9.1 8.5 9.1 7.8 0 11.5-3.7 13.8-6.1z"/><path d="m1153.7 638.8c0 5.7 1.7 7.4 5.7 7.4 2.1 0 3.6-.5 4.3-.7l.7 7.2c-.7.3-3.5 1.9-8.3 1.9-7.9 0-12.4-3.6-12.4-15.4v-74.2l10.2-1.2v74.9h-.2z"/><path d="m1203.9 602h-15.5v31.1c0 9.3 2.4 12.9 9 12.9 3.3 0 5.7-1.2 7.1-1.7l1 8.1c-1 .7-4.3 2.6-10.7 2.6-11.7 0-16.4-6.7-16.4-20.5v-32.5h-8.3v-7l8.3-1.6 1.2-16.7h9v16.7h16.7z"/><path d="m1222.8 578.9c-4 0-7.1-2.8-7.1-7.1s3.1-7.2 7.1-7.2 7.2 2.9 7.2 7.2-3.2 7.1-7.2 7.1zm5 74.5h-10.2v-60h10.2z"/><path d="m1295.3 601.3h-9.1c2.1 3.1 3.5 6.9 3.5 10.9 0 12.8-10.2 20.2-23.5 20.2-1.7 0-3.4-.2-5-.3-2.1.9-5 2.6-5 5.9 0 2.4 1.9 4.3 6.4 4.3h12.2c12.6 0 19.8 5.2 19.8 15.9 0 11.4-10.9 21.9-31.7 21.9-14.3 0-22.4-5.5-22.4-16.2 0-9.1 6.9-12.9 10.5-14.7v-.2c-2.6-2.1-3.8-5.2-3.8-8.5 0-6.2 5.5-9.3 7.1-10v-.2c-6.2-2.9-10.2-8.8-10.2-17.8 0-13.5 10.2-20.2 22.8-20.2 3.3 0 6.2.5 9 1.6h20.7zm-39 49.7c-3.1 1.9-6.2 4.8-6.2 10.7 0 6.7 4.5 9.7 13.5 9.7 14.7 0 20.9-5.7 20.9-11.7 0-5.7-2.9-7.9-9.7-7.9h-13.3c-2.1-.3-3.8-.3-5.2-.8zm10.5-50.7c-6.9 0-12.9 3.3-12.9 11.9s6.2 11.9 12.8 11.9c6.9 0 12.9-3.3 12.9-11.9s-6.2-11.9-12.8-11.9z"/><path d="m1332.2 620.5 24.8 32.9h-12.8l-20.4-27.9h-5v27.9h-10.2v-88.3l10.2-1.2v53h5.2l19.7-23.5h12.2z"/><path d="m1407.9 625.7h-34.8c.7 14 7.4 20.4 18.3 20.4 9.5 0 14.1-4.1 15.7-5.7l2.9 7.2c-2.1 2.1-7.1 7.4-19.8 7.4-17.1 0-27.3-9.8-27.3-32.3 0-21 12.4-30.7 26-30.7 12.4 0 20.2 8.5 20.2 23.5 0 4-.5 7.2-1.2 10.2zm-34.8-8h26.2c.2-1.6.2-2.8.2-4 0-8.5-4.3-13.1-11.6-13.1-8.3 0-14.1 6.1-14.8 17.1z"/><path d="m1430.2 578.9c-4 0-7.1-2.8-7.1-7.1s3.1-7.2 7.1-7.2 7.2 2.9 7.2 7.2-3.1 7.1-7.2 7.1zm5 74.5h-10.2v-60h10.2z"/><path d="m1482.1 602h-15.5v31.1c0 9.3 2.4 12.9 9 12.9 3.3 0 5.7-1.2 7.1-1.7l1 8.1c-1 .7-4.3 2.6-10.7 2.6-11.7 0-16.4-6.7-16.4-20.5v-32.5h-8.3v-7l8.3-1.6 1.2-16.7h9v16.7h16.7z"/></svg>