<svg xmlns="http://www.w3.org/2000/svg" viewBox="0 0 19 17">
    <path d="M10.691 2.45c1.354-.417 2.58-.717 3.683-.366.893.283 1.763.955 2.52 2.469.22.44.405 2.154.095 3.701-.231 1.16-.744 2.139-1.452 2.59-.71.452-1.528.79-2.279 1.094-.641.26-1.241.46-1.55.77-.211.21-.425.47-.651.744C10.034 14.688 8.779 16 7 16c-1.988 0-3.456-.557-4.45-1.55C1.557 13.456 1 11.988 1 10c0-1.933.784-3.683 2.05-4.95A6.982 6.982 0 0 1 8 3c.957 0 1.853-.291 2.691-.55z" fill="#9C0202" stroke="#9C0202" stroke-width="2" fill-opacity=".3" fill-rule="evenodd" stroke-opacity=".1"/>
</svg>
