<svg xmlns="http://www.w3.org/2000/svg" viewBox="0 0 30 30">
    <path d="M15.188 4.5C10.12 4.5 6 8.23 6 12.813c0 5.03 6.388 10.749 8.348 12.383a1.313 1.313 0 0 0 1.68 0c1.96-1.635 8.347-7.356 8.347-12.383 0-4.584-4.121-8.313-9.187-8.313zm-5.048 6.63 4.812-3.062a.439.439 0 0 1 .47 0l4.813 3.063a.438.438 0 0 1-.234.807h-9.627a.437.437 0 0 1-.235-.807zm8.985 2.12v2.625a.438.438 0 0 1-.437.438h-.875a.438.438 0 0 1-.438-.438V13.25c0-.242.196-.437.438-.437h.875c.241 0 .437.195.437.437zm-3.062 0v2.625a.438.438 0 0 1-.438.438h-.875a.437.437 0 0 1-.437-.438V13.25c0-.242.195-.437.437-.437h.875c.242 0 .438.195.438.437zm-3.063 0v2.625a.438.438 0 0 1-.437.438h-.875a.438.438 0 0 1-.438-.438V13.25c0-.242.196-.437.438-.437h.875c.241 0 .437.195.437.437zm6.781 5.25h-9.187a.656.656 0 1 1 0-1.312h9.187a.656.656 0 1 1 0 1.312z" fill="#246EF0" fill-rule="nonzero"/>
</svg>
