<svg xmlns="http://www.w3.org/2000/svg" width="24" height="24" viewBox="0 0 24 24">
    <g fill="none" fill-rule="evenodd">
        <circle cx="12" cy="12" r="12" fill="#45B834"/>
        <path fill="#000" d="M15.916 6.504c-.196.02-.38.109-.52.252L9.75 12.54l-1.146-1.174c-.16-.164-.377-.256-.604-.256-.227 0-.444.092-.604.256L6.25 12.541c-.16.163-.25.386-.25.618 0 .232.09.454.25.618l2.896 2.967c.334.341.874.341 1.207 0l7.397-7.577c.16-.163.25-.386.25-.618 0-.232-.09-.454-.25-.618l-1.146-1.175c-.16-.164-.377-.256-.604-.256l-.084.004zm.084.508c.094 0 .184.038.25.106l1.146 1.175c.067.068.104.16.104.256s-.037.188-.104.256L10 16.382c-.138.141-.362.141-.5 0l-2.896-2.967c-.067-.068-.104-.16-.104-.256s.037-.188.104-.256l1.146-1.175c.066-.068.156-.106.25-.106s.184.038.25.106l1.323 1.356c.098.1.256.1.354 0L15.75 7.12c.066-.069.156-.107.25-.107z"/>
    </g>
</svg>
