<svg xmlns="http://www.w3.org/2000/svg" width="40" height="40" viewBox="0 0 40 40">
    <path fill-rule="evenodd" d="M27.431 19.976c.949-1.004 2.493-1.128 3.588-.289l.152.133c.493.466.79 1.11.826 1.795.038.749-.24 1.478-.764 2.008l-7.18 7.249c-.03.031-.065.057-.101.079-.035.02-.074.037-.115.049l.076-.029-.036.016-.04.013-3.335.961c-.349.1-.725.002-.981-.257-.257-.259-.354-.638-.255-.99l.953-3.367c.004-.012.007-.024.012-.035.024-.067.062-.13.116-.183zm-6.485 8.472l-.718 2.542 2.517-.726-1.799-1.816zm6.032-6.588l-5.571 5.625 2.292 2.315 5.572-5.625-2.293-2.315zM16.512 8c1.07.027 2.08.5 2.79 1.31.71.807 1.054 1.877.952 2.855.156 1.613-.377 3.217-1.464 4.405-.173.193-.142 1.37.036 1.59l.04.031 1.736.65.719.28c.29.118.545.226.78.332 1.158.523 1.844 1.006 2.15 1.626.124.25.024.553-.224.677-.247.125-.547.024-.67-.226-.172-.346-.706-.722-1.665-1.155l-.352-.154c-.248-.105-.524-.217-.843-.34l-1.977-.742c-.993-.37-1.075-2.576-.467-3.251.895-.98 1.334-2.298 1.205-3.722.076-.796-.18-1.589-.705-2.187-.525-.599-1.273-.95-2.04-.97-.793.02-1.54.371-2.066.97-.526.598-.781 1.39-.705 2.284-.128 1.327.312 2.646 1.212 3.628.58.644.529 2.696-.35 3.192l-.12.056c.125-.047-1.362.507-1.728.646l-.697.273c-.28.112-.524.216-.747.317-.959.433-1.493.809-1.652 1.128-.33.778-.538 1.6-.62 2.44l-.017.21H19.5c.246 0 .45.18.492.415l.008.09c0 .249-.177.455-.41.497l-.09.009h-11c-.278 0-.503-.23-.5-.511.014-1.22.266-2.425.753-3.574.307-.62.992-1.103 2.15-1.626l.37-.162c.259-.11.545-.225.874-.352l1.991-.748.04-.03c.165-.206.204-1.235.073-1.533l-.034-.055c-1.09-1.19-1.626-2.794-1.47-4.31-.103-1.076.242-2.146.951-2.954.71-.808 1.72-1.282 2.814-1.309zm13.77 12.4c-.678-.426-1.568-.32-2.135.281l-.462.465 2.293 2.315.547-.551c.253-.255.413-.585.46-.937l.014-.152-.001-.154c-.024-.463-.24-.894-.593-1.182z"/>
</svg>
