<?xml version="1.0" encoding="UTF-8"?>
<svg width="32px" height="32px" viewBox="0 0 32 32" version="1.1" xmlns="http://www.w3.org/2000/svg" xmlns:xlink="http://www.w3.org/1999/xlink">
    <title>icon-navigation-smartphone-finger@140x140</title>
    <g id="icon-navigation-smartphone-finger@140x140" stroke="none" stroke-width="1" fill="none" fill-rule="evenodd" stroke-linecap="round" stroke-linejoin="round">
        <g id="streamline-icon-navigation-smartphone-finger@140x140" stroke="#000000" stroke-width="1.5">
            <path d="M17.0339378,31.7519531 L13.1643864,27.3980077 C12.6361534,26.817612 12.4606903,25.9980663 12.7049888,25.2522731 C12.9492872,24.5064799 13.5756304,23.9495808 14.3448807,23.7941999 C15.114131,23.6388189 15.9075252,23.908945 16.4221455,24.5014441 L19.1339115,27.5520058 L19.1339115,14.9521639 C19.1339115,13.7923805 20.0741017,12.8521903 21.2338851,12.8521903 C22.3936685,12.8521903 23.3338587,13.7923805 23.3338587,14.9521639 L23.3338587,24.4020453 L25.4338324,24.4020453 C28.9131827,24.4020453 31.7337533,27.222616 31.7337533,30.7019663 L31.7337533,31.7519531" id="Path"></path>
            <path d="M11.7840037,21.2520849 L2.33412227,21.2520849 C1.17433885,21.2520849 0.234148624,20.3118946 0.234148624,19.1521112 L0.234148624,6.55226934 C0.234148624,5.39248592 1.17433885,4.45229569 2.33412227,4.45229569" id="Path"></path>
            <path d="M22.2838719,4.45229569 L29.6337797,4.45229569 C30.7935631,4.45229569 31.7337533,5.39248592 31.7337533,6.55226934 L31.7337533,19.1521112 C31.7337533,20.3118946 30.7935631,21.2520849 29.6337797,21.2520849 L27.533806,21.2520849" id="Path"></path>
            <path d="M12.3089971,6.55226934 C12.3089971,6.26232348 12.0739495,6.02727593 11.7840037,6.02727593" id="Path"></path>
            <path d="M11.7840037,7.07726275 C12.0739495,7.07726275 12.3089971,6.84221519 12.3089971,6.55226934" id="Path"></path>
            <path d="M11.2590103,6.55226934 C11.2590103,6.84221519 11.4940578,7.07726275 11.7840037,7.07726275" id="Path"></path>
            <path d="M11.7840037,6.02727593 C11.4940578,6.02727593 11.2590103,6.26232348 11.2590103,6.55226934" id="Path"></path>
            <path d="M11.7840037,0.252348396 C15.2633539,0.252348396 18.0839246,3.07291908 18.0839246,6.55226934 C18.0839246,9.24163559 14.3207719,14.3599714 12.6113933,16.5453439 C12.412404,16.8000295 12.1072087,16.9488799 11.7840037,16.9488799 C11.4607987,16.9488799 11.1556034,16.8000295 10.9566141,16.5453439 C9.24723552,14.3585714 5.48408274,9.24163559 5.48408274,6.55226934 C5.48408274,3.07291908 8.30465342,0.252348396 11.7840037,0.252348396 Z" id="Path"></path>
        </g>
    </g>
</svg>