<svg xmlns="http://www.w3.org/2000/svg" width="18" height="18" viewBox="0 0 18 18">
    <g fill="none" fill-rule="evenodd" opacity=".8">
        <g fill="#0F0F0F" fill-rule="nonzero">
            <g>
                <g>
                    <g>
                        <path d="M16.77 1.832V1.82c-.109-.308-.409-.452-.663-.32l-4.733 2.47c-.127.067-.218.2-.273.343-.1.32.028.672.291.805.118.055.255.055.39-.011l4.725-2.47c.263-.133.381-.497.263-.805zm-5.705 12.141l-2.271-2.349-1.526.783c-.31.154-.654-.01-.782-.386-.127-.364.019-.783.318-.937l.99-.508-1.59-1.643-1.653 1.412-1.698 1.434c-.355.308-.655.672-.9 1.047-.272.441-.463.893-.59 1.323-.118.386-.173.74-.182 1.037 0 .177.018.397.073.485.054.11.227.232.481.364.3.166.69.298 1.127.397.545.11 1.19.166 1.844.1.563-.056 1.135-.188 1.662-.43 1.572-.706 3.135-1.412 4.697-2.129zm1.535-.298c.337.342.255 1.026-.172 1.213-1.88.86-3.761 1.71-5.642 2.559-.654.297-1.335.463-1.99.518-.762.077-1.498.022-2.134-.121-.536-.11-1.018-.276-1.4-.485-.453-.243-.799-.54-.99-.872C.128 16.18 0 15.837 0 15.153c.01-.452.09-.97.245-1.478.164-.562.418-1.158.772-1.72.31-.485.69-.948 1.163-1.345 1.236-1.06 2.48-2.118 3.716-3.176.218-.188.518-.177.727.044l1.68 1.742V5.923c0-.287.146-.54.364-.662l1.217-.628c-.009-.298.036-.585.118-.85.164-.496.482-.904.909-1.135L15.753.122c.845-.375 1.762.144 2.107 1.136.373 1.037-.027 2.26-.88 2.702l-4.734 2.47c-.427.22-.89.22-1.29.022-.236-.11-.445-.287-.609-.496l-.854.441v4.047l3.107 3.231z" transform="translate(-156 -1463) translate(-3 1238) translate(31 190) translate(128 35)"/>
                    </g>
                </g>
            </g>
        </g>
    </g>
</svg>
