<?xml version="1.0" standalone="no"?>
<!DOCTYPE svg PUBLIC "-//W3C//DTD SVG 20010904//EN"
 "http://www.w3.org/TR/2001/REC-SVG-20010904/DTD/svg10.dtd">
<svg version="1.0" xmlns="http://www.w3.org/2000/svg"
 width="709.000000pt" height="709.000000pt" viewBox="0 0 709.000000 709.000000"
 preserveAspectRatio="xMidYMid meet">
<metadata>
Created by potrace 1.11, written by Peter Selinger 2001-2013
</metadata>
<g transform="translate(0.000000,709.000000) scale(0.100000,-0.100000)"
fill="#000000" stroke="none">
<path d="M3295 7084 c-724 -74 -1330 -357 -1826 -853 -453 -453 -731 -1003
-831 -1646 -30 -190 -32 -644 -5 -830 85 -572 305 -1064 668 -1495 54 -63 580
-598 1171 -1188 l1073 -1072 1106 1107 c608 610 1135 1146 1172 1192 344 437
547 895 629 1422 30 194 33 646 5 834 -85 570 -303 1060 -668 1495 -348 415
-836 743 -1349 905 -293 92 -514 126 -850 130 -140 2 -273 1 -295 -1z m533
-335 c490 -53 970 -253 1357 -566 121 -97 326 -306 417 -423 159 -205 312
-481 396 -715 47 -129 105 -358 128 -500 22 -135 30 -513 15 -658 -52 -485
-239 -949 -539 -1337 -91 -117 -296 -325 -417 -423 -390 -315 -872 -514 -1372
-568 -145 -15 -523 -7 -658 15 -142 23 -371 81 -500 128 -249 90 -537 253
-750 425 -121 97 -326 306 -417 423 -297 384 -486 848 -537 1322 -14 123 -14
445 -1 563 107 965 738 1792 1640 2148 198 78 453 142 660 166 109 12 465 13
578 0z"/>
<path d="M1695 5408 c-3 -7 -4 -425 -3 -928 l3 -915 228 -3 227 -2 0 350 0
350 385 0 385 0 0 190 0 190 -385 0 -385 0 0 195 0 195 423 2 422 3 0 190 0
190 -648 3 c-513 2 -649 0 -652 -10z"/>
<path d="M3145 5408 c-3 -7 -4 -425 -3 -928 l3 -915 225 0 225 0 0 925 0 925
-223 3 c-173 2 -224 0 -227 -10z"/>
<path d="M3782 5403 c3 -10 132 -215 286 -456 l282 -438 -300 -465 c-165 -256
-300 -470 -300 -475 0 -6 94 -8 237 -7 l237 3 181 282 c99 156 182 283 185
283 3 0 87 -129 188 -285 l183 -285 235 0 c131 0 234 4 234 9 0 5 -133 215
-297 467 -163 253 -296 464 -296 470 0 6 129 212 286 457 158 246 287 449 287
452 0 3 -106 5 -235 5 l-235 0 -88 -135 c-48 -75 -127 -197 -175 -271 l-88
-136 -172 268 -173 269 -233 3 c-219 2 -233 1 -229 -15z"/>
<path d="M1692 3123 c3 -270 4 -278 23 -278 19 0 20 8 25 230 l5 230 83 -162
c65 -128 87 -163 102 -163 16 0 38 35 103 165 l82 166 5 -233 c5 -211 7 -233
23 -236 16 -3 17 15 17 278 l0 281 -21 -3 c-17 -2 -43 -44 -117 -187 l-95
-184 -94 186 c-84 168 -96 187 -118 187 l-25 0 2 -277z"/>
<path d="M2254 3358 c14 -24 59 -101 100 -173 l76 -130 0 -107 c0 -101 1 -108
20 -108 19 0 20 7 20 111 l0 111 99 169 c91 155 97 169 76 169 -19 0 -37 -24
-107 -145 -45 -80 -86 -145 -89 -145 -4 0 -44 65 -90 145 -69 120 -88 145
-107 145 l-23 0 25 -42z"/>
<path d="M2740 3120 l0 -280 135 0 c173 0 227 11 278 59 31 29 40 46 44 82 7
62 -16 114 -61 136 l-35 16 28 33 c65 73 44 177 -46 223 -13 7 -83 11 -182 11
l-161 0 0 -280z m274 154 c22 -21 20 -50 -4 -74 -16 -16 -33 -20 -80 -20 l-60
0 0 55 0 55 64 0 c45 0 69 -5 80 -16z m30 -220 c18 -18 20 -47 6 -75 -9 -16
-22 -19 -95 -19 l-85 0 0 55 0 55 79 0 c59 0 84 -4 95 -16z"/>
<path d="M3262 3123 l3 -278 200 0 200 0 3 58 3 57 -136 0 -135 0 0 55 0 55
120 0 120 0 0 60 0 60 -120 0 -120 0 0 50 0 50 135 0 135 0 0 55 0 55 -205 0
-205 0 2 -277z"/>
<path d="M3740 3120 l0 -281 68 3 67 3 3 83 3 82 42 0 42 0 48 -85 48 -85 80
0 c43 0 79 2 79 5 0 2 -25 45 -55 95 l-55 90 40 36 c59 53 77 144 45 221 -40
96 -83 112 -292 113 l-163 0 0 -280z m305 145 c31 -30 33 -83 6 -116 -16 -20
-30 -24 -95 -27 l-76 -4 0 86 0 86 70 0 c62 0 74 -3 95 -25z"/>
<path d="M4280 3120 l0 -280 193 2 192 3 3 58 3 57 -126 0 -125 0 0 220 0 220
-70 0 -70 0 0 -280z"/>
<path d="M4730 3120 l0 -280 70 0 70 0 0 280 0 280 -70 0 -70 0 0 -280z"/>
<path d="M4962 3123 l3 -278 65 0 65 0 5 155 5 155 94 -147 c51 -81 99 -152
106 -158 8 -6 40 -10 72 -8 l58 3 3 278 2 277 -70 0 -69 0 -3 -155 -3 -155
-99 155 -99 155 -69 0 -68 0 2 -277z"/>
</g>
</svg>
