<svg height="24" viewBox="0 0 20 24" width="20" xmlns="http://www.w3.org/2000/svg"><g fill="none"><path d="m6.475 1.5 4.025-.798 5.151 2.047 2.349 3.882.545 5.362-2.259 5.085-4.729 4.871-2.118 1.129-6-5.294-2.894-7.284.955-4.5 2.363-3.392z" fill="#fff"/><g fill="#ff4600"><path d="m9.751 13.5c-.113 0-.224-.017-.332-.05a.786.786 0 0 1 -.121-.049 1.126 1.126 0 0 1 -.639-1.291.587.587 0 0 1 .013-.059l.005-.015.024-.059.021-.05a1.121 1.121 0 0 1 1.289-.642c.023.004.046.01.068.016l.002.001a.507.507 0 0 1 .068.027 1.13 1.13 0 0 1 .696 1.289.691.691 0 0 1 -.018.084l-.005.016a1.115 1.115 0 0 1 -1.071.782zm-.001-3a.75.75 0 0 1 -.75-.75v-3a.75.75 0 0 1 1.5 0v3a.75.75 0 0 1 -.75.75z"/><path d="m9.749 23.898c-.26 0-.517-.068-.743-.197a21.007 21.007 0 0 1 -5.142-4.209 14.494 14.494 0 0 1 -3.864-9.742c0-5.385 4.365-9.75 9.75-9.75s9.75 4.365 9.75 9.75a14.495 14.495 0 0 1 -3.865 9.744 21.008 21.008 0 0 1 -5.142 4.208 1.51 1.51 0 0 1 -.744.196zm.001-22.398a8.26 8.26 0 0 0 -8.25 8.25c0 1.861.595 8.273 8.25 12.649 7.655-4.372 8.25-10.787 8.25-12.649a8.26 8.26 0 0 0 -8.25-8.25z"/></g></g></svg>