<svg width="19" height="22" viewBox="0 0 19 22" xmlns="http://www.w3.org/2000/svg">
    <path d="M9.188.5C4.12.5 0 4.23 0 8.813c0 5.03 6.388 10.749 8.348 12.383a1.313 1.313 0 0 0 1.68 0c1.96-1.635 8.347-7.356 8.347-12.383C18.375 4.229 14.254.5 9.188.5zM4.14 7.13l4.812-3.062a.438.438 0 0 1 .47 0l4.813 3.063a.438.438 0 0 1-.235.807H4.375a.438.438 0 0 1-.235-.807zm8.985 2.12v2.625a.438.438 0 0 1-.437.438h-.875a.438.438 0 0 1-.438-.438V9.25c0-.242.196-.437.438-.437h.875c.241 0 .437.195.437.437zm-3.062 0v2.625a.438.438 0 0 1-.438.438H8.75a.438.438 0 0 1-.437-.438V9.25c0-.242.195-.437.437-.437h.875c.242 0 .438.195.438.437zM7 9.25v2.625a.438.438 0 0 1-.437.438h-.875a.438.438 0 0 1-.438-.438V9.25c0-.242.196-.437.438-.437h.875c.241 0 .437.195.437.437zm6.781 5.25H4.594a.656.656 0 1 1 0-1.312h9.187a.656.656 0 0 1 0 1.312z" fill="#246EF0" fill-rule="nonzero"/>
</svg>
