<svg width="24px" height="24px" viewBox="0 0 30 24" version="1.1" xmlns="http://www.w3.org/2000/svg" xmlns:xlink="http://www.w3.org/1999/xlink">
    <defs>
        <path d="M10.4537703,24.4200001 C9.44623988,24.4200001 8.51243119,23.9941872 7.82681903,23.2177837 L1.40688433,16.3765678 C0.68686869,15.6095672 0.29,14.60078 0.29,13.535576 C0.29,12.4717152 0.68686869,11.462928 1.40688433,10.6945841 C2.84322953,9.16461256 5.32273732,9.17401537 6.68781817,10.7160762 L10.2522642,14.5148114 C10.3468738,14.6168991 10.6048999,14.6168991 10.7031955,14.5148114 L22.9115153,1.50132242 C24.3503179,-0.0299923461 26.828597,-0.0165597605 28.1924492,1.52415782 C28.8952631,2.2736961 29.30319,3.33755689 29.2896744,4.42290981 C29.27493,5.49348689 28.8706892,6.4821252 28.1519022,7.20614157 L13.1065242,23.2406191 C12.392652,24.0009035 11.4514712,24.4200001 10.4537703,24.4200001 Z M4.06086691,11.6644168 C3.57921822,11.6644168 3.12460083,11.8659055 2.78056605,12.2326151 C2.44267475,12.5926084 2.25714171,13.0560326 2.25714171,13.535576 C2.25714171,14.0151193 2.44267475,14.4772002 2.78056605,14.8371935 L9.22015988,21.6999015 C9.8910277,22.4588426 11.0533738,22.4252612 11.7340711,21.7012448 L26.7978796,5.64393185 C27.1369996,5.30274418 27.3151605,4.86484188 27.3225327,4.39067161 C27.3286762,3.88560638 27.1431431,3.40606308 26.7978796,3.03935349 C26.1257831,2.28175565 24.9646658,2.31130734 24.2827397,3.03935349 L12.0731911,16.0541858 C11.2315346,16.9461095 9.71778161,16.9461095 8.87981119,16.0541858 L5.29447732,12.2326151 C4.9627295,11.857846 4.53145733,11.6644168 4.06086691,11.6644168 Z" id="path-1"></path>
    </defs>
    <g id="Symbols" stroke="none" stroke-width="1" fill="none" fill-rule="evenodd">
        <mask id="mask-2" fill="white">
            <use xlink:href="#path-1"></use>
        </mask>
        <use id="Shape" fill="#0F0F0F" fill-rule="nonzero" xlink:href="#path-1"></use>
    </g>
</svg>