<svg xmlns="http://www.w3.org/2000/svg" xmlns:xlink="http://www.w3.org/1999/xlink" width="24" height="24" viewBox="0 0 24 24">
    <defs>
        <path id="konzept" d="M8.765 22v-.61c0-.316.332-.59.776-.59h4.687c.416.021.748.274.748.59V22c0 .484-.471.884-1.081.947l-.194.548c-.111.294-.472.505-.86.505H10.9c-.416 0-.776-.21-.86-.505l-.194-.548c-.61-.063-1.081-.463-1.081-.947zm3.364-18.8c.432 0 .777-.256.777-.576V.576c0-.32-.345-.576-.777-.576-.431 0-.776.256-.776.576v2.048c0 .32.345.576.776.576zM1.56 11.539h1.988c.29 0 .559-.356.559-.8 0-.445-.249-.8-.56-.8H1.56c-.31 0-.559.355-.559.8 0 .444.248.8.56.8zm18.335-.8c0 .444.248.8.559.8h1.987c.31 0 .559-.356.559-.8.02-.445-.228-.8-.559-.8h-1.987c-.31 0-.559.355-.559.8zm-1.36-5.016a.677.677 0 0 0 .478-.208l1.71-1.766a.721.721 0 0 0 0-1.012.668.668 0 0 0-.98 0L18.03 4.502a.721.721 0 0 0 0 1.013c.15.13.327.208.503.208zM4.237 5.515c.126.13.302.208.478.208a.677.677 0 0 0 .478-.208.721.721 0 0 0 0-1.013l-1.71-1.765a.668.668 0 0 0-.981 0 .721.721 0 0 0 0 1.012l1.735 1.766zm1.422 5.63c-.024-3.47 2.715-6.32 6.138-6.345h.05c3.423 0 6.235 2.8 6.235 6.27a6.41 6.41 0 0 1-1.736 4.363c-.636.669-1.052 1.487-1.174 2.404a1.61 1.61 0 0 1-1.59 1.363H10.16c-.807 0-1.468-.57-1.59-1.363a4.632 4.632 0 0 0-1.174-2.404c-1.076-1.19-1.712-2.702-1.736-4.288zm1.553.007c.024 1.194.472 2.34 1.32 3.2a5.66 5.66 0 0 1 1.487 3.033c.024.143.118.191.236.191h1.014v-3.869l-1.368-1.385a.64.64 0 0 1 0-.883.621.621 0 0 1 .873 0l1.108 1.122 1.11-1.122a.621.621 0 0 1 .872 0 .64.64 0 0 1 0 .883l-1.368 1.385V17.6h1.014c.118 0 .212-.096.236-.191a5.5 5.5 0 0 1 1.486-3.033 4.759 4.759 0 0 0 1.297-3.272c0-2.603-2.099-4.704-4.694-4.704h-.047c-2.524 0-4.6 2.15-4.576 4.752z"/>
    </defs>
    <g fill="none" fill-rule="evenodd">
        <mask id="konzept-mask" fill="#fff">
            <use xlink:href="#konzept" />
        </mask>
        <use fill="#000" fill-rule="nonzero" xlink:href="#konzept" />
        <g fill="#EB6CAB" mask="url(#konzept-mask)">
            <path d="M0 0h24v25H0z" />
        </g>
    </g>
</svg>
