<svg xmlns="http://www.w3.org/2000/svg" xmlns:xlink="http://www.w3.org/1999/xlink" width="24" height="24" viewBox="0 0 24 24">
    <defs>
        <path id="planung" d="M14.821 6.19c-.104-.104-.21-.104-.314 0L4.11 16.586a.75.75 0 0 0-.227.368l-1.53 4.663a.262.262 0 0 0 .33.33L7.35 20.42a.745.745 0 0 0 .368-.226L18.114 9.797c.104-.105.104-.21 0-.315L14.821 6.19zM4.73 20.733c-.221-.41-.729-.945-1.137-1.165l.882-2.69.736.067c.234.021.29.076.322.307l.093.647c.033.234.112.41.24.538.127.127.303.206.537.239l.648.093c.229.032.285.086.306.322l.067.737-2.694.905zM21.516 3.251c1.102 1.102 1.102 2.042 0 3.145l-2.009 2.008c-.104.104-.21.104-.314 0L15.9 5.11c-.104-.104-.104-.21 0-.314l2.01-2.01c1.101-1.101 2.042-1.101 3.143 0l.463.464zM9.595 22.901c-.164-.038-.15-.56-.09-.819.05-.222.276-.733.44-.696l9.026 2.084c.164.038.16.601.11.823-.06.259-.296.73-.46.691L9.595 22.9z"/>
    </defs>
    <g fill="none" fill-rule="evenodd">
        <mask id="planung-mask" fill="#fff">
            <use xlink:href="#planung" />
        </mask>
        <g fill="#BD0972" mask="url(#planung-mask)">
            <path d="M0 0h25v25H0z" />
        </g>
    </g>
</svg>
