<svg xmlns="http://www.w3.org/2000/svg" width="40" height="40" viewBox="0 0 40 40">
    <g fill="none" fill-rule="evenodd">
        <g fill="#000">
            <g>
                <path d="M36.5 27c.276 0 .5.224.5.5s-.224.5-.5.5h-33c-.276 0-.5-.224-.5-.5s.224-.5.5-.5h33zM26.485 12.379c.06.238-.062.479-.278.577l-.086.03-1.459.364 1.76 4.78c.346-.085.707-.13 1.078-.13 2.485 0 4.5 2.015 4.5 4.5S29.985 27 27.5 27 23 24.985 23 22.5c0-1.76 1.01-3.285 2.484-4.024l-.951-2.581-5.132 6.904-.06.068-.069.054-.076.04-.081.027-.085.012h-2.058c-.249 2.25-2.156 4-4.472 4-2.485 0-4.5-2.015-4.5-4.5s2.015-4.5 4.5-4.5c.977 0 1.882.312 2.62.841l1.277-1.419L15.413 15H14.5c-.276 0-.5-.224-.5-.5 0-.245.177-.45.41-.492L14.5 14h3c.276 0 .5.224.5.5 0 .246-.177.45-.41.492L17.5 15h-1.007l.765 1.882 6.779-2.333-.313-.853c-.098-.266-.079-.562.054-.813.114-.216.302-.38.526-.467l.116-.036 1.459-.365c.268-.067.539.096.606.364zM12.5 19C10.567 19 9 20.567 9 22.5s1.567 3.5 3.5 3.5c1.763 0 3.221-1.303 3.464-2.999H12.5c-.404 0-.63-.448-.423-.769l.051-.066 2.318-2.576c-.557-.372-1.226-.59-1.946-.59zm15 0c-.25 0-.494.026-.729.076l1.198 3.251c.096.26-.037.547-.296.642-.23.085-.483-.01-.604-.214l-.038-.082-1.198-3.251C24.74 20.014 24 21.17 24 22.5c0 1.933 1.567 3.5 3.5 3.5s3.5-1.567 3.5-3.5-1.567-3.5-3.5-3.5zm-12.311 1.26L13.622 22h2.343c-.094-.656-.37-1.254-.776-1.74zm1.626-1.808l-.952 1.058c.603.678 1.005 1.54 1.11 2.49h1.283l-1.441-3.548zm6.503-2.599l-5.684 1.956 1.495 3.68 4.189-5.636z" transform="translate(-12 -12) translate(12 12)"/>
            </g>
        </g>
    </g>
</svg>
