<svg xmlns="http://www.w3.org/2000/svg" width="40" height="40" viewBox="0 0 40 40">
    <g fill="none" fill-rule="evenodd">
        <g fill="#000">
            <g>
                <path d="M24.15 10.36c.1.225.022.484-.174.617l-.079.044-1.374.613 2.564 4.401c.326-.143.673-.25 1.039-.314 2.447-.432 4.781 1.202 5.213 3.65.377 2.139-.824 4.191-2.767 4.963 1.66.779 2.31 2.666 5.459 2.666H36.5c.276 0 .5.224.5.5s-.224.5-.5.5h-2.45c-4.048 0-5.034-3-7.044-3s-2.955 3-7.042 3H3.5c-.276 0-.5-.224-.5-.5s.224-.5.5-.5l7.137.001c-1.48-.523-2.642-1.807-2.934-3.463-.431-2.447 1.203-4.781 3.65-5.213.963-.17 1.908-.02 2.727.374l1.01-1.62-1.389-2.214-.899.159c-.272.047-.531-.134-.58-.406-.042-.242.097-.474.32-.556l.087-.023 2.954-.521c.272-.048.531.133.58.405.042.242-.097.474-.32.556l-.086.024-.992.174 1.08 1.721 6.27-3.475-.456-.785c-.143-.246-.174-.54-.087-.81.074-.233.23-.428.437-.551l.107-.056 1.374-.613c.252-.113.547 0 .66.253zm-1.312 3.803l-3.855 7.69-.047.077-.059.065-.068.053-.075.04-.081.027-2.027.358c.13 2.014-1.108 3.865-2.994 4.528l6.32-.001c3.115 0 3.803-1.822 5.4-2.626-1.452-.534-2.588-1.806-2.877-3.44-.305-1.734.425-3.41 1.748-4.395l-1.385-2.376zm-11.31 5.147c-1.905.336-3.176 2.151-2.84 4.055.336 1.903 2.151 3.174 4.055 2.839 1.736-.306 2.946-1.843 2.89-3.555l-3.411.6c-.398.07-.698-.33-.55-.682l.039-.075 1.835-2.938c-.613-.271-1.31-.369-2.019-.244zm14.771-2.605c-.246.044-.482.112-.704.202l1.744 2.993c.14.24.058.545-.18.684-.212.124-.478.074-.632-.107l-.052-.073-1.744-2.994c-.973.773-1.502 2.04-1.27 3.35.335 1.904 2.15 3.175 4.054 2.839 1.903-.336 3.175-2.151 2.839-4.055-.336-1.903-2.151-3.174-4.055-2.839zm-11.905 3.378l-1.241 1.987 2.307-.407c-.206-.63-.582-1.171-1.066-1.58zm1.287-2.062l-.754 1.207c.712.563 1.257 1.342 1.526 2.26l1.264-.223-2.036-3.244zm5.953-3.689l-5.258 2.914 2.111 3.363 3.147-6.277z" transform="translate(-12 -12) translate(12 12)"/>
            </g>
        </g>
    </g>
</svg>
