<svg xmlns="http://www.w3.org/2000/svg" width="40" height="40" viewBox="0 0 40 40">
    <g fill="none" fill-rule="evenodd">
        <g fill="#000">
            <g>
                <path d="M24.705 11.74c.084.23-.012.483-.217.603l-.081.038-1.413.516 2.25 4.569c.335-.12.689-.203 1.058-.242 2.472-.26 4.686 1.534 4.946 4.005.26 2.472-1.533 4.686-4.005 4.946-2.472.26-4.686-1.533-4.946-4.005-.184-1.75.662-3.372 2.05-4.262l-1.216-2.467-4.382 7.403-.052.073-.063.061-.072.048-.078.035-.082.021-2.047.216c-.008 1.518-.782 2.89-1.986 3.703L17.036 27l1.518-.773c.151-.077.336-.017.413.134.022.043.033.09.033.139v.194c0 .188-.105.36-.272.445L17.05 28H8.5c-.276 0-.5-.224-.5-.5s.224-.5.5-.5h.841c-1.065-.718-1.817-1.884-1.962-3.262-.26-2.472 1.534-4.686 4.005-4.946.972-.102 1.905.113 2.694.563L15.2 17.81l-1.232-2.306-.908.096c-.275.029-.52-.17-.55-.445-.025-.244.13-.466.357-.532l.088-.018 2.984-.313c.274-.03.52.17.55.445.025.244-.13.465-.357.532l-.089.017-1.001.105.957 1.792 6.498-3.029-.4-.815c-.126-.255-.137-.551-.031-.815.09-.226.26-.41.474-.519l.111-.048 1.413-.515c.26-.095.546.038.641.298zM6.5 27c.276 0 .5.224.5.5s-.224.5-.5.5h-3c-.276 0-.5-.224-.5-.5s.224-.5.5-.5h3zm21.861-.861c.039 0 .077.006.114.018l2.547.843h1.033l1.5-.771c.15-.077.334-.018.411.131.022.044.034.091.034.14v.194c0 .188-.105.36-.273.445L32.043 28H31l-2.658-.886c-.204-.068-.342-.26-.342-.474v-.14c0-.2.162-.361.361-.361zM26.5 27c.276 0 .5.224.5.5s-.224.5-.5.5h-1c-.276 0-.5-.224-.5-.5s.224-.5.5-.5h1zm-6.187-.813c.048 0 .094.01.137.031l1.614.782h1.442c.276 0 .5.224.5.5s-.224.5-.5.5h-1.41l-1.811-.864c-.174-.083-.285-.259-.285-.451V26.5c0-.173.14-.313.313-.313zm-8.824-6.4c-1.923.202-3.317 1.924-3.115 3.846.202 1.923 1.924 3.318 3.847 3.115 1.753-.184 3.067-1.632 3.131-3.344l-3.445.361c-.402.042-.673-.378-.5-.72l.043-.071 2.036-2.804c-.593-.312-1.281-.458-1.997-.383zm14.918-1.568c-.249.026-.489.078-.717.152l1.531 3.108c.122.248.02.547-.228.67-.22.108-.481.04-.622-.151l-.047-.077-1.531-3.108c-1.024.703-1.64 1.93-1.501 3.253.202 1.922 1.924 3.317 3.846 3.115 1.923-.203 3.317-1.925 3.115-3.847-.202-1.923-1.924-3.317-3.846-3.115zm-12.112 2.54l-1.377 1.894 2.33-.245c-.162-.643-.5-1.209-.953-1.65zm1.428-1.968l-.836 1.151c.67.612 1.16 1.426 1.364 2.361l1.276-.134-1.804-3.378zm6.196-3.265l-5.449 2.54 1.872 3.502 3.577-6.042z" transform="translate(-12 -12) translate(12 12)"/>
            </g>
        </g>
    </g>
</svg>
